<?xml version="1.0" encoding="utf-8"?>
<!-- Generator: Adobe Illustrator 21.1.0, SVG Export Plug-In . SVG Version: 6.00 Build 0)  -->
<svg version="1.1" id="Layer_1" xmlns="http://www.w3.org/2000/svg" xmlns:xlink="http://www.w3.org/1999/xlink" x="0px" y="0px"
	 viewBox="0 0 507 162" style="enable-background:new 0 0 507 162;" xml:space="preserve">
<style type="text/css">
	.st0{fill:#fff;}
	.st1{fill:#0089CB;}
	.st2{fill:#81C3EC;}
	.st3{fill:#FFFFFF;}
</style>
<g>
	<g>
		<g>
			<path class="st0" d="M171.3,89l-6,2.7L149,74.1l-0.2,16.2l-6.4,0.8V57.5l6.4-0.8v16.6L164.3,56l5.8,2.5l-13.6,14.9L171.3,89z"/>
			<path class="st0" d="M199.8,90.3l-5.8,0.8v-3.7c-1.3,1.7-3,2.8-5,3.5c-1.4,0.5-2.9,0.7-4.4,0.7c-4,0-7.2-1.2-9.6-3.7
				c-2.1-2.2-3.2-4.9-3.2-8c0-3.4,1.2-6.2,3.6-8.4c2.4-2.2,5.5-3.3,9.3-3.3c1.6,0,3.1,0.2,4.5,0.7c1.4,0.5,2.8,1.3,4.1,2.5l0.1-3.4
				c0-2.3-0.9-3.9-2.7-4.9c-1.3-0.7-2.8-1-4.7-1c-1.7,0-3.4,0.2-5.1,0.6c-1.1,0.3-2.3,0.7-3.8,1.2l-1.9,0.7l2-6.6
				c1.7-0.4,3.4-0.8,5.1-1.1c1.7-0.3,3.3-0.4,4.7-0.4c4.1,0,7.2,1,9.4,3c2.2,2,3.2,4.8,3.2,8.3V90.3z M193.5,79.9
				c0-1.7-0.6-3.2-1.8-4.4c-1.5-1.4-3.5-2.2-6.1-2.2c-2.2,0-4,0.6-5.3,1.8c-1.3,1.2-2,2.7-2,4.5c0,1.8,0.6,3.4,1.8,4.6
				c1.4,1.4,3.3,2.1,5.7,2.1c2.5,0,4.5-0.7,5.9-2.1C192.9,83,193.5,81.5,193.5,79.9z"/>
			<path class="st0" d="M243.7,74.3c0,5.2-1.7,9.4-5.1,12.6c-3.4,3.2-7.6,4.8-12.4,4.8c-2.8,0-5.3-0.5-7.5-1.6
				c-1.8-0.9-3.5-2.2-5.1-3.9v15.6l-6.4,0.8V57.5l6.1-0.8v6c1.2-1.7,2.7-3,4.4-4c2.5-1.5,5.3-2.2,8.5-2.2c5,0,9.2,1.7,12.6,5
				C242,64.8,243.7,69.1,243.7,74.3z M237.3,74.2c0-3.5-1.1-6.4-3.4-8.7c-2.3-2.3-5.2-3.4-8.6-3.4c-3.3,0-6,1.1-8.3,3.4
				c-2.3,2.3-3.4,5.2-3.4,8.7c0,3.4,1.2,6.2,3.5,8.5c2.3,2.3,5.1,3.4,8.2,3.4c3.5,0,6.3-1.1,8.6-3.4
				C236.2,80.4,237.3,77.6,237.3,74.2z"/>
			<path class="st0" d="M277.4,90.3l-6.4,0.8V70.6L249,92.6v-35l6.4-0.8v20.8l21.9-22V90.3z"/>
			<path class="st0" d="M315.4,65.6l-24.3,14.9c1,1.8,2.5,3.2,4.5,4.2c1.6,0.8,3.3,1.2,5,1.2c2.3,0,4.6-0.5,6.8-1.6
				c2.2-1,4.2-2.4,6-4.2l1.6,6.6c-4.3,3.4-9,5-14,5c-5.6,0-10.1-1.8-13.6-5.5c-3.2-3.4-4.8-7.5-4.8-12.3c0-4.9,1.7-9.1,5.1-12.4
				c3.4-3.3,7.6-5,12.5-5c3.3,0,6.2,0.8,8.8,2.4C311.8,60.5,313.9,62.8,315.4,65.6z M306.4,64.5c-0.6-0.7-1.4-1.2-2.4-1.6
				c-1-0.4-2.2-0.6-3.6-0.6c-3.4,0-6.1,1.1-8.2,3.3c-2.1,2.2-3.1,4.9-3.1,8V75L306.4,64.5z"/>
			<path class="st0" d="M350,87.4c-1.6,1.3-3.4,2.4-5.3,3.1c-2,0.8-4.2,1.2-6.6,1.2c-5.2,0-9.6-1.6-13-4.7c-3.7-3.3-5.5-7.6-5.5-13
				c0-5.3,1.8-9.6,5.3-12.8c3.6-3.2,8-4.8,13.2-4.8c2.4,0,4.7,0.4,6.8,1.2c1.8,0.7,3.5,1.7,5.2,3.1l-3.5,4.7
				c-1.3-1.2-2.7-2.1-4.2-2.6c-1.5-0.5-2.9-0.8-4.3-0.8c-3.5,0-6.5,1.1-8.8,3.3c-2.3,2.2-3.4,5.1-3.4,8.7c0,3.6,1.1,6.5,3.4,8.7
				c2.2,2.2,5.2,3.3,8.8,3.3c1.5,0,2.8-0.2,4-0.6c1.7-0.6,3.2-1.5,4.5-2.8L350,87.4z"/>
			<path class="st0" d="M386.5,58.2c-7,15.2-14.3,30.1-21.9,44.7l-6.5-1.4l7.8-15.3l-15-27.9l6.3-1.7l12.1,23.1l10.9-23.1
				L386.5,58.2z"/>
		</g>
	</g>
	<g>
		<path class="st1" d="M437.3,90.3l-6.4,0.8V76h-15.2v14.3l-6.4,0.8V57.5l6.4-0.8v13.6h15.2V57.5l6.4-0.8V90.3z"/>
		<path class="st1" d="M475.3,65.6L451,80.5c1,1.8,2.5,3.2,4.5,4.2c1.6,0.8,3.3,1.2,5,1.2c2.3,0,4.6-0.5,6.8-1.6
			c2.2-1,4.2-2.4,6-4.2l1.6,6.6c-4.3,3.4-9,5-14,5c-5.6,0-10.1-1.8-13.6-5.5c-3.2-3.4-4.8-7.5-4.8-12.3c0-4.9,1.7-9.1,5.1-12.4
			c3.4-3.3,7.6-5,12.5-5c3.3,0,6.2,0.8,8.8,2.4C471.7,60.5,473.8,62.8,475.3,65.6z M466.3,64.5c-0.6-0.7-1.4-1.2-2.4-1.6
			c-1-0.4-2.2-0.6-3.6-0.6c-3.4,0-6.1,1.1-8.2,3.3c-2.1,2.2-3.1,4.9-3.1,8V75L466.3,64.5z"/>
		<path class="st1" d="M500.9,63.2h-8v27.1l-6.4,0.8V63.2h-8.8l1.2-5.6h21.9V63.2z"/>
	</g>
	<circle class="st1" cx="392.1" cy="86.4" r="5.6"/>
	<g>
		<path class="st0" d="M150.7,135.3c0.8,0,1.6-0.1,2.3-0.4c0.7-0.3,1.6-0.7,2.4-1.4l1.8,2.6c-1,0.8-2.1,1.5-3.2,1.8
			c-1.1,0.4-2.2,0.6-3.4,0.6c-1.6,0-3-0.3-4.2-0.8c-1.2-0.5-2.2-1.3-3-2.3c-0.8-1-1.4-2.2-1.8-3.6c-0.4-1.4-0.6-3-0.6-4.7
			c0-1.7,0.2-3.2,0.6-4.6c0.4-1.4,1-2.6,1.8-3.7c0.8-1,1.8-1.9,3-2.5c1.2-0.6,2.6-0.9,4.2-0.9c1.2,0,2.3,0.2,3.4,0.5
			c1.1,0.4,2.2,1,3.2,1.8l-1.9,2.5c-0.9-0.7-1.7-1.1-2.4-1.4c-0.7-0.2-1.5-0.4-2.3-0.4c-1.8,0-3.1,0.7-4.1,2.1
			c-1,1.4-1.5,3.5-1.5,6.4c0,2.9,0.5,5,1.5,6.3C147.6,134.7,149,135.3,150.7,135.3z"/>
		<path class="st0" d="M164.2,128.3c0.2,2.5,0.8,4.3,1.8,5.4c1,1.1,2.4,1.7,4,1.7c1,0,1.9-0.1,2.8-0.4c0.9-0.3,1.7-0.8,2.7-1.6
			l1.7,2.6c-1,0.8-2.1,1.5-3.3,1.9c-1.2,0.5-2.5,0.7-3.9,0.7c-1.6,0-3-0.3-4.3-0.8c-1.2-0.6-2.2-1.3-3.1-2.3c-0.8-1-1.4-2.2-1.9-3.6
			c-0.4-1.4-0.6-3-0.6-4.7c0-1.7,0.2-3.2,0.6-4.6c0.4-1.4,1-2.6,1.8-3.6c0.8-1,1.8-1.8,2.9-2.4c1.1-0.6,2.4-0.9,3.9-0.9
			c2.9,0,5,1,6.5,2.9c1.5,1.9,2.2,4.6,2.2,8c0,0.4,0,0.8,0,1.1c0,0.3,0,0.6-0.1,0.9H164.2z M169.4,118.5c-1.5,0-2.7,0.6-3.6,1.7
			s-1.4,2.9-1.6,5.3h10.2c-0.1-2.3-0.5-4-1.3-5.2C172.3,119.1,171.1,118.5,169.4,118.5z"/>
		<path class="st0" d="M191.5,138.1h-3.8v-19h-7.2V116h18.4l-0.5,3.1h-7V138.1z"/>
		<path class="st0" d="M202.9,138.1V116h3.8v7.1h2.1c1.5,0,2.9,0.1,4.2,0.4c1.2,0.3,2.3,0.7,3.1,1.3c0.9,0.6,1.5,1.3,2,2.3
			c0.5,0.9,0.7,2.1,0.7,3.4c0,1.4-0.2,2.6-0.7,3.6c-0.5,1-1.2,1.7-2,2.3c-0.9,0.6-1.9,1-3.1,1.3c-1.2,0.3-2.5,0.4-4,0.4H202.9z
			 M214.7,130.4c0-1.6-0.5-2.8-1.5-3.4c-1-0.6-2.3-1-4.1-1h-2.4v9h2.4c0.8,0,1.5-0.1,2.2-0.2c0.7-0.1,1.3-0.4,1.7-0.7
			c0.5-0.3,0.9-0.8,1.2-1.4C214.6,132.2,214.7,131.4,214.7,130.4z"/>
		<path class="st0" d="M243.2,135.3c0.8,0,1.6-0.1,2.3-0.4c0.7-0.3,1.5-0.7,2.4-1.4l1.8,2.6c-1,0.8-2.1,1.5-3.2,1.8
			c-1.1,0.4-2.2,0.6-3.4,0.6c-1.6,0-3-0.3-4.2-0.8c-1.2-0.5-2.2-1.3-3-2.3c-0.8-1-1.4-2.2-1.8-3.6c-0.4-1.4-0.6-3-0.6-4.7
			c0-1.7,0.2-3.2,0.6-4.6c0.4-1.4,1-2.6,1.8-3.7c0.8-1,1.8-1.9,3-2.5c1.2-0.6,2.6-0.9,4.2-0.9c1.2,0,2.3,0.2,3.4,0.5
			c1.1,0.4,2.2,1,3.2,1.8l-1.9,2.5c-0.9-0.7-1.7-1.1-2.4-1.4c-0.7-0.2-1.5-0.4-2.3-0.4c-1.8,0-3.1,0.7-4.1,2.1
			c-1,1.4-1.5,3.5-1.5,6.4c0,2.9,0.5,5,1.5,6.3C240,134.7,241.4,135.3,243.2,135.3z"/>
		<path class="st0" d="M261.9,138.1h-3.8v-19h-7.2V116h18.4l-0.5,3.1h-7V138.1z"/>
		<path class="st0" d="M271,127c0-1.7,0.2-3.3,0.7-4.7c0.4-1.4,1.1-2.6,1.9-3.7c0.8-1,1.8-1.8,3-2.4c1.2-0.6,2.6-0.8,4.1-0.8
			c1.5,0,2.9,0.3,4.1,0.8c1.2,0.5,2.2,1.3,3,2.3c0.8,1,1.4,2.2,1.9,3.6c0.4,1.4,0.6,3,0.6,4.8c0,1.7-0.2,3.3-0.7,4.7
			c-0.4,1.4-1.1,2.6-1.9,3.7c-0.8,1-1.8,1.8-3,2.4c-1.2,0.6-2.6,0.8-4.1,0.8c-1.5,0-2.9-0.3-4.1-0.8c-1.2-0.5-2.2-1.3-3-2.3
			c-0.8-1-1.4-2.2-1.9-3.6C271.2,130.4,271,128.8,271,127z M286.3,127c0-2.9-0.5-5-1.4-6.4c-0.9-1.4-2.3-2.1-4.1-2.1
			s-3.2,0.7-4.2,2.1c-1,1.4-1.5,3.5-1.5,6.4c0,2.9,0.5,5,1.4,6.4c1,1.4,2.3,2.1,4.2,2.1s3.2-0.7,4.2-2.1
			C285.8,132,286.3,129.9,286.3,127z"/>
		<path class="st0" d="M315.3,138.1l-1-10.4c-0.1-1.2-0.2-2.4-0.2-3.6c0-1.2,0-2.5,0-4h-0.2l-5,15.6h-3.6l-5.5-15.6h-0.2
			c0,1.3,0,2.5,0,3.8c0,1.3-0.1,2.5-0.1,3.7l-0.8,10.5H295L297,116h4.9l5.2,15.2h0.2L312,116h5l2,22.1H315.3z"/>
		<path class="st0" d="M340,133.1c0,0.9,0.1,1.5,0.4,1.9c0.3,0.4,0.7,0.7,1.2,0.9l-0.9,2.7c-1-0.1-1.8-0.4-2.5-0.9
			c-0.7-0.5-1.2-1.2-1.5-2.2c-0.8,1.1-1.7,1.8-2.8,2.3c-1.1,0.5-2.3,0.8-3.6,0.8c-2.2,0-3.9-0.6-5.2-1.9c-1.2-1.2-1.9-2.9-1.9-5
			c0-2.3,0.9-4.1,2.6-5.3c1.7-1.2,4.3-1.8,7.6-1.8h2.8v-1.7c0-1.6-0.4-2.7-1.2-3.3c-0.8-0.6-1.9-1-3.5-1c-0.7,0-1.6,0.1-2.5,0.3
			c-1,0.2-2,0.5-3.2,0.9l-1-2.9c1.3-0.5,2.6-0.9,3.8-1.1c1.2-0.2,2.3-0.3,3.4-0.3c2.8,0,4.8,0.6,6,1.9c1.2,1.3,1.9,3,1.9,5.3V133.1z
			 M331.2,135.7c1,0,2-0.3,2.8-0.8c0.8-0.5,1.5-1.3,2.2-2.3v-5.5h-2.6c-2.3,0-4,0.4-4.9,1.2c-0.9,0.8-1.4,1.9-1.4,3.2
			c0,1.4,0.3,2.4,0.9,3.1C328.9,135.3,329.9,135.7,331.2,135.7z"/>
		<path class="st0" d="M354.5,138.1h-3.8v-19h-7.2V116h18.4l-0.5,3.1h-7V138.1z"/>
		<path class="st0" d="M363.7,127c0-1.7,0.2-3.3,0.7-4.7c0.4-1.4,1.1-2.6,1.9-3.7c0.8-1,1.8-1.8,3-2.4c1.2-0.6,2.6-0.8,4.1-0.8
			c1.5,0,2.9,0.3,4.1,0.8c1.2,0.5,2.2,1.3,3,2.3c0.8,1,1.4,2.2,1.9,3.6c0.4,1.4,0.6,3,0.6,4.8c0,1.7-0.2,3.3-0.7,4.7
			c-0.4,1.4-1.1,2.6-1.9,3.7c-0.8,1-1.8,1.8-3,2.4c-1.2,0.6-2.6,0.8-4.1,0.8c-1.5,0-2.9-0.3-4.1-0.8c-1.2-0.5-2.2-1.3-3-2.3
			c-0.8-1-1.4-2.2-1.9-3.6C363.9,130.4,363.7,128.8,363.7,127z M379,127c0-2.9-0.5-5-1.4-6.4c-0.9-1.4-2.3-2.1-4.1-2.1
			c-1.8,0-3.2,0.7-4.2,2.1c-1,1.4-1.5,3.5-1.5,6.4c0,2.9,0.5,5,1.4,6.4c1,1.4,2.3,2.1,4.2,2.1c1.8,0,3.2-0.7,4.2-2.1
			C378.5,132,379,129.9,379,127z"/>
		<path class="st0" d="M385.6,135.9c0.7-0.5,1.2-1,1.7-1.5s0.9-1.2,1.3-2.1c0.4-0.9,0.7-2.1,0.9-3.5c0.2-1.4,0.5-3.3,0.6-5.6
			l0.5-7.1h14.7v22.1h-3.8v-19h-7.5l-0.3,3.7c-0.2,2.6-0.5,4.8-0.7,6.5c-0.2,1.7-0.6,3.2-1,4.3c-0.5,1.2-1.1,2.1-1.8,2.8
			c-0.8,0.7-1.7,1.4-2.9,2.1L385.6,135.9z"/>
		<path class="st0" d="M411.7,127c0-1.7,0.2-3.3,0.7-4.7c0.4-1.4,1.1-2.6,1.9-3.7c0.8-1,1.8-1.8,3-2.4c1.2-0.6,2.6-0.8,4.1-0.8
			c1.5,0,2.9,0.3,4.1,0.8c1.2,0.5,2.2,1.3,3,2.3c0.8,1,1.4,2.2,1.9,3.6c0.4,1.4,0.6,3,0.6,4.8c0,1.7-0.2,3.3-0.7,4.7
			c-0.4,1.4-1.1,2.6-1.9,3.7c-0.8,1-1.8,1.8-3,2.4c-1.2,0.6-2.6,0.8-4.1,0.8c-1.5,0-2.9-0.3-4.1-0.8c-1.2-0.5-2.2-1.3-3-2.3
			c-0.8-1-1.4-2.2-1.9-3.6C411.9,130.4,411.7,128.8,411.7,127z M427,127c0-2.9-0.5-5-1.4-6.4c-0.9-1.4-2.3-2.1-4.1-2.1
			s-3.2,0.7-4.2,2.1c-1,1.4-1.5,3.5-1.5,6.4c0,2.9,0.5,5,1.4,6.4c1,1.4,2.3,2.1,4.2,2.1s3.2-0.7,4.2-2.1
			C426.5,132,427,129.9,427,127z"/>
		<path class="st0" d="M441.2,138.1h-3.8V116h13.7l-0.5,3.2h-9.4V138.1z"/>
		<path class="st0" d="M472.3,116v22.1h-3.7v-10c0-1,0-1.9,0.1-2.8s0.1-1.7,0.1-2.4c0.1-0.7,0.1-1.3,0.1-1.7c0-0.4,0.1-0.7,0.1-0.9
			h-0.2l-9,17.7h-4.7V116h3.7v10c0,0.9,0,1.7-0.1,2.6c0,0.9-0.1,1.6-0.1,2.3c0,0.7-0.1,1.3-0.1,1.8c0,0.5-0.1,0.8-0.1,0.9h0.2
			l8.9-17.6H472.3z"/>
		<path class="st0" d="M497.6,116v22.1h-3.7v-10c0-1,0-1.9,0.1-2.8s0.1-1.7,0.1-2.4c0.1-0.7,0.1-1.3,0.1-1.7c0-0.4,0.1-0.7,0.1-0.9
			h-0.2l-9,17.7h-4.7V116h3.7v10c0,0.9,0,1.7-0.1,2.6c0,0.9-0.1,1.6-0.1,2.3c0,0.7-0.1,1.3-0.1,1.8c0,0.5-0.1,0.8-0.1,0.9h0.2
			l8.9-17.6H497.6z M489.2,111.7c-1,0-1.8-0.1-2.5-0.4c-0.7-0.3-1.4-0.7-1.9-1.2c-0.5-0.5-0.9-1-1.2-1.6c-0.3-0.6-0.5-1.2-0.6-1.7
			l2.5-0.5c0.6,1.7,1.8,2.6,3.7,2.6c1.9,0,3.2-0.9,3.8-2.6l2.5,0.5c-0.1,0.6-0.3,1.1-0.6,1.7c-0.3,0.6-0.7,1.1-1.2,1.6
			c-0.5,0.5-1.2,0.9-1.9,1.2C491,111.6,490.2,111.7,489.2,111.7z"/>
	</g>
	<path class="st1" d="M18.1,66.9c0,45.7,46.4,60.3,40.5,91.6C59.1,127,6.1,119.8,6.1,64.3c0-10.5,5.2-39.9,28.7-39.9
		c16.4,0,25.4,12.3,29.3,20.3c0,0-9.1-7.7-22.2-7.7C28.8,36.9,18.1,46.6,18.1,66.9z"/>
	<path class="st2" d="M69.8,44.8c-1.7-1.8-4.3-5.5-5.3-11.5c37.9-9.5,28-29.6,28-29.6c-12.7-1-22,3.8-22,3.8
		c2.6,17.6-3.3,23.1-6.2,24.7c-0.6-4.7-0.3-10.7,2-18.4c0,0-5.2-2.3-6.7-6.3c0,0-4.6,26.2,8.2,38.8c-1.4,0.4-2.9-0.2-3.6-1.6
		c0,0-9.1-7.7-22.2-7.7c-13.2,0-23.8,9.7-23.8,30c0,45.7,46.4,60.3,40.5,91.6c0,0,7.6-1.7,9.2-45.5c0.1-1.5,2.1-1.7,2.5-0.3
		c2.1,7.9,5.7,18.7,11,25.3c0,0,41.5-38.5,41.5-70.3C122.9,37.7,89.4,13,69.8,44.8z"/>
	<path class="st3" d="M57.8,46.6c0,0-34.1,2.4-25,38.1c0,0-9-4.6-9-22.9S42.1,34.9,57.8,46.6z"/>
</g>
</svg>
