<?xml version="1.0" encoding="utf-8"?>
<!-- Generator: Adobe Illustrator 21.1.0, SVG Export Plug-In . SVG Version: 6.00 Build 0)  -->
<svg version="1.1" id="Layer_1" xmlns="http://www.w3.org/2000/svg" xmlns:xlink="http://www.w3.org/1999/xlink" x="0px" y="0px"
	 viewBox="0 0 168.6 174.7" style="enable-background:new 0 0 168.6 174.7;" xml:space="preserve">
<style type="text/css">
	.st0{fill:#81C3EC; transition: .3s;}
	.active{fill:#0089CB;}
</style>
<g>
	<path class="st0" d="M151.4,43.8c0-15.8-12.8-28.6-28.6-28.6c-7,0-13.4,2.5-18.3,6.7c-1.4-0.2-2.8-0.3-4.2-0.3
		c-9.4,0-16.4,3.5-20.7,6.4c-0.9,0.6-2.1,0.6-3.1,0c-4.3-2.9-11.3-6.4-20.7-6.4c-18.7,0-38.7,15.1-38.7,43.2
		c0,24.3,18.7,42.4,23.5,46.6c-0.7,7.3-2.7,40.1,15.3,47.7c0.9,0.4,1.8,0.5,2.5,0.5c1.1,0,1.9-0.3,2.4-0.7c2.8-1.8,2.8-6.2,2.8-12.2
		c0-7.1,0-16,4.6-20.6c2.3-2.3,5.5-3.4,9.9-3.4c4.4,0,7.6,1.1,9.9,3.4c4.6,4.6,4.6,13.5,4.6,20.6c0,6,0,10.3,2.8,12.2
		c0.9,0.6,2.5,1.2,4.9,0.2c18-7.6,16-40.4,15.3-47.7c4.6-4.1,22.1-20.9,23.4-43.8C146.4,62.3,151.4,53.6,151.4,43.8z M111.1,108.2
		c-0.7,0.6-1,1.4-0.9,2.3c1.2,10.2,1.5,38-12,43.7c0,0,0,0,0,0c-0.4-1.4-0.4-4.9-0.4-7.6c0-7.6,0-18.1-6.1-24.2
		c-3.2-3.2-7.8-4.9-13.5-4.9c-5.7,0-10.3,1.6-13.5,4.9c-6.1,6.1-6.1,16.6-6.1,24.2c0,2.7,0,6.2-0.4,7.6c0,0,0,0,0,0
		c-16.3-6.9-12.1-43.3-12-43.7c0.1-0.9-0.2-1.8-0.9-2.3c-0.2-0.2-22.6-18.7-22.6-43.5c0-25,16.9-38,33.5-38c8.1,0,14.1,3,17.8,5.5
		c2.7,1.9,6.2,1.9,8.9,0c3.6-2.5,9.5-5.4,17.3-5.5c-3.6,4.8-5.7,10.7-5.7,17.1c0,15.8,12.8,28.6,28.6,28.6c3.7,0,7.3-0.7,10.6-2
		C130.4,92.3,111.4,108,111.1,108.2z M122.8,67.6C109.7,67.6,99,56.9,99,43.8S109.7,20,122.8,20s23.8,10.7,23.8,23.8
		S135.9,67.6,122.8,67.6z"/>
	<path class="st0" d="M129.7,36.9V26H116v10.9h-10.9v13.7H116v10.9h13.7V50.6h10.9V36.9H129.7z M135.7,45.8h-10.9v10.9h-4V45.8
		h-10.9v-4h10.9V30.9h4v10.9h10.9V45.8z"/>
</g>
</svg>
