<?xml version="1.0" encoding="utf-8"?>
<!-- Generator: Adobe Illustrator 21.1.0, SVG Export Plug-In . SVG Version: 6.00 Build 0)  -->
<svg version="1.1" id="Layer_1" xmlns="http://www.w3.org/2000/svg" xmlns:xlink="http://www.w3.org/1999/xlink" x="0px" y="0px"
	 viewBox="0 0 168.6 174.7" style="enable-background:new 0 0 168.6 174.7;" xml:space="preserve">
<style type="text/css">
	.st0{fill:#81C3EC; transition: .3s;}
	.active{fill:#0089CB;}
</style>
<path class="st0" d="M144.1,55.5c0-27.5-19.6-42.4-38-42.4c-9.2,0-16.1,3.4-20.3,6.3c-0.9,0.6-2.1,0.6-3,0
	c-4.2-2.9-11.1-6.3-20.3-6.3c-18.4,0-38,14.9-38,42.4c0,23.9,18.3,41.6,23.1,45.8c-0.7,7.2-2.7,39.3,15,46.8
	c0.9,0.4,1.7,0.5,2.4,0.5c1,0,1.8-0.3,2.4-0.7c0,0,0,0,0,0l1.2,0.4v6.7c0,3.7,3,6.7,6.7,6.7h18.1c2.8,0,5.2-1.7,6.2-4.1l1.2,0.3
	c0.2,0.1,0.5,0.1,0.7,0.1c1,0,2-0.7,2.3-1.7c0.4-1.3-0.3-2.6-1.6-3l-2.1-0.6v-6c0.3,0.5,0.7,0.9,1.2,1.3c0.9,0.6,2.5,1.1,4.8,0.2
	c17.7-7.5,15.7-39.7,15-46.8C125.8,97.1,144.1,79.4,144.1,55.5z M95.2,97.9l-21-6.2c1.5-3.5,5-6,9-6h2.1c5.4,0,9.8,4.4,9.8,9.8V97.9
	z M95.2,103v8.3l-21.8-6.5v-8.3L95.2,103z M73.4,123.1l21.8,6.5v8.3l-21.8-6.5V123.1z M95.2,116.3v8.3L73.4,118v-8.3L95.2,116.3z
	 M93.4,156.8H75.2c-1,0-1.8-0.8-1.8-1.8v-5.3l21.4,6.4C94.5,156.5,94,156.8,93.4,156.8z M73.4,144.6v-8.3l21.8,6.5v8.3L73.4,144.6z
	 M116.8,98.2c-0.7,0.5-1,1.4-0.9,2.3c1.2,10,1.5,37.3-11.8,42.9c0,0,0,0,0,0c-0.1-0.3-0.2-0.7-0.2-1.3c0-0.1,0-0.3,0-0.4
	c-0.1-1.7-0.1-3.9-0.1-5.8c0-1.9,0-3.9-0.1-6c0.1-0.1,0.1-0.2,0.2-0.4c0.2-0.7,0.1-1.5-0.3-2.1c-0.3-3.3-0.8-6.5-2-9.5
	c0,0,0,0,0.1,0c1,0,2-0.7,2.3-1.7c0.4-1.3-0.3-2.6-1.6-3l-2.1-0.6v-8.3l0.7,0.2c0.2,0.1,0.5,0.1,0.7,0.1c1,0,2-0.7,2.3-1.7
	c0.4-1.3-0.3-2.6-1.6-3l-2.1-0.6v-3.8c0-8.1-6.6-14.7-14.7-14.7h-2.1c-6.2,0-11.6,3.9-13.7,9.4l-1.7-0.5c-1.3-0.4-2.6,0.3-3,1.6
	c-0.4,1.3,0.3,2.6,1.6,3l2.1,0.6c0,0.2,0,0.3,0,0.5v7.8l-0.7-0.2c-1.3-0.4-2.6,0.3-3,1.6c-0.4,1.3,0.3,2.6,1.6,3l2.1,0.6v7
	c-0.2,0.4-0.4,0.7-0.6,1.1l-0.1,0c-1.3-0.4-2.6,0.3-3,1.6c-0.4,1.2,0.3,2.5,1.4,2.9c-0.9,3.3-1.2,6.7-1.3,10
	c-0.1,0.1-0.1,0.2-0.2,0.4c-0.2,0.6-0.1,1.1,0.1,1.6c0,1,0,2,0,3c0,2.6,0,6.1-0.4,7.5c0,0,0,0,0,0c-16-6.8-11.9-42.6-11.8-42.9
	c0.1-0.9-0.2-1.7-0.9-2.3C51.6,98,29.6,79.9,29.6,55.5c0-24.5,16.6-37.3,32.9-37.3c7.9,0,13.9,3,17.5,5.4c2.7,1.8,6.1,1.8,8.8,0
	c3.6-2.5,9.5-5.4,17.5-5.4c16.4,0,32.9,12.8,32.9,37.3C139,79.9,117,98,116.8,98.2z"/>
</svg>
