<?xml version="1.0" encoding="utf-8"?>
<!-- Generator: Adobe Illustrator 21.1.0, SVG Export Plug-In . SVG Version: 6.00 Build 0)  -->
<svg version="1.1" id="Layer_1" xmlns="http://www.w3.org/2000/svg" xmlns:xlink="http://www.w3.org/1999/xlink" x="0px" y="0px"
	 viewBox="0 0 168.6 174.7" style="enable-background:new 0 0 168.6 174.7;" xml:space="preserve">
<style type="text/css">
	.st0{fill:#81C3EC; transition: .3s;}
	.active{fill:#0089CB;}
</style>
<g>
	<path class="st0" d="M141,52.1c-12.5,0-22.7-10.2-22.7-22.7c0-1.3-1.1-2.4-2.4-2.4s-2.4,1.1-2.4,2.4c0,4.4-1.3,8.6-3.5,12
		c-4.4-1.9-9-2.8-13.5-2.8c-8.8,0-15.4,3.3-19.4,6c-0.9,0.6-2,0.6-2.9,0c-4-2.8-10.6-6-19.4-6c-17.6,0-36.3,14.2-36.3,40.5
		c0,22.8,17.5,39.8,22,43.7c-0.6,6.9-2.6,37.6,14.3,44.8c0.9,0.4,1.6,0.5,2.3,0.5c1,0,1.7-0.3,2.3-0.7c2.6-1.7,2.6-5.8,2.6-11.4
		c0-6.7,0-15,4.3-19.3c2.1-2.1,5.2-3.2,9.3-3.2c4.1,0,7.2,1,9.3,3.2c4.3,4.3,4.3,12.6,4.3,19.3c0,5.6,0,9.7,2.6,11.4
		c0.9,0.6,2.4,1.1,4.6,0.2c16.9-7.2,15-37.9,14.3-44.8c4.5-4,22-20.9,22-43.7c0-7.1-1.4-13.4-3.7-18.7c3.5-2.2,7.6-3.5,12-3.5
		c1.3,0,2.4-1.1,2.4-2.4S142.3,52.1,141,52.1z M127.9,79.1c0,23.3-21,40.7-21.3,40.8c-0.6,0.5-1,1.3-0.9,2.2
		c1.2,9.6,1.4,35.6-11.3,41c0,0,0,0,0,0c-0.4-1.3-0.4-4.6-0.4-7.1c0-7.2,0-17-5.7-22.7c-3-3-7.3-4.6-12.7-4.6
		c-5.4,0-9.7,1.5-12.7,4.6c-5.8,5.8-5.7,15.6-5.7,22.7c0,2.5,0,5.8-0.4,7.1c0,0,0,0,0,0c-15.3-6.5-11.3-40.7-11.3-41
		c0.1-0.8-0.2-1.6-0.9-2.2c-0.2-0.2-21.3-17.5-21.3-40.8c0-23.4,15.8-35.7,31.4-35.7c7.6,0,13.2,2.8,16.7,5.2c2.5,1.8,5.8,1.8,8.4,0
		c3.4-2.4,9.1-5.2,16.7-5.2c3.5,0,7.1,0.6,10.5,1.9c-4.1,4.2-9.8,6.8-16.2,6.8c-1.3,0-2.4,1.1-2.4,2.4s1.1,2.4,2.4,2.4
		c12.5,0,22.7,10.2,22.7,22.7c0,1.3,1.1,2.4,2.4,2.4s2.4-1.1,2.4-2.4c0-6.3,2.6-12.1,6.8-16.2C126.8,68,127.9,73.2,127.9,79.1z
		 M115.8,68.4c-2.8-6.1-7.7-11.1-13.9-13.9c6.1-2.8,11.1-7.7,13.9-13.9c2.8,6.1,7.7,11.1,13.9,13.9
		C123.6,57.3,118.6,62.3,115.8,68.4z"/>
	<path class="st0" d="M147.8,23.7c-6,0-11-4.9-11-11c0-1.3-1.1-2.4-2.4-2.4c-1.3,0-2.4,1.1-2.4,2.4c0,6-4.9,11-11,11
		c-1.3,0-2.4,1.1-2.4,2.4s1.1,2.4,2.4,2.4c6,0,11,4.9,11,11c0,1.3,1.1,2.4,2.4,2.4c1.3,0,2.4-1.1,2.4-2.4c0-6,4.9-11,11-11
		c1.3,0,2.4-1.1,2.4-2.4S149.1,23.7,147.8,23.7z M134.4,31.1c-1.3-2-3-3.7-5-5c2-1.3,3.7-3,5-5c1.3,2,3,3.7,5,5
		C137.4,27.4,135.7,29.1,134.4,31.1z"/>
	<path class="st0" d="M83.7,23c5.1,0,9.3,4.2,9.3,9.3c0,1.3,1.1,2.4,2.4,2.4c1.3,0,2.4-1.1,2.4-2.4c0-5.1,4.1-9.2,9.2-9.3
		c0,0,0.1,0,0.1,0v0c1.3,0,2.4-1.1,2.4-2.4s-1.1-2.4-2.4-2.4c-5.1,0-9.3-4.2-9.3-9.3c0-1.3-1.1-2.4-2.4-2.4c-1.3,0-2.4,1.1-2.4,2.4
		c0,5.1-4.2,9.3-9.3,9.3c0,0,0,0,0,0h0c0,0,0,0,0,0c0,0,0,0,0,0h0c0,0,0,0,0,0h0c0,0,0,0,0,0s0,0,0,0c0,0,0,0,0,0h0c0,0,0,0,0,0h0
		c0,0,0,0,0,0c0,0,0,0,0,0s0,0,0,0c0,0,0,0,0,0c-1.3,0-2.4,1.1-2.4,2.4C81.3,22,82.4,23,83.7,23z M95.4,16.8c1,1.5,2.3,2.8,3.8,3.8
		c-1.5,1-2.8,2.3-3.8,3.8c-1-1.5-2.3-2.8-3.8-3.8C93.1,19.6,94.4,18.3,95.4,16.8z"/>
</g>
</svg>
