<?xml version="1.0" encoding="utf-8"?>
<!-- Generator: Adobe Illustrator 21.1.0, SVG Export Plug-In . SVG Version: 6.00 Build 0)  -->
<svg version="1.1" id="Layer_1" xmlns="http://www.w3.org/2000/svg" xmlns:xlink="http://www.w3.org/1999/xlink" x="0px" y="0px"
	 viewBox="0 0 168.6 174.7" style="enable-background:new 0 0 168.6 174.7;" xml:space="preserve">
<style type="text/css">
	.st0{fill:#81C3EC; transition: .3s;}
	.active{fill:#0089CB;}
</style>
<g>
	<path class="st0" d="M145.4,74.2C141,63.4,133.6,54,123.9,47c0-0.4,0.1-0.7,0.1-1.1V27.3c0-4.7-2.4-9-6.5-11.3
		c-4.1-2.4-9-2.4-13.1,0l-13.6,7.8c-0.2,0-0.5,0-0.7,0H78.5c-0.2,0-0.5,0-0.7,0l-13.6-7.8c-4.1-2.4-9-2.4-13.1,0
		c-4.1,2.4-6.5,6.6-6.5,11.3v18.6c0,0.4,0,0.7,0.1,1.1C35,54,27.6,63.4,23.2,74.2c-12,1.1-21.2,10-21.2,20.8
		c0,10.2,8.2,18.8,19.4,20.6c8.3,26.5,33.9,44.9,62.8,44.9s54.5-18.4,62.8-44.9c11.2-1.8,19.4-10.4,19.4-20.6
		C166.6,84.2,157.4,75.3,145.4,74.2z M97,29.7c0-0.1,0-0.1,0-0.2c-0.1-0.3-0.1-0.6-0.2-1c0,0,0-0.1,0-0.1c-0.1-0.3-0.2-0.6-0.4-0.9
		c0,0,0,0,0,0c-0.2-0.3-0.3-0.6-0.5-0.9c0,0,0,0,0-0.1l11.1-6.4c2.6-1.5,5.7-1.5,8.2,0c2.6,1.5,4.1,4.2,4.1,7.1v18.6
		c0,3-1.5,5.7-4.1,7.1s-5.7,1.5-8.2,0l-11.1-6.4c0-0.1,0.1-0.1,0.1-0.2c0.1-0.2,0.3-0.4,0.4-0.6c0.1-0.1,0.1-0.2,0.2-0.3
		c0.1-0.2,0.2-0.4,0.3-0.7c0-0.1,0.1-0.2,0.1-0.3c0.1-0.3,0.2-0.6,0.2-0.9c0-0.1,0-0.1,0-0.2c0.1-0.3,0.1-0.7,0.1-1V30.7
		C97.1,30.3,97.1,30,97,29.7z M76.3,30.7c0-0.2,0-0.4,0.1-0.6c0,0,0-0.1,0-0.1c0.1-0.2,0.2-0.4,0.3-0.6c0,0,0,0,0,0
		c0.3-0.4,0.7-0.6,1.1-0.7l0.2,0c0.1,0,0.2,0,0.3,0h11.7c0.1,0,0.2,0,0.3,0l0.2,0c0.5,0.1,0.9,0.4,1.1,0.7c0,0,0,0,0,0
		c0.1,0.2,0.2,0.4,0.3,0.6c0,0,0,0.1,0,0.1c0.1,0.2,0.1,0.4,0.1,0.6v11.7c0,0.2,0,0.4-0.1,0.6c0,0,0,0.1,0,0.1
		c-0.1,0.2-0.2,0.4-0.3,0.5c0,0,0,0.1-0.1,0.1c-0.3,0.3-0.7,0.6-1.1,0.7l-0.1,0c-0.1,0-0.2,0-0.4,0H78.5c-0.1,0-0.2,0-0.4,0l-0.1,0
		c-0.5-0.1-0.9-0.4-1.1-0.7c0,0,0-0.1-0.1-0.1c-0.1-0.2-0.2-0.3-0.3-0.5c0,0,0-0.1,0-0.1c-0.1-0.2-0.1-0.4-0.1-0.6V30.7z M49.4,27.3
		c0-3,1.5-5.7,4.1-7.1c1.3-0.7,2.7-1.1,4.1-1.1c1.4,0,2.8,0.4,4.1,1.1l11.1,6.4c0,0,0,0,0,0.1c-0.2,0.3-0.4,0.6-0.5,0.9
		c0,0,0,0,0,0.1c-0.1,0.3-0.3,0.6-0.4,0.9c0,0,0,0.1,0,0.1c-0.1,0.3-0.2,0.6-0.2,1c0,0.1,0,0.1,0,0.2c0,0.3-0.1,0.7-0.1,1v11.7
		c0,0.4,0,0.7,0.1,1c0,0.1,0,0.1,0,0.2c0.1,0.3,0.1,0.6,0.2,0.9c0,0.1,0.1,0.2,0.1,0.3c0.1,0.2,0.2,0.5,0.3,0.7
		c0.1,0.1,0.1,0.2,0.2,0.3c0.1,0.2,0.3,0.4,0.4,0.6c0,0.1,0.1,0.1,0.1,0.2L61.8,53c-2.6,1.5-5.7,1.5-8.2,0c-2.6-1.5-4.1-4.2-4.1-7.1
		V27.3z M145,111l-1.6,0.2l-0.5,1.6c-7.2,25.3-31.3,42.9-58.6,42.9c-27.3,0-51.4-17.7-58.6-42.9l-0.5-1.6l-1.6-0.2
		c-9.5-1-16.7-7.8-16.7-16c0-8.6,8-15.7,18.1-16.1l1.6-0.1l0.6-1.5c3.8-10,10.3-18.7,18.9-25.4c1.1,2.2,2.8,4,5,5.3
		c2,1.2,4.3,1.8,6.5,1.8s4.5-0.6,6.5-1.8l13.7-7.9c0.2,0,0.4,0,0.6,0h11.7c0.2,0,0.4,0,0.6,0l13.7,7.9c2,1.2,4.3,1.8,6.5,1.8
		c2.2,0,4.5-0.6,6.5-1.8c2.2-1.3,3.9-3.1,5-5.3c8.6,6.7,15.1,15.4,18.9,25.4l0.6,1.5l1.6,0.1c10.2,0.4,18.1,7.4,18.1,16.1
		C161.7,103.2,154.5,110,145,111z"/>
	<circle class="st0" cx="65.6" cy="103.7" r="6.5"/>
	<circle class="st0" cx="103.1" cy="103.7" r="6.5"/>
	<path class="st0" d="M101.8,127c-11.8,7.1-23.2,7.1-35,0c-1.1-0.7-2.6-0.3-3.3,0.8c-0.7,1.1-0.3,2.6,0.8,3.3c6.6,4,13.3,6,20,6
		c6.7,0,13.4-2,20-6c1.1-0.7,1.5-2.2,0.8-3.3C104.4,126.7,103,126.3,101.8,127z"/>
</g>
</svg>
