<?xml version="1.0" encoding="utf-8"?>
<!-- Generator: Adobe Illustrator 21.1.0, SVG Export Plug-In . SVG Version: 6.00 Build 0)  -->
<svg version="1.1" id="Layer_1" xmlns="http://www.w3.org/2000/svg" xmlns:xlink="http://www.w3.org/1999/xlink" x="0px" y="0px"
	 viewBox="0 0 168.6 174.7" style="enable-background:new 0 0 168.6 174.7;" xml:space="preserve">
<style type="text/css">
	.st0{fill:#81C3EC; transition: .3s;}
	.active{fill:#0089CB;}
</style>
<g>
	<path class="st0" d="M163.2,72.8c0-25.8-18.3-39.7-35.5-39.7c-8.6,0-15.1,3.2-19,5.9c-0.9,0.6-2,0.6-2.8,0c-2-1.4-4.6-2.8-7.8-4
		c-1.8-3-3.9-5.8-6.4-8.3c-15.9-15.9-41.7-15.9-57.5,0c-14,14-15.6,35.6-5,51.4L7.7,99.4c-1.5,1.5-2.3,3.5-2.3,5.6
		c0,2.1,0.8,4.1,2.3,5.6c1.5,1.5,3.5,2.3,5.6,2.3s4.1-0.8,5.6-2.3l21.3-21.3c5.2,3.5,11.1,5.7,17.1,6.5
		c5.4,10.3,12.9,17.5,15.6,19.9c-0.6,6.7-2.5,36.8,14,43.8c0.9,0.4,1.6,0.5,2.3,0.5c1,0,1.7-0.3,2.2-0.7c2.5-1.7,2.5-5.7,2.5-11.2
		c0-6.5,0-14.7,4.2-18.9c2.1-2.1,5.1-3.1,9.1-3.1c4,0,7,1,9.1,3.1c4.2,4.3,4.2,12.4,4.2,18.9c0,5.5,0,9.5,2.5,11.2
		c0.9,0.6,2.3,1.1,4.5,0.1c16.5-7,14.7-37.1,14-43.8C146,111.7,163.2,95.1,163.2,72.8z M37.5,30.1c7-7,16.2-10.5,25.3-10.5
		c9.2,0,18.4,3.5,25.3,10.5c14,14,14,36.7,0,50.7c-12.6,12.6-32.4,13.8-46.4,3.6l-0.3-0.2c0,0-0.1-0.1-0.1-0.1
		c-0.6-0.5-1.2-0.9-1.8-1.4c-0.1-0.1-0.2-0.2-0.3-0.2c-0.6-0.5-1.2-1.1-1.7-1.6c-0.5-0.5-1.1-1.1-1.6-1.7c-0.1-0.1-0.2-0.2-0.2-0.3
		c-0.5-0.6-1-1.2-1.4-1.8c0,0,0-0.1-0.1-0.1l-0.3-0.3C23.7,62.5,24.9,42.7,37.5,30.1z M36.3,86.3l-20.9,20.9c-1.1,1.1-3.1,1.1-4.3,0
		c-0.6-0.6-0.9-1.3-0.9-2.1c0-0.8,0.3-1.6,0.9-2.1L32,82c0.1,0.1,0.1,0.1,0.2,0.2c0.6,0.7,1.2,1.4,1.9,2.1v0c0,0,0,0,0,0
		c0.7,0.7,1.3,1.3,2,1.9C36.2,86.2,36.2,86.2,36.3,86.3z M137.6,112.7c-0.6,0.5-1,1.3-0.9,2.1c1.1,9.4,1.4,34.9-11,40.2c0,0,0,0,0,0
		c-0.4-1.3-0.4-4.5-0.4-7c0-7,0-16.6-5.6-22.3c-3-3-7.2-4.5-12.4-4.5c-5.3,0-9.5,1.5-12.4,4.5c-5.6,5.6-5.6,15.2-5.6,22.3
		c0,2.5,0,5.7-0.4,7c0,0,0,0,0,0c-15-6.4-11.1-39.8-11-40.2c0.1-0.8-0.2-1.6-0.9-2.1c-0.1-0.1-7.9-6.5-13.9-16.6
		c10.4,0,20.7-4,28.6-11.9c7.7-7.7,11.9-17.9,11.9-28.8c0-4.8-0.8-9.4-2.4-13.8c0.7,0.4,1.4,0.8,2,1.3c2.5,1.7,5.7,1.7,8.2,0
		c3.4-2.3,8.9-5.1,16.3-5.1c15.3,0,30.8,12,30.8,34.9C158.5,95.6,137.9,112.6,137.6,112.7z"/>
	<path class="st0" d="M62.8,86.5c17.1,0,31.1-13.9,31.1-31.1S80,24.4,62.8,24.4c-17.1,0-31.1,13.9-31.1,31.1S45.7,86.5,62.8,86.5z
		 M62.8,29.2c14.5,0,26.2,11.8,26.2,26.2S77.3,81.7,62.8,81.7S36.6,69.9,36.6,55.4S48.4,29.2,62.8,29.2z"/>
</g>
</svg>
