<?xml version="1.0" encoding="utf-8"?>
<!-- Generator: Adobe Illustrator 21.1.0, SVG Export Plug-In . SVG Version: 6.00 Build 0)  -->
<svg width="50" height="53" version="1.1" id="Layer_1" xmlns="http://www.w3.org/2000/svg" xmlns:xlink="http://www.w3.org/1999/xlink" x="0px" y="0px"
	 viewBox="0 0 168.6 174.7" style="enable-background:new 0 0 168.6 174.7;" xml:space="preserve">
<style type="text/css">
	.st0{fill:#0089CB;}
	.st1{fill:#FFFFFF;}
</style>
<g>
	<path class="st0" d="M153.4,72.2c0,38.2-69.1,97.3-69.1,97.3s-69.1-59.2-69.1-97.3s30.9-67,69.1-67S153.4,34,153.4,72.2z"/>
	<path class="st1" d="M85.8,58.6c-1.1-1.1-2.6-3.4-3.3-7.1c23.4-5.9,17.3-18.3,17.3-18.3c-7.8-0.6-13.5,2.4-13.5,2.4
		c1.6,10.8-2,14.2-3.8,15.2c-0.4-2.9-0.2-6.6,1.2-11.3c0,0-3.2-1.4-4.1-3.9c0,0-2.8,16.2,5,24c-0.8,0.2-1.8-0.1-2.2-1
		c-2.4-4.9-8-12.5-18.1-12.5c-14.5,0-17.7,18.1-17.7,24.6c0,34.2,32.7,38.7,32.4,58.1c0,0,4.7-1.1,5.7-28.1c0-0.9,1.3-1,1.5-0.2
		c1.3,4.9,3.5,11.5,6.8,15.6c0,0,25.6-23.8,25.6-43.4C118.5,54.3,97.9,39.1,85.8,58.6z"/>
</g>
</svg>
