<?xml version="1.0" encoding="utf-8"?>
<!-- Generator: Adobe Illustrator 21.1.0, SVG Export Plug-In . SVG Version: 6.00 Build 0)  -->
<svg version="1.1" id="Layer_1" xmlns="http://www.w3.org/2000/svg" xmlns:xlink="http://www.w3.org/1999/xlink" x="0px" y="0px"
	 viewBox="0 0 168.6 174.7" style="enable-background:new 0 0 168.6 174.7;" xml:space="preserve">
<style type="text/css">
	.st0{fill:#81C3EC;}
	.st1{fill:#0089CB;}
</style>
<g>
	<g>
		<path class="st0" d="M121.7,166.6c-4.7,0-7-6.8-10.8-18c-5.3-15.7-12.5-37.2-26.9-37.2c-14.4,0-21.6,21.5-26.9,37.2
			c-3.8,11.2-6.1,18-10.8,18c-8.7,0-12.7-12.7-18.7-32c-1-3-1.9-6.2-3-9.5C15.7,97.7,3.3,48,20.5,23.2c6.5-9.4,16.6-14.5,30-15
			c14.6-0.6,26.2,2.5,34.6,9.3c9.4-6.9,20.3-10,32.5-9.3c13.8,0.8,24.1,6.1,30.7,15.7c12.6,18.5,11,52.6-4.8,101.3
			c-1.1,3.3-2.1,6.4-3,9.5C134.4,153.9,130.4,166.6,121.7,166.6z M54.1,13.1c-1.1,0-2.2,0-3.4,0.1C39,13.6,30.2,18,24.6,26
			c-11.8,17.1-10.1,51.7,4.8,97.6c1.1,3.3,2.1,6.5,3,9.5c4.6,14.5,8.9,28.2,13.8,28.5c1.6-1.1,4.3-8.9,6.2-14.6
			c5.8-17.1,13.7-40.6,31.6-40.6c18,0,25.9,23.5,31.6,40.6c1.9,5.7,4.6,13.5,6.2,14.6c4.9-0.3,9.2-14,13.8-28.5c1-3,2-6.2,3-9.5
			c15.3-47.1,17.2-79.7,5.5-96.9c-5.7-8.3-14.7-12.9-26.9-13.6c-10.9-0.6-20.2,1.9-28.5,7.8c12.7,13.8,10.6,33.3,10.5,34.2
			c-0.2,1.4-1.4,2.4-2.8,2.2c-1.4-0.2-2.4-1.4-2.2-2.8c0-0.2,1.9-18.3-9.4-30.4C78.1,16.8,67.7,13.1,54.1,13.1z"/>
		<path class="st0" d="M84.1,151.1C72.1,151.1,63,127.7,62,125c-0.5-1.3,0.2-2.7,1.5-3.2c1.3-0.5,2.7,0.2,3.2,1.5
			c3.3,8.8,11,22.8,17.4,22.8c6.4,0,14.1-14,17.4-22.8c0.5-1.3,1.9-1.9,3.2-1.5c1.3,0.5,1.9,1.9,1.5,3.2
			C105.2,127.7,96,151.1,84.1,151.1z"/>
	</g>
	<path class="st1" d="M56.7,56.2c-13,0-23.6-10.6-23.6-23.6S43.7,9,56.7,9s23.6,10.6,23.6,23.6S69.7,56.2,56.7,56.2z M56.7,14
		c-10.2,0-18.6,8.3-18.6,18.6s8.3,18.6,18.6,18.6s18.6-8.3,18.6-18.6S66.9,14,56.7,14z"/>
</g>
</svg>
