<?xml version="1.0" encoding="utf-8"?>
<!-- Generator: Adobe Illustrator 21.1.0, SVG Export Plug-In . SVG Version: 6.00 Build 0)  -->
<svg version="1.1" id="Layer_1" xmlns="http://www.w3.org/2000/svg" xmlns:xlink="http://www.w3.org/1999/xlink" x="0px" y="0px"
	 viewBox="0 0 168.6 174.7" style="enable-background:new 0 0 168.6 174.7;" xml:space="preserve">
<style type="text/css">
	.st0{fill:#D1342C;}
	.st1{fill:#FFFFFF;}
	.st2{fill:#CA3628;}
</style>
<g>
	<circle class="st0" cx="84.3" cy="87.3" r="81.8"/>
	<g>
		<path id="XMLID_2_" class="st1" d="M135.3,62c-1.2-4.5-4.8-8.1-9.4-9.3c-8.3-2.2-41.6-2.2-41.6-2.2s-32.7-0.1-41,2
			c-4.6,1.2-9,4.9-10.2,9.5c-2.2,8.3-2,25.4-2,25.4s-0.2,17.1,2,25.4c1.2,4.5,5.7,8.3,10.2,9.5c8.3,2.2,41,2,41,2s32.7,0.1,41-2
			c4.6-1.2,8.9-4.9,10.1-9.5c2.2-8.2,2.2-25.4,2.2-25.4S137.5,70.2,135.3,62z"/>
		<polygon id="XMLID_1_" class="st2" points="74.1,103.7 100.6,87.3 74.1,71 		"/>
	</g>
</g>
</svg>
