<?xml version="1.0" encoding="utf-8"?>
<!-- Generator: Adobe Illustrator 21.1.0, SVG Export Plug-In . SVG Version: 6.00 Build 0)  -->
<svg version="1.1" id="Layer_1" xmlns="http://www.w3.org/2000/svg" xmlns:xlink="http://www.w3.org/1999/xlink" x="0px" y="0px"
	 viewBox="0 0 168.6 174.7" style="enable-background:new 0 0 168.6 174.7;" xml:space="preserve">
<style type="text/css">
	.st0{fill:#547DA0;}
	.st1{fill:#FFFFFF;}
</style>
<g>
	<circle class="st0" cx="84.3" cy="87.3" r="81.8"/>
	<g>
		<g id="post-instagram">
			<path class="st1" d="M126,35.2H42.6c-5.7,0-10.4,4.7-10.4,10.4v83.5c0,5.7,4.7,10.4,10.4,10.4H126c5.7,0,10.4-4.7,10.4-10.4V45.6
				C136.5,39.9,131.8,35.2,126,35.2z M84.3,66.5c11.5,0,20.9,9.4,20.9,20.9s-9.4,20.9-20.9,20.9s-20.9-9.4-20.9-20.9
				S72.8,66.5,84.3,66.5z M45.2,129.1c-1.6,0-2.6-1-2.6-2.6V82.1h11C53,83.7,53,85.8,53,87.3c0,17.2,14.1,31.3,31.3,31.3
				s31.3-14.1,31.3-31.3c0-1.6,0-3.7-0.5-5.2h11v44.3c0,1.6-1,2.6-2.6,2.6H45.2z M126,58.6c0,1.6-1,2.6-2.6,2.6H113
				c-1.6,0-2.6-1-2.6-2.6V48.2c0-1.6,1-2.6,2.6-2.6h10.4c1.6,0,2.6,1,2.6,2.6V58.6z"/>
		</g>
	</g>
</g>
</svg>
