<svg xmlns="http://www.w3.org/2000/svg" viewBox="0 0 35.21 56.89">
  <defs>
    <style>.cls-1{isolation:isolate;font-size:13px;font-family:Montserrat-Medium,
      Montserrat;}.cls-1,.cls-2,.cls-3{fill:#0689ca;}.cls-1,.cls-2{stroke:#82c2ec;stroke-miterlimit:10;}.cls-4{fill:#82c2ec;}
    </style>
  </defs>
  <title>11-2</title>
  <g id="Слой_2" data-name="Слой 2">
    <g id="Слой_1-2" data-name="Слой 1">
      <g id="_11-2" data-name="11-2">
        <text class="cls-1" transform="translate(11.4 11.55)">11</text>
        <g id="_11" data-name="11">
          <path class="cls-2"
                d="M.9,28.38a11.32,11.32,0,0,1,5-6c2.53-1.59,5.72-1.75,12-2,8.19-.33,10,.47,11,1a11.53,11.53,0,0,1,5,5c1.55,3.21.7,6.51-1,13-1.6,6.11-2.43,9.15-5,12-1.09,1.21-4.29,4.76-9,5-5.7.29-9.8-4.45-12-7C3,44.82,2,40.12.9,34.38A11.48,11.48,0,0,1,.9,28.38Z"/>
          <path class="cls-3" d="M.9,27.38a39.24,39.24,0,0,1,9-3,42.33,42.33,0,0,1,16,0,49.94,49.94,0,0,1,8,2"/>
          <path class="cls-4"
                d="M.9,27.38a33,33,0,0,1,3.84-1.83,36.12,36.12,0,0,1,4-1.32,35.11,35.11,0,0,1,8.48-1.12,41.67,41.67,0,0,1,8.49.86,40.31,40.31,0,0,1,8.14,2.41c-1.37-.35-2.74-.69-4.12-.95s-2.76-.53-4.15-.71a57.22,57.22,0,0,0-8.35-.61A45.5,45.5,0,0,0,9,25,49.46,49.46,0,0,0,.9,27.38Z"/>
          <path class="cls-3" d="M4.9,31.38a21.71,21.71,0,0,1,19-4,21.55,21.55,0,0,1,5,2"/>
          <path class="cls-4"
                d="M4.9,31.38a18.76,18.76,0,0,1,2.52-2,21.11,21.11,0,0,1,2.85-1.54,19.47,19.47,0,0,1,6.29-1.58,19.87,19.87,0,0,1,6.47.52,20.81,20.81,0,0,1,3.06,1,18.31,18.31,0,0,1,2.81,1.56,26.66,26.66,0,0,0-6-1.85,25,25,0,0,0-6.22-.28,24,24,0,0,0-6.09,1.3A27.4,27.4,0,0,0,4.9,31.38Z"/>
        </g>
      </g>
    </g>
  </g>
</svg>
