<svg xmlns="http://www.w3.org/2000/svg" viewBox="0 0 37.41 51.38"><defs><style>.cls-1{isolation:isolate;font-size:13px;fill:#cfcece;font-family:Montserrat-Medium, Montserrat;}.cls-2{fill:none;stroke:#82c2ec;stroke-miterlimit:10;}.cls-3{fill:#82c2ec;}</style></defs><title>12-1</title><g id="Слой_2" data-name="Слой 2"><g id="Слой_1-2" data-name="Слой 1"><g id="_12-1" data-name="12-1"><text class="cls-1" transform="translate(0 11.05)">12</text><path class="cls-2" d="M5.5,32.88c-.35-5.14,7.37-9.48,11-11,1.13-.47,11.26-4.58,16,0,1.58,1.53.94,2.45,3,13,1.29,6.62,1.86,7.88,1,10a10,10,0,0,1-9,6c-3-.08-4.17-2-10-7C8.35,36,5.7,35.82,5.5,32.88Z"/><path class="cls-3" d="M12.5,31.88a10.36,10.36,0,0,1,2.14-3.7,11.44,11.44,0,0,1,3.44-2.65,11,11,0,0,1,8.42-.65,15.71,15.71,0,0,0-8,1.55A15.74,15.74,0,0,0,12.5,31.88Z"/></g></g></g></svg>