<svg xmlns="http://www.w3.org/2000/svg" viewBox="0 0 38.31 51.88"><defs><style>.cls-1{isolation:isolate;font-size:13px;font-family:Montserrat-Medium, Montserrat;}.cls-1,.cls-2,.cls-3{fill:#0689ca;}.cls-1,.cls-2{stroke:#82c2ec;stroke-miterlimit:10;}.cls-4{fill:#82c2ec;}</style></defs><title>12-2</title><g id="Слой_2" data-name="Слой 2"><g id="Слой_1-2" data-name="Слой 1"><g id="_12-2" data-name="12-2"><text class="cls-1" transform="translate(0.9 11.55)">12</text><path class="cls-2" d="M6.4,33.38c-.35-5.14,7.37-9.48,11-11,1.12-.47,11.25-4.58,16,0,1.58,1.53.94,2.45,3,13,1.29,6.62,1.86,7.88,1,10a10,10,0,0,1-9,6c-3-.08-4.18-2-10-7C9.24,36.46,6.6,36.32,6.4,33.38Z"/><path class="cls-3" d="M13.4,32.38a12.75,12.75,0,0,1,14-7"/><path class="cls-4" d="M13.4,32.38a10.49,10.49,0,0,1,2.13-3.7A11.57,11.57,0,0,1,19,26a11.06,11.06,0,0,1,8.43-.65,15.74,15.74,0,0,0-8,1.55A15.71,15.71,0,0,0,13.4,32.38Z"/></g></g></g></svg>