<svg xmlns="http://www.w3.org/2000/svg" viewBox="0 0 52.81 44.91"><defs><style>.cls-1{isolation:isolate;font-size:13px;fill:#cfcece;font-family:Montserrat-Medium, Montserrat;}.cls-2{fill:none;stroke:#82c2ec;stroke-miterlimit:10;}.cls-3{fill:#82c2ec;}</style></defs><title>13-1</title><g id="Слой_2" data-name="Слой 2"><g id="Слой_1-2" data-name="Слой 1"><g id="_13-1" data-name="13-1"><text class="cls-1" transform="translate(0 11.05)">13</text><g id="_13" data-name="13"><path class="cls-2" d="M18.5,18.88a15.38,15.38,0,0,1,7-6c7-3.06,13.74.33,15,1,6,3.17,8.08,8.76,10,14,1.41,3.83,2.7,7.52,1,11a10.64,10.64,0,0,1-6,5c-2.52.89-5,.73-11-1-8.78-2.52-13.17-3.78-15-6C15.66,32.2,15.08,24.49,18.5,18.88Z"/><path class="cls-3" d="M23.5,32.88a5.76,5.76,0,0,1-.7-5.71,5.59,5.59,0,0,1,1.93-2.34,5.24,5.24,0,0,1,2.77-.95,7.55,7.55,0,0,0-3.78,3.69A8.19,8.19,0,0,0,23.5,32.88Z"/><path class="cls-3" d="M29.5,19.88a4.19,4.19,0,0,1,1.09-2.28,4.47,4.47,0,0,1,2.26-1.34,4.55,4.55,0,0,1,2.61.12,4.13,4.13,0,0,1,2,1.5,6.36,6.36,0,0,0-4.42-.65A6.24,6.24,0,0,0,29.5,19.88Z"/></g></g></g></g></svg>