<svg xmlns="http://www.w3.org/2000/svg" viewBox="0 0 53.7 45.41"><defs><style>.cls-1{isolation:isolate;font-size:13px;font-family:Montserrat-Medium, Montserrat;}.cls-1,.cls-2,.cls-3{fill:#0689ca;}.cls-1,.cls-2{stroke:#82c2ec;stroke-miterlimit:10;}.cls-4{fill:#82c2ec;}</style></defs><title>13-2</title><g id="Слой_2" data-name="Слой 2"><g id="Слой_1-2" data-name="Слой 1"><g id="_13-2" data-name="13-2"><text class="cls-1" transform="translate(0.9 11.55)">13</text><g id="_13" data-name="13"><path class="cls-2" d="M19.4,19.38a15.28,15.28,0,0,1,7-6c7.05-3.06,13.73.33,15,1,6,3.17,8.07,8.76,10,14,1.4,3.83,2.69,7.52,1,11a10.67,10.67,0,0,1-6,5c-2.52.89-5,.73-11-1-8.79-2.52-13.18-3.78-15-6C16.56,32.7,16,25,19.4,19.38Z"/><path class="cls-3" d="M24.4,33.38a6.6,6.6,0,0,1,0-6,6.38,6.38,0,0,1,4-3"/><path class="cls-4" d="M24.4,33.38a5.71,5.71,0,0,1-.7-5.71,5.64,5.64,0,0,1,1.92-2.34,5.25,5.25,0,0,1,2.78-.95,7.58,7.58,0,0,0-3.79,3.69A8.12,8.12,0,0,0,24.4,33.38Z"/><path class="cls-3" d="M30.4,20.38a5.13,5.13,0,0,1,3-3,5.07,5.07,0,0,1,5,1"/><path class="cls-4" d="M30.4,20.38a4.18,4.18,0,0,1,1.08-2.28,4.58,4.58,0,0,1,4.88-1.22,4.13,4.13,0,0,1,2,1.5A6.36,6.36,0,0,0,34,17.73,6.21,6.21,0,0,0,30.4,20.38Z"/></g></g></g></g></svg>