<svg xmlns="http://www.w3.org/2000/svg" viewBox="0 0 61.7 38.49"><defs><style>.cls-1{isolation:isolate;font-size:13px;fill:#cfcece;font-family:Montserrat-Medium, Montserrat;}.cls-2{fill:none;stroke:#82c2ec;stroke-miterlimit:10;}.cls-3{fill:#82c2ec;}</style></defs><title>14-1</title><g id="Слой_2" data-name="Слой 2"><g id="Слой_1-2" data-name="Слой 1"><g id="_14-1" data-name="14-1"><text class="cls-1" transform="translate(0 11.05)">14</text><g id="_14" data-name="14"><path class="cls-2" d="M24.5,12.88c2.39-3.37,6.11-4.45,8-5a19.57,19.57,0,0,1,13,1c2.21.93,4.81,3.29,10,8,3.41,3.09,4.36,4.29,5,6a11.61,11.61,0,0,1-5,14c-1.6.92-4.4,1.95-13,0-9.45-2.15-14.18-3.22-17-7C22.1,25.32,21,17.85,24.5,12.88Z"/><path class="cls-3" d="M39.5,13.88a39.39,39.39,0,0,0,6.62,4.26,39.69,39.69,0,0,0,7.38,2.74A16.77,16.77,0,0,1,45.67,19,16.86,16.86,0,0,1,39.5,13.88Z"/><path class="cls-3" d="M32.5,27.88a9,9,0,0,1,6.62-1,8.39,8.39,0,0,1,5.38,4,13.41,13.41,0,0,0-5.61-3A15,15,0,0,0,32.5,27.88Z"/><path class="cls-3" d="M47,19.47a6.59,6.59,0,0,0-6,8.77,5.19,5.19,0,0,1-1.06-3.17,5.82,5.82,0,0,1,3.73-5.44A5.19,5.19,0,0,1,47,19.47Z"/></g></g></g></g></svg>