<svg xmlns="http://www.w3.org/2000/svg" viewBox="0 0 62.59 38.99"><defs><style>.cls-1{isolation:isolate;font-size:13px;font-family:Montserrat-Medium, Montserrat;}.cls-1,.cls-2,.cls-3{fill:#0689ca;}.cls-1,.cls-2{stroke:#82c2ec;stroke-miterlimit:10;}.cls-4{fill:#82c2ec;}</style></defs><title>14-2</title><g id="Слой_2" data-name="Слой 2"><g id="Слой_1-2" data-name="Слой 1"><g id="_14-2" data-name="14-2"><text class="cls-1" transform="translate(0.9 11.55)">14</text><g id="_14" data-name="14"><path class="cls-2" d="M25.4,13.38c2.39-3.37,6.1-4.45,8-5a19.58,19.58,0,0,1,13,1c2.2.93,4.8,3.29,10,8,3.41,3.09,4.36,4.29,5,6a11.94,11.94,0,0,1,0,8,12,12,0,0,1-5,6c-1.6.92-4.4,1.95-13,0-9.46-2.15-14.18-3.22-17-7C23,25.82,21.86,18.35,25.4,13.38Z"/><path class="cls-3" d="M40.4,14.38a23.38,23.38,0,0,0,7,5,23.54,23.54,0,0,0,7,2"/><path class="cls-4" d="M40.4,14.38A39,39,0,0,0,47,18.64a39.43,39.43,0,0,0,7.38,2.74,16.74,16.74,0,0,1-7.83-1.85A16.86,16.86,0,0,1,40.4,14.38Z"/><path class="cls-3" d="M33.4,28.38a10.86,10.86,0,0,1,8,0,10.33,10.33,0,0,1,4,3"/><path class="cls-4" d="M33.4,28.38a8.94,8.94,0,0,1,6.62-1,8.41,8.41,0,0,1,5.38,4,13.44,13.44,0,0,0-5.62-3A14.92,14.92,0,0,0,33.4,28.38Z"/><path class="cls-3" d="M47.91,20a6,6,0,0,0-6,8.77"/><path class="cls-4" d="M47.91,20a6.59,6.59,0,0,0-6,8.77,5.13,5.13,0,0,1-1.06-3.17,5.78,5.78,0,0,1,3.73-5.44A5.19,5.19,0,0,1,47.91,20Z"/></g></g></g></g></svg>