<svg xmlns="http://www.w3.org/2000/svg" viewBox="0 0 65.66 32.48"><defs><style>.cls-1{isolation:isolate;font-size:13px;fill:#cfcece;font-family:Montserrat-Medium, Montserrat;}.cls-2{fill:none;stroke:#82c2ec;stroke-miterlimit:10;}.cls-3{fill:#82c2ec;}</style></defs><title>15-1</title><g id="Слой_2" data-name="Слой 2"><g id="Слой_1-2" data-name="Слой 1"><g id="_15-1" data-name="15-1"><text class="cls-1" transform="translate(0 11.05)">15</text><g id="_15" data-name="15"><path class="cls-2" d="M33.5,5.88c7.33-4.33,15.18-1.33,16-1,2.53,1,5,3.34,10,8,4,3.72,4.63,5,5,6,1.26,3.45.8,8.23-2,11-2.32,2.29-5.58,2.22-12,2-9.06-.32-15.06-.53-20-5-1.35-1.23-4.81-4.36-5-9C25.21,10.92,32.51,6.46,33.5,5.88Z"/><path class="cls-3" d="M42.5,8.88a14.79,14.79,0,0,0,5.13,6.48,14.79,14.79,0,0,0,7.87,2.52,10.75,10.75,0,0,1-8.44-1.7A11.14,11.14,0,0,1,44,13,10.23,10.23,0,0,1,42.5,8.88Z"/><path class="cls-3" d="M35.5,21.88a15.91,15.91,0,0,1,7,1.07,15.72,15.72,0,0,1,6,3.93,53.28,53.28,0,0,0-6.31-3A52.93,52.93,0,0,0,35.5,21.88Z"/><path class="cls-3" d="M48.5,16.88A14.6,14.6,0,0,0,46,20.07a15,15,0,0,0-1.47,3.81,5.85,5.85,0,0,1,4-7Z"/></g></g></g></g></svg>