<svg xmlns="http://www.w3.org/2000/svg" viewBox="0 0 66.56 32.98"><defs><style>.cls-1{isolation:isolate;font-size:13px;font-family:Montserrat-Medium, Montserrat;}.cls-1,.cls-2,.cls-3{fill:#0689ca;}.cls-1,.cls-2{stroke:#82c2ec;stroke-miterlimit:10;}.cls-4{fill:#82c2ec;}</style></defs><title>15-2</title><g id="Слой_2" data-name="Слой 2"><g id="Слой_1-2" data-name="Слой 1"><g id="_15-2" data-name="15-2"><text class="cls-1" transform="translate(0.9 11.55)">15</text><g id="_15" data-name="15"><path class="cls-2" d="M34.4,6.38c7.33-4.33,15.18-1.33,16-1,2.53,1,5,3.34,10,8,4,3.72,4.62,5,5,6,1.25,3.45.8,8.23-2,11-2.32,2.29-5.58,2.22-12,2-9.07-.32-15.06-.53-20-5-1.36-1.23-4.81-4.36-5-9C26.11,11.42,33.4,7,34.4,6.38Z"/><path class="cls-3" d="M43.4,9.38a12.38,12.38,0,0,0,5,7,12.4,12.4,0,0,0,8,2"/><path class="cls-4" d="M43.4,9.38a14.79,14.79,0,0,0,5.13,6.48,14.79,14.79,0,0,0,7.87,2.52A10.75,10.75,0,0,1,48,16.68a11,11,0,0,1-3.06-3.21A10.09,10.09,0,0,1,43.4,9.38Z"/><path class="cls-3" d="M36.4,22.38a23.92,23.92,0,0,1,13,5"/><path class="cls-4" d="M36.4,22.38a16.59,16.59,0,0,1,13,5,53.28,53.28,0,0,0-6.31-3A53.42,53.42,0,0,0,36.4,22.38Z"/><path class="cls-3" d="M49.4,17.38a7.84,7.84,0,0,0-4,7"/><path class="cls-4" d="M49.4,17.38a15,15,0,0,0-2.54,3.19,14.93,14.93,0,0,0-1.46,3.81,5.82,5.82,0,0,1,4-7Z"/></g></g></g></g></svg>