<svg xmlns="http://www.w3.org/2000/svg" viewBox="0 0 70.17 46.29"><defs><style>.cls-1{isolation:isolate;font-size:13px;font-family:Montserrat-Medium, Montserrat;}.cls-1,.cls-2,.cls-3{fill:#0689ca;}.cls-1,.cls-2{stroke:#82c2ec;stroke-miterlimit:10;}.cls-4{fill:#82c2ec;}</style></defs><title>16-2</title><g id="Слой_2" data-name="Слой 2"><g id="Слой_1-2" data-name="Слой 1"><g id="_16-2" data-name="16-2"><text class="cls-1" transform="translate(0.9 15.67)">16</text><g id="_16" data-name="16"><path class="cls-2" d="M22.4,25.5c.66-4.5,3.84-4.64,6-10,2.05-5.1.06-6.93,2-10,3-4.8,10.81-4.95,13-5,11.19-.22,24,7.39,26,18a17.21,17.21,0,0,1,0,6c-1.17,8-6.42,18.84-15,21-4.71,1.19-4.63-1.27-24-8a11.89,11.89,0,0,1-6-4A11.65,11.65,0,0,1,22.4,25.5Z"/><path class="cls-3" d="M50.4,7.5c.69.62,3.06,2.9,3,6-.1,4.53-5.31,7.18-8,8-6.56,2-12.32-2.45-13-3"/><path class="cls-4" d="M50.4,7.5a9.59,9.59,0,0,1,2.65,3.17,6.49,6.49,0,0,1,.54,4.19,7.42,7.42,0,0,1-2.15,3.71A14,14,0,0,1,48,21a12.47,12.47,0,0,1-8.24,1.21A15.55,15.55,0,0,1,32.4,18.5,18.79,18.79,0,0,0,36,20.4a15.53,15.53,0,0,0,3.87,1.05,12.57,12.57,0,0,0,7.66-1.35,13.29,13.29,0,0,0,3.26-2.21,7,7,0,0,0,2.05-3.21,5.82,5.82,0,0,0-.24-3.81A10.28,10.28,0,0,0,50.4,7.5Z"/><path class="cls-3" d="M34.4,33.5c.1.2,2.11,3.83,6,4a7.08,7.08,0,0,0,7-5,6,6,0,0,0,0-2c-.2-1.92-.51-4.64-1-8"/><path class="cls-4" d="M34.4,33.5a9.25,9.25,0,0,0,2.33,2.34A6.6,6.6,0,0,0,39.66,37a6.94,6.94,0,0,0,5.71-2,5.6,5.6,0,0,0,1.56-2.61,12.35,12.35,0,0,0-.08-3.19l-.28-3.34c-.06-1.12-.15-2.24-.17-3.37.25,1.1.43,2.2.66,3.3l.55,3.32c.09.56.19,1.11.25,1.67a5.24,5.24,0,0,1,0,1.81,6.39,6.39,0,0,1-1.78,3.11,7.3,7.3,0,0,1-6.55,2.08A7.57,7.57,0,0,1,34.4,33.5Z"/><path class="cls-3" d="M60.4,29.5c-1.64,2.43-3,3-4,3a11.22,11.22,0,0,1-7-2,7.9,7.9,0,0,1-2-3"/><path class="cls-4" d="M60.4,29.5a6.5,6.5,0,0,1-2.77,3.11,3.28,3.28,0,0,1-1.09.32c-.37,0-.71,0-1.07,0a11.54,11.54,0,0,1-2.1-.23,10.58,10.58,0,0,1-3.85-1.67A6.44,6.44,0,0,1,47.4,27.5a9.17,9.17,0,0,0,1.15,1.65A6,6,0,0,0,50,30.43a13,13,0,0,0,3.63,1.34,11.48,11.48,0,0,0,1.93.26c.31,0,.65,0,1,0a2.86,2.86,0,0,0,.86-.17A8.53,8.53,0,0,0,60.4,29.5Z"/><path class="cls-3" d="M55.4,10.5a9.17,9.17,0,0,1-5,8"/><path class="cls-4" d="M55.4,10.5a6.82,6.82,0,0,1-1,5,6.86,6.86,0,0,1-4,3,16.38,16.38,0,0,0,3.18-3.57A15.64,15.64,0,0,0,55.4,10.5Z"/></g></g></g></g></svg>