<svg xmlns="http://www.w3.org/2000/svg" viewBox="0 0 64.69 40.49"><defs><style>.cls-1{isolation:isolate;font-size:13px;fill:#cfcece;font-family:Montserrat-Medium, Montserrat;}.cls-2{fill:none;stroke:#82c2ec;stroke-miterlimit:10;}.cls-3{fill:#82c2ec;}</style></defs><title>17-1</title><g id="Слой_2" data-name="Слой 2"><g id="Слой_1-2" data-name="Слой 1"><g id="_17-1" data-name="17-1"><text class="cls-1" transform="translate(0 16.8)">17</text><g id="_17" data-name="17"><path class="cls-2" d="M28.5,7.63c1.74-3.82,5.74-5.48,7-6,7.66-3.17,15.56,1.13,19,3,3.79,2.06,7.28,4,9,8,1.1,2.58.73,6.06,0,13-.54,5.16-1.19,6.73-2,8a13.59,13.59,0,0,1-6,5c-5.09,2.34-10,1.19-15,0-4.51-1.06-8-1.88-11-5-.85-.87-3.71-3.81-4-8-.2-3,1.1-3.28,2-8C28.56,12.09,27.1,10.7,28.5,7.63Z"/><path class="cls-3" d="M48.5,7.63a9.67,9.67,0,0,1,2.6,3.27,8,8,0,0,1,.71,4.21,8.65,8.65,0,0,1-1.56,4,13.65,13.65,0,0,1-3,3,11.17,11.17,0,0,1-8.18,2A14.11,14.11,0,0,1,35,23a14.49,14.49,0,0,1-3.47-2.34,16.47,16.47,0,0,0,3.66,1.88,13.81,13.81,0,0,0,3.94.89,11.08,11.08,0,0,0,7.52-2.07A10.16,10.16,0,0,0,51.05,15,8.86,8.86,0,0,0,48.5,7.63Z"/><path class="cls-3" d="M56.5,29.63a16.53,16.53,0,0,0-4.34-.94,13.65,13.65,0,0,0-8.28,2.07,16.66,16.66,0,0,0-3.38,2.87,11,11,0,0,1,7.11-5.54,13,13,0,0,1,2.32-.33,12.07,12.07,0,0,1,2.33.16A10.66,10.66,0,0,1,56.5,29.63Z"/><path class="cls-3" d="M45.5,22.63a6.75,6.75,0,0,1,1,5,6,6,0,0,1-1-2.4A6.15,6.15,0,0,1,45.5,22.63Z"/></g></g></g></g></svg>