<svg xmlns="http://www.w3.org/2000/svg" viewBox="0 0 65.59 40.49"><defs><style>.cls-1{isolation:isolate;font-size:13px;font-family:Montserrat-Medium, Montserrat;}.cls-1,.cls-2{fill:#0689ca;stroke:#82c2ec;stroke-miterlimit:10;}</style></defs><title>17-2</title><g id="Слой_2" data-name="Слой 2"><g id="Слой_1-2" data-name="Слой 1"><g id="_17-2" data-name="17-2"><text class="cls-1" transform="translate(0.9 16.8)">17</text><g id="_17" data-name="17"><path class="cls-2" d="M29.4,7.63c1.74-3.82,5.74-5.48,7-6,7.66-3.17,15.56,1.13,19,3,3.78,2.06,7.28,4,9,8,1.09,2.58.73,6.06,0,13-.55,5.16-1.2,6.73-2,8a13.64,13.64,0,0,1-6,5c-5.1,2.34-10,1.19-15,0-4.51-1.06-8-1.88-11-5-.85-.87-3.71-3.81-4-8-.21-3,1.1-3.28,2-8C29.46,12.09,28,10.7,29.4,7.63Z"/><path class="cls-2" d="M49.4,7.63a9.3,9.3,0,0,1,3,6c.32,5.61-5.65,8.82-6,9-4.23,2.19-9.71,1.38-14-2"/><path class="cls-2" d="M57.4,29.63a12.35,12.35,0,0,0-16,4"/><path class="cls-2" d="M46.4,22.63l1,5"/></g></g></g></g></svg>