<svg xmlns="http://www.w3.org/2000/svg" viewBox="0 0 61.51 35.2"><defs><style>.cls-1{isolation:isolate;font-size:13px;fill:#cfcece;font-family:Montserrat-Medium, Montserrat;}.cls-2{fill:none;stroke:#82c2ec;stroke-miterlimit:10;}.cls-3{fill:#82c2ec;}</style></defs><title>18-1 (2)</title><g id="Слой_2" data-name="Слой 2"><g id="Слой_1-2" data-name="Слой 1"><g id="_18-1" data-name="18-1"><text class="cls-1" transform="translate(0 19.33)">18</text><g id="_18" data-name="18"><path class="cls-2" d="M27.5,6.16c2.2-4,7.16-5.23,8.5-5.5,2.52-.51,2.79.29,10,1,6.38.63,7.45.3,9.5,1.5,3.6,2.12,4.74,6.12,5,7,.85,2.87.47,5.2,0,8a18.85,18.85,0,0,1-2.5,7.5,17.07,17.07,0,0,1-7,6c-5.62,2.93-15.43,5.06-22,0-1-.76-3.87-3-4.5-6.5-.53-3,1.06-3.91,2-9C27.6,10.23,25.89,9.11,27.5,6.16Z"/><path class="cls-3" d="M46.5,7.16a8.88,8.88,0,0,1,.39,6,10,10,0,0,1-3.62,5,9.47,9.47,0,0,1-6,1.71,12.34,12.34,0,0,1-5.81-1.79,16.06,16.06,0,0,0,5.81,1,9.52,9.52,0,0,0,5.37-1.74A10.14,10.14,0,0,0,46.15,13,10.27,10.27,0,0,0,46.5,7.16Z"/><path class="cls-3" d="M40.5,28.16a9.17,9.17,0,0,0,3.35-4.46,8.45,8.45,0,0,0-.35-5.54A6,6,0,0,1,44.8,24a6.16,6.16,0,0,1-1.66,2.66A6,6,0,0,1,40.5,28.16Z"/><path class="cls-3" d="M52.5,22.16a4.92,4.92,0,0,1-4.27,1.64A4.79,4.79,0,0,1,46,23a4.22,4.22,0,0,1-1.49-1.79,8,8,0,0,0,3.84,1.65A9,9,0,0,0,52.5,22.16Z"/></g></g></g></g></svg>