<svg xmlns="http://www.w3.org/2000/svg" viewBox="0 0 62.4 35.2"><defs><style>.cls-1{isolation:isolate;font-size:13px;font-family:Montserrat-Medium, Montserrat;}.cls-1,.cls-2,.cls-3{fill:#0689ca;}.cls-1,.cls-2{stroke:#82c2ec;stroke-miterlimit:10;}.cls-4{fill:#82c2ec;}</style></defs><title>18-2 (2)</title><g id="Слой_2" data-name="Слой 2"><g id="Слой_1-2" data-name="Слой 1"><g id="_18-2" data-name="18-2"><text class="cls-1" transform="translate(0.9 19.33)">18</text><g id="_18" data-name="18"><path class="cls-2" d="M28.4,6.16c2.2-4,7.16-5.23,8.5-5.5,2.51-.51,2.79.29,10,1,6.37.63,7.45.3,9.5,1.5,3.6,2.12,4.73,6.12,5,7,.85,2.87.46,5.2,0,8a19,19,0,0,1-2.5,7.5,17.13,17.13,0,0,1-7,6c-5.63,2.93-15.43,5.06-22,0-1-.76-3.87-3-4.5-6.5-.54-3,1.05-3.91,2-9C28.49,10.23,26.78,9.11,28.4,6.16Z"/><path class="cls-3" d="M47.4,7.16a9.63,9.63,0,0,1,0,6,10.13,10.13,0,0,1-4,5c-4.91,3.08-10.68.17-11,0"/><path class="cls-4" d="M47.4,7.16a8.88,8.88,0,0,1,.39,6,10,10,0,0,1-3.63,5,9.45,9.45,0,0,1-6,1.71,12.34,12.34,0,0,1-5.8-1.79,16,16,0,0,0,5.81,1,9.52,9.52,0,0,0,5.37-1.74A10.21,10.21,0,0,0,47.05,13,10.36,10.36,0,0,0,47.4,7.16Z"/><path class="cls-3" d="M41.4,28.16a7.32,7.32,0,0,0,4-5,7.1,7.1,0,0,0-1-5"/><path class="cls-4" d="M41.4,28.16a9.17,9.17,0,0,0,3.35-4.46,8.51,8.51,0,0,0-.35-5.54A6,6,0,0,1,45.7,24,6.26,6.26,0,0,1,44,26.65,6,6,0,0,1,41.4,28.16Z"/><path class="cls-3" d="M53.4,22.16a6.14,6.14,0,0,1-5,1,5.73,5.73,0,0,1-3-2"/><path class="cls-4" d="M53.4,22.16a4.92,4.92,0,0,1-4.28,1.64A4.87,4.87,0,0,1,46.88,23a4.27,4.27,0,0,1-1.48-1.79,7.9,7.9,0,0,0,3.84,1.65A9,9,0,0,0,53.4,22.16Z"/></g></g></g></g></svg>