<svg xmlns="http://www.w3.org/2000/svg" viewBox="0 0 35.21 57.39"><defs><style>.cls-1{isolation:isolate;font-size:13px;fill:#cfcece;font-family:Montserrat-Medium, Montserrat;}.cls-2{fill:none;stroke:#82c2ec;stroke-miterlimit:10;}.cls-3{fill:#82c2ec;}</style></defs><title>21-1</title><g id="Слой_2" data-name="Слой 2"><g id="Слой_1-2" data-name="Слой 1"><g id="_21-1" data-name="21-1"><text class="cls-1" transform="translate(13.11 11.05)">21</text><g id="_21" data-name="21"><path class="cls-2" d="M34.31,28.88a11.32,11.32,0,0,0-5-6c-2.53-1.59-5.72-1.75-12-2-8.18-.33-10,.47-11,1a11.58,11.58,0,0,0-5,5c-1.55,3.21-.7,6.51,1,13,1.61,6.11,2.43,9.15,5,12,1.09,1.21,4.29,4.76,9,5,5.7.29,9.8-4.45,12-7,3.94-4.56,4.87-9.26,6-15A11.38,11.38,0,0,0,34.31,28.88Z"/><path class="cls-3" d="M34.31,27.88a49.34,49.34,0,0,0-8.06-2.41,45.59,45.59,0,0,0-8.31-.86,57.35,57.35,0,0,0-8.36.61c-1.39.18-2.77.42-4.15.71s-2.74.6-4.12.95a40.4,40.4,0,0,1,8.15-2.41A41.52,41.52,0,0,1,18,23.61a35.1,35.1,0,0,1,8.47,1.12,36.28,36.28,0,0,1,4.06,1.32A33.61,33.61,0,0,1,34.31,27.88Z"/><path class="cls-3" d="M30.31,31.88a27.08,27.08,0,0,0-5.64-2.83,24.15,24.15,0,0,0-6.1-1.3,25,25,0,0,0-6.22.28,26.81,26.81,0,0,0-6,1.85,18.79,18.79,0,0,1,2.81-1.56,20.54,20.54,0,0,1,3.07-1,19.82,19.82,0,0,1,6.47-.52A19.53,19.53,0,0,1,25,28.34a21.73,21.73,0,0,1,2.85,1.54A18.67,18.67,0,0,1,30.31,31.88Z"/></g></g></g></g></svg>