<svg xmlns="http://www.w3.org/2000/svg" viewBox="0 0 35.21 57.89"><defs><style>.cls-1{isolation:isolate;font-size:13px;font-family:Montserrat-Medium, Montserrat;}.cls-1,.cls-2,.cls-3{fill:#0689ca;}.cls-1,.cls-2{stroke:#82c2ec;stroke-miterlimit:10;}.cls-4{fill:#82c2ec;}</style></defs><title>21-2</title><g id="Слой_2" data-name="Слой 2"><g id="Слой_1-2" data-name="Слой 1"><g id="_21-2" data-name="21-2"><text class="cls-1" transform="translate(13.11 11.55)">21</text><g id="_21" data-name="21"><path class="cls-2" d="M34.31,29.38a11.32,11.32,0,0,0-5-6c-2.53-1.59-5.72-1.75-12-2-8.18-.33-10,.47-11,1a11.58,11.58,0,0,0-5,5c-1.55,3.21-.7,6.51,1,13,1.61,6.11,2.43,9.15,5,12,1.09,1.21,4.29,4.76,9,5,5.7.29,9.8-4.45,12-7,3.94-4.56,4.87-9.26,6-15A11.38,11.38,0,0,0,34.31,29.38Z"/><path class="cls-3" d="M34.31,28.38a39.24,39.24,0,0,0-9-3,42.34,42.34,0,0,0-16,0,50.22,50.22,0,0,0-8,2"/><path class="cls-4" d="M34.31,28.38A49.34,49.34,0,0,0,26.25,26a45.59,45.59,0,0,0-8.31-.86,57.35,57.35,0,0,0-8.36.61c-1.39.18-2.77.42-4.15.71s-2.74.6-4.12.95A40.4,40.4,0,0,1,9.46,25,41.52,41.52,0,0,1,18,24.11a35.1,35.1,0,0,1,8.47,1.12,36.28,36.28,0,0,1,4.06,1.32A33.61,33.61,0,0,1,34.31,28.38Z"/><path class="cls-3" d="M30.31,32.38a21.71,21.71,0,0,0-19-4,21.55,21.55,0,0,0-5,2"/><path class="cls-4" d="M30.31,32.38a27.08,27.08,0,0,0-5.64-2.83,24.15,24.15,0,0,0-6.1-1.3,25,25,0,0,0-6.22.28,26.81,26.81,0,0,0-6,1.85,18.79,18.79,0,0,1,2.81-1.56,20.54,20.54,0,0,1,3.07-1,19.82,19.82,0,0,1,6.47-.52A19.53,19.53,0,0,1,25,28.84a21.73,21.73,0,0,1,2.85,1.54A18.67,18.67,0,0,1,30.31,32.38Z"/></g></g></g></g></svg>