<svg xmlns="http://www.w3.org/2000/svg" viewBox="0 0 37.63 54.38"><defs><style>.cls-1{isolation:isolate;font-size:13px;fill:#cfcece;font-family:Montserrat-Medium, Montserrat;}.cls-2{fill:none;stroke:#82c2ec;stroke-miterlimit:10;}.cls-3{fill:#82c2ec;}</style></defs><title>22-1</title><g id="Слой_2" data-name="Слой 2"><g id="Слой_1-2" data-name="Слой 1"><g id="_22-1" data-name="22-1"><text class="cls-1" transform="translate(22.7 11.05)">22</text><g id="_22" data-name="22"><path class="cls-2" d="M31.91,35.88c.35-5.14-7.37-9.48-11-11-1.13-.47-11.26-4.58-16,0-1.58,1.53-.94,2.45-3,13-1.29,6.62-1.86,7.88-1,10a10,10,0,0,0,9,6c3-.08,4.17-2,10-7C29.06,39,31.71,38.82,31.91,35.88Z"/><path class="cls-3" d="M24.91,34.88a15.78,15.78,0,0,0-6-5.45,15.76,15.76,0,0,0-8-1.55,11,11,0,0,1,8.42.65,11.32,11.32,0,0,1,3.44,2.65A10.36,10.36,0,0,1,24.91,34.88Z"/></g></g></g></g></svg>