<svg xmlns="http://www.w3.org/2000/svg" viewBox="0 0 38.19 54.88"><defs><style>.cls-1{isolation:isolate;font-size:13px;font-family:Montserrat-Medium, Montserrat;}.cls-1,.cls-2,.cls-3{fill:#0689ca;}.cls-1,.cls-2{stroke:#82c2ec;stroke-miterlimit:10;}.cls-4{fill:#82c2ec;}</style></defs><title>22-2</title><g id="Слой_2" data-name="Слой 2"><g id="Слой_1-2" data-name="Слой 1"><g id="_22-2" data-name="22-2"><text class="cls-1" transform="translate(22.7 11.55)">22</text><g id="_22" data-name="22"><path class="cls-2" d="M31.91,36.38c.35-5.14-7.37-9.48-11-11-1.13-.47-11.26-4.58-16,0-1.58,1.53-.94,2.45-3,13C.62,45,.05,46.26.91,48.38a10,10,0,0,0,9,6c3-.08,4.17-2,10-7C29.06,39.46,31.71,39.32,31.91,36.38Z"/><path class="cls-3" d="M24.91,35.38a12.75,12.75,0,0,0-14-7"/><path class="cls-4" d="M24.91,35.38a15.78,15.78,0,0,0-6-5.45,15.76,15.76,0,0,0-8-1.55,11,11,0,0,1,8.42.65,11.32,11.32,0,0,1,3.44,2.65A10.36,10.36,0,0,1,24.91,35.38Z"/></g></g></g></g></svg>