<svg xmlns="http://www.w3.org/2000/svg" viewBox="0 0 53 47.91"><defs><style>.cls-1{isolation:isolate;font-size:13px;fill:#cfcece;font-family:Montserrat-Medium, Montserrat;}.cls-2{fill:none;stroke:#82c2ec;stroke-miterlimit:10;}.cls-3{fill:#82c2ec;}</style></defs><title>23-1</title><g id="Слой_2" data-name="Слой 2"><g id="Слой_1-2" data-name="Слой 1"><g id="_23-1" data-name="23-1"><text class="cls-1" transform="translate(38.1 11.05)">23</text><g id="_23" data-name="23"><path class="cls-2" d="M34.31,21.88a15.38,15.38,0,0,0-7-6c-7-3.06-13.74.33-15,1-6,3.17-8.08,8.76-10,14-1.41,3.83-2.7,7.52-1,11a10.64,10.64,0,0,0,6,5c2.52.89,5,.73,11-1,8.78-2.52,13.17-3.78,15-6C37.15,35.2,37.73,27.49,34.31,21.88Z"/><path class="cls-3" d="M29.31,35.88a8.19,8.19,0,0,0-.22-5.31,7.59,7.59,0,0,0-3.78-3.69,5.24,5.24,0,0,1,2.77.95A5.59,5.59,0,0,1,30,30.17,5.76,5.76,0,0,1,29.31,35.88Z"/><path class="cls-3" d="M23.31,22.88a6.24,6.24,0,0,0-3.58-2.65,6.35,6.35,0,0,0-4.42.65,4.15,4.15,0,0,1,2-1.5A4.58,4.58,0,0,1,20,19.26a4.47,4.47,0,0,1,2.26,1.34A4.26,4.26,0,0,1,23.31,22.88Z"/></g></g></g></g></svg>