<svg xmlns="http://www.w3.org/2000/svg" viewBox="0 0 53.5 48.41"><defs><style>.cls-1{isolation:isolate;font-size:13px;font-family:Montserrat-Medium, Montserrat;}.cls-1,.cls-2,.cls-3{fill:#0689ca;}.cls-1,.cls-2{stroke:#82c2ec;stroke-miterlimit:10;}.cls-4{fill:#82c2ec;}</style></defs><title>23-2</title><g id="Слой_2" data-name="Слой 2"><g id="Слой_1-2" data-name="Слой 1"><g id="_23-2" data-name="23-2"><text class="cls-1" transform="translate(38.1 11.55)">23</text><g id="_23" data-name="23"><path class="cls-2" d="M34.31,22.38a15.38,15.38,0,0,0-7-6c-7-3.06-13.74.33-15,1-6,3.17-8.08,8.76-10,14-1.41,3.83-2.7,7.52-1,11a10.64,10.64,0,0,0,6,5c2.52.89,5,.73,11-1,8.78-2.52,13.17-3.78,15-6C37.15,35.7,37.73,28,34.31,22.38Z"/><path class="cls-3" d="M29.31,36.38a6.64,6.64,0,0,0,0-6,6.4,6.4,0,0,0-4-3"/><path class="cls-4" d="M29.31,36.38a8.19,8.19,0,0,0-.22-5.31,7.59,7.59,0,0,0-3.78-3.69,5.24,5.24,0,0,1,2.77.95A5.59,5.59,0,0,1,30,30.67,5.76,5.76,0,0,1,29.31,36.38Z"/><path class="cls-3" d="M23.31,23.38a5.2,5.2,0,0,0-3-3,5.07,5.07,0,0,0-5,1"/><path class="cls-4" d="M23.31,23.38a6.24,6.24,0,0,0-3.58-2.65,6.35,6.35,0,0,0-4.42.65,4.15,4.15,0,0,1,2-1.5A4.58,4.58,0,0,1,20,19.76a4.47,4.47,0,0,1,2.26,1.34A4.26,4.26,0,0,1,23.31,23.38Z"/></g></g></g></g></svg>