<svg xmlns="http://www.w3.org/2000/svg" viewBox="0 0 61.9 41.49"><defs><style>.cls-1{isolation:isolate;font-size:13px;fill:#cfcece;font-family:Montserrat-Medium, Montserrat;}.cls-2{letter-spacing:-0.02em;}.cls-3{fill:none;stroke:#82c2ec;stroke-miterlimit:10;}.cls-4{fill:#82c2ec;}</style></defs><title>24-1</title><g id="Слой_2" data-name="Слой 2"><g id="Слой_1-2" data-name="Слой 1"><g id="_24-1" data-name="24-1"><text class="cls-1" transform="translate(45.99 11.05)"><tspan class="cls-2">2</tspan><tspan x="7.21" y="0">4</tspan></text><g id="_24" data-name="24"><path class="cls-3" d="M37.2,15.88c-2.39-3.37-6.11-4.45-8-5a19.57,19.57,0,0,0-13,1c-2.21.93-4.81,3.29-10,8-3.42,3.09-4.36,4.29-5,6a11.61,11.61,0,0,0,5,14c1.6.92,4.4,1.95,13,0,9.45-2.15,14.18-3.22,17-7C39.6,28.32,40.73,20.85,37.2,15.88Z"/><path class="cls-4" d="M22.2,16.88A16.94,16.94,0,0,1,16,22,16.8,16.8,0,0,1,8.2,23.88a39.69,39.69,0,0,0,7.38-2.74A39.39,39.39,0,0,0,22.2,16.88Z"/><path class="cls-4" d="M29.2,30.88a15,15,0,0,0-6.39,0,13.41,13.41,0,0,0-5.61,3,8.39,8.39,0,0,1,5.38-4A9,9,0,0,1,29.2,30.88Z"/><path class="cls-4" d="M14.69,22.47a5.15,5.15,0,0,1,3.33.16,5.77,5.77,0,0,1,2.72,2.14,5.84,5.84,0,0,1,1,3.3,5.2,5.2,0,0,1-1.07,3.17,6.58,6.58,0,0,0-6-8.77Z"/></g></g></g></g></svg>