<svg xmlns="http://www.w3.org/2000/svg" viewBox="0 0 66.88 34.48"><defs><style>.cls-1{isolation:isolate;font-size:13px;fill:#cfcece;font-family:Montserrat-Medium, Montserrat;}.cls-2{fill:none;stroke:#82c2ec;stroke-miterlimit:10;}.cls-3{fill:#82c2ec;}</style></defs><title>25-1</title><g id="Слой_2" data-name="Слой 2"><g id="Слой_1-2" data-name="Слой 1"><g id="_25-1" data-name="25-1"><text class="cls-1" transform="translate(51.96 11.05)">25</text><g id="_25" data-name="25"><path class="cls-2" d="M32.16,7.88c-7.33-4.33-15.18-1.33-16-1-2.53,1-5,3.34-10,8-4,3.72-4.62,5-5,6-1.25,3.45-.8,8.23,2,11,2.32,2.29,5.58,2.22,12,2,9.07-.32,15.06-.53,20-5,1.36-1.23,4.81-4.36,5-9C40.45,12.92,33.15,8.46,32.16,7.88Z"/><path class="cls-3" d="M23.16,10.88A10.09,10.09,0,0,1,21.66,15a11,11,0,0,1-3.06,3.21,10.75,10.75,0,0,1-8.44,1.7A14.79,14.79,0,0,0,18,17.36,14.79,14.79,0,0,0,23.16,10.88Z"/><path class="cls-3" d="M30.16,23.88a53.42,53.42,0,0,0-6.69,2,53.28,53.28,0,0,0-6.31,3A15.79,15.79,0,0,1,23.11,25,15.93,15.93,0,0,1,30.16,23.88Z"/><path class="cls-3" d="M17.16,18.88a5.82,5.82,0,0,1,4,7,14.93,14.93,0,0,0-1.46-3.81A15,15,0,0,0,17.16,18.88Z"/></g></g></g></g></svg>