<svg xmlns="http://www.w3.org/2000/svg" viewBox="0 0 67.43 34.98"><defs><style>.cls-1{isolation:isolate;font-size:13px;font-family:Montserrat-Medium, Montserrat;}.cls-1,.cls-2,.cls-3{fill:#0689ca;}.cls-1,.cls-2{stroke:#82c2ec;stroke-miterlimit:10;}.cls-4{fill:#82c2ec;}</style></defs><title>25-2</title><g id="Слой_2" data-name="Слой 2"><g id="Слой_1-2" data-name="Слой 1"><g id="_25-2" data-name="25-2"><text class="cls-1" transform="translate(51.96 11.55)">25</text><g id="_25" data-name="25"><path class="cls-2" d="M32.16,8.38c-7.33-4.33-15.18-1.33-16-1-2.53,1-5,3.34-10,8-4,3.72-4.62,5-5,6-1.25,3.45-.8,8.23,2,11,2.32,2.29,5.58,2.22,12,2,9.07-.32,15.06-.53,20-5,1.36-1.23,4.81-4.36,5-9C40.45,13.42,33.15,9,32.16,8.38Z"/><path class="cls-3" d="M23.16,11.38a12.38,12.38,0,0,1-5,7,12.4,12.4,0,0,1-8,2"/><path class="cls-4" d="M23.16,11.38a10.09,10.09,0,0,1-1.5,4.09,11,11,0,0,1-3.06,3.21,10.75,10.75,0,0,1-8.44,1.7A14.79,14.79,0,0,0,18,17.86,14.79,14.79,0,0,0,23.16,11.38Z"/><path class="cls-3" d="M30.16,24.38a23.92,23.92,0,0,0-13,5"/><path class="cls-4" d="M30.16,24.38a53.42,53.42,0,0,0-6.69,2,53.28,53.28,0,0,0-6.31,3,15.79,15.79,0,0,1,5.95-3.93A15.93,15.93,0,0,1,30.16,24.38Z"/><path class="cls-3" d="M17.16,19.38a7.84,7.84,0,0,1,4,7"/><path class="cls-4" d="M17.16,19.38a5.82,5.82,0,0,1,4,7,14.93,14.93,0,0,0-1.46-3.81A15,15,0,0,0,17.16,19.38Z"/></g></g></g></g></svg>