<svg xmlns="http://www.w3.org/2000/svg" viewBox="0 0 70.01 46.29"><defs><style>.cls-1{isolation:isolate;font-size:13px;fill:#cfcece;font-family:Montserrat-Medium, Montserrat;}.cls-2{letter-spacing:0em;}.cls-3{fill:none;stroke:#82c2ec;stroke-miterlimit:10;}.cls-4{fill:#82c2ec;}</style></defs><title>26-1</title><g id="Слой_2" data-name="Слой 2"><g id="Слой_1-2" data-name="Слой 1"><g id="_26-1" data-name="26-1"><text class="cls-1" transform="translate(54.56 12.68)"><tspan class="cls-2">2</tspan><tspan x="7.42" y="0">6</tspan></text><g id="_26" data-name="26"><path class="cls-3" d="M47.77,25.5c-.66-4.5-3.85-4.64-6-10-2.05-5.1-.07-6.93-2-10C36.74.7,29,.55,26.77.5c-11.19-.22-24,7.39-26,18a17.21,17.21,0,0,0,0,6c1.17,8,6.42,18.84,15,21,4.7,1.19,4.63-1.27,24-8a11.89,11.89,0,0,0,6-4A11.65,11.65,0,0,0,47.77,25.5Z"/><path class="cls-4" d="M19.77,7.5a10.15,10.15,0,0,0-2.21,3.37,6,6,0,0,0-.24,3.81,7,7,0,0,0,2.06,3.21,13.23,13.23,0,0,0,3.25,2.21,12.62,12.62,0,0,0,7.67,1.35,15.53,15.53,0,0,0,3.87-1.05,18.79,18.79,0,0,0,3.6-1.9,15.55,15.55,0,0,1-7.34,3.71A12.47,12.47,0,0,1,22.19,21a13.91,13.91,0,0,1-3.47-2.43,7.41,7.41,0,0,1-2.14-3.71,6.43,6.43,0,0,1,.54-4.19A9.47,9.47,0,0,1,19.77,7.5Z"/><path class="cls-4" d="M35.77,33.5a7.59,7.59,0,0,1-5.13,4.29,7.3,7.3,0,0,1-6.55-2.08,6.39,6.39,0,0,1-1.78-3.11,5.5,5.5,0,0,1,0-1.81c.06-.56.16-1.11.26-1.67l.55-3.32c.22-1.1.41-2.2.66-3.3,0,1.13-.12,2.25-.17,3.37l-.28,3.34a12.38,12.38,0,0,0-.09,3.19A5.77,5.77,0,0,0,24.79,35a7,7,0,0,0,5.71,2,6.63,6.63,0,0,0,2.94-1.2A9.42,9.42,0,0,0,35.77,33.5Z"/><path class="cls-4" d="M9.77,29.5a8.5,8.5,0,0,0,3.06,2.39,3,3,0,0,0,.87.17c.3,0,.64,0,1,0a11.22,11.22,0,0,0,1.92-.26,13.06,13.06,0,0,0,3.64-1.34,6.19,6.19,0,0,0,1.4-1.28,9.71,9.71,0,0,0,1.15-1.65,6.5,6.5,0,0,1-2.12,3.58,10.55,10.55,0,0,1-3.86,1.67,11.35,11.35,0,0,1-2.1.23c-.35,0-.69,0-1.06,0a3.41,3.41,0,0,1-1.1-.32A6.48,6.48,0,0,1,9.77,29.5Z"/><path class="cls-4" d="M14.77,10.5a15.08,15.08,0,0,0,1.82,4.43,15.88,15.88,0,0,0,3.18,3.57,6.88,6.88,0,0,1-4-3A6.77,6.77,0,0,1,14.77,10.5Z"/></g></g></g></g></svg>