<svg xmlns="http://www.w3.org/2000/svg" viewBox="0 0 66.18 40.49"><defs><style>.cls-1{isolation:isolate;font-size:13px;fill:#cfcece;font-family:Montserrat-Medium, Montserrat;}.cls-2{letter-spacing:0em;}.cls-3{fill:none;stroke:#82c2ec;stroke-miterlimit:10;}.cls-4{fill:#82c2ec;}</style></defs><title>27-1</title><g id="Слой_2" data-name="Слой 2"><g id="Слой_1-2" data-name="Слой 1"><g id="_27-1" data-name="27-1"><text class="cls-1" transform="translate(50.98 15.8)"><tspan class="cls-2">2</tspan><tspan x="7.42" y="0">7</tspan></text><g id="_27" data-name="27"><path class="cls-3" d="M36.19,7.63c-1.74-3.82-5.74-5.48-7-6-7.66-3.17-15.56,1.13-19,3-3.79,2.06-7.28,4-9,8-1.09,2.58-.73,6.06,0,13,.54,5.16,1.19,6.73,2,8a13.64,13.64,0,0,0,6,5c5.1,2.34,10,1.19,15,0,4.51-1.06,8-1.88,11-5,.85-.87,3.71-3.81,4-8,.21-3-1.1-3.28-2-8C36.13,12.09,37.59,10.7,36.19,7.63Z"/><path class="cls-4" d="M16.19,7.63A8.86,8.86,0,0,0,13.64,15a10.17,10.17,0,0,0,4.44,6.32,11.05,11.05,0,0,0,7.51,2.07,13.81,13.81,0,0,0,3.94-.89,16.25,16.25,0,0,0,3.66-1.88A14.63,14.63,0,0,1,29.73,23a14.27,14.27,0,0,1-4.06,1.19,11.17,11.17,0,0,1-8.18-2,13.87,13.87,0,0,1-3-3,8.65,8.65,0,0,1-1.56-4,8,8,0,0,1,.71-4.21A9.79,9.79,0,0,1,16.19,7.63Z"/><path class="cls-4" d="M8.19,29.63a10.66,10.66,0,0,1,4.24-1.71,12.12,12.12,0,0,1,2.33-.16,13,13,0,0,1,2.32.33,11,11,0,0,1,7.11,5.54,16.66,16.66,0,0,0-3.38-2.87,13.61,13.61,0,0,0-8.28-2.07A16.62,16.62,0,0,0,8.19,29.63Z"/><path class="cls-4" d="M19.19,22.63a6.15,6.15,0,0,1,0,2.6,6,6,0,0,1-1,2.4,6.75,6.75,0,0,1,1-5Z"/></g></g></g></g></svg>