<svg xmlns="http://www.w3.org/2000/svg" viewBox="0 0 62.63 35.2"><defs><style>.cls-1{isolation:isolate;font-size:13px;fill:#cfcece;font-family:Montserrat-Medium, Montserrat;}.cls-2{fill:none;stroke:#82c2ec;stroke-miterlimit:10;}.cls-3{fill:#82c2ec;}</style></defs><title>28-1</title><g id="Слой_2" data-name="Слой 2"><g id="Слой_1-2" data-name="Слой 1"><g id="_28-1" data-name="28-1"><text class="cls-1" transform="translate(46.8 17.33)">28</text><g id="_28" data-name="28"><path class="cls-2" d="M34,6.16c-2.2-4-7.17-5.23-8.5-5.5-2.52-.51-2.8.29-10,1C9.13,2.29,8.05,2,6,3.16c-3.61,2.12-4.74,6.12-5,7-.86,2.87-.47,5.2,0,8a18.69,18.69,0,0,0,2.5,7.5,17,17,0,0,0,7,6c5.62,2.93,15.42,5.06,22,0,1-.76,3.86-3,4.5-6.5.53-3-1.06-3.91-2-9C33.91,10.23,35.62,9.11,34,6.16Z"/><path class="cls-3" d="M15,7.16a10.27,10.27,0,0,0,.34,5.8,10.28,10.28,0,0,0,3.47,4.47,9.52,9.52,0,0,0,5.37,1.74,16.12,16.12,0,0,0,5.82-1A12.38,12.38,0,0,1,24.2,20a9.47,9.47,0,0,1-6-1.71,10,10,0,0,1-3.63-5A8.82,8.82,0,0,1,15,7.16Z"/><path class="cls-3" d="M21,28.16a6,6,0,0,1-2.65-1.51A6.26,6.26,0,0,1,16.7,24,6,6,0,0,1,18,18.16a8.45,8.45,0,0,0-.35,5.54A9.11,9.11,0,0,0,21,28.16Z"/><path class="cls-3" d="M9,22.16a8.92,8.92,0,0,0,4.15.65A8,8,0,0,0,17,21.16,4.37,4.37,0,0,1,15.52,23,4.92,4.92,0,0,1,9,22.16Z"/></g></g></g></g></svg>