<svg xmlns="http://www.w3.org/2000/svg" viewBox="0 0 23.73 63.57"><defs><style>.cls-1{isolation:isolate;font-size:13px;fill:#cfcece;font-family:Montserrat-Medium, Montserrat;}.cls-2{fill:none;stroke:#82c2ec;stroke-miterlimit:10;}.cls-3{fill:#82c2ec;}</style></defs><title>31-1</title><g id="Слой_2" data-name="Слой 2"><g id="Слой_1-2" data-name="Слой 1"><g id="_31-1" data-name="31-1"><text class="cls-1" transform="translate(8.07 60.16)">31</text><g id="_31" data-name="31"><path class="cls-2" d="M18,6c-2.09-3.93-3.22-4.65-4-5A6.9,6.9,0,0,0,9,1c-1.58.66-3.25,2.14-6,11C.86,18.75-.16,22.17,1,24c2.33,3.77,9,3.24,12,3s8.41-.66,10-4c.77-1.62-.15-4.41-2-10A45.15,45.15,0,0,0,18,6Z"/><path class="cls-3" d="M18,19a7.44,7.44,0,0,1-2.72,1.85,8.53,8.53,0,0,1-3.28.65A8.2,8.2,0,0,1,6,19a16,16,0,0,0,3,1.12,12.06,12.06,0,0,0,3,.38A13.42,13.42,0,0,0,18,19Z"/></g></g></g></g></svg>