<svg xmlns="http://www.w3.org/2000/svg" viewBox="0 0 31.42 58.72"><defs><style>.cls-1{isolation:isolate;font-size:13px;font-family:Montserrat-Medium, Montserrat;}.cls-1,.cls-3,.cls-4{fill:#0689ca;}.cls-1,.cls-3{stroke:#82c2ec;stroke-miterlimit:10;}.cls-2{letter-spacing:0em;}.cls-5{fill:#82c2ec;}</style></defs><title>32-2</title><g id="Слой_2" data-name="Слой 2"><g id="Слой_1-2" data-name="Слой 1"><g id="_32-2" data-name="32-2"><text class="cls-1" transform="translate(16.02 54.8)"><tspan class="cls-2">3</tspan><tspan x="7.37" y="0">2</tspan></text><g id="_32" data-name="32"><path class="cls-3" d="M15.91,4.63c-3.75-3.62-4.54-3.89-5-4-2.17-.53-4.58.66-6,2-2.39,2.26-1.54,4.57-3,13-1.08,6.29-2,7.31-1,9,2.47,4.33,11.37,3.09,12,3,5.18-.78,12.64-4.14,13-9,.23-3.08-2.44-6-7-11C18.09,6.73,17.36,6,15.91,4.63Z"/><path class="cls-4" d="M20.91,17.63a28,28,0,0,1-7,3,28.26,28.26,0,0,1-7,1"/><path class="cls-5" d="M20.91,17.63a18,18,0,0,1-6.6,3.4,17.82,17.82,0,0,1-7.4.6A67.76,67.76,0,0,0,14,20.07,67,67,0,0,0,20.91,17.63Z"/><path class="cls-4" d="M5.91,26.63a25.38,25.38,0,0,0,10-1,25.22,25.22,0,0,0,9-5"/><path class="cls-5" d="M5.91,26.63a33.92,33.92,0,0,0,10-1.52,34.29,34.29,0,0,0,9-4.48,20.15,20.15,0,0,1-8.73,5.44A20.25,20.25,0,0,1,5.91,26.63Z"/></g></g></g></g></svg>