<svg xmlns="http://www.w3.org/2000/svg" viewBox="0 0 42.73 51.35"><defs><style>.cls-1{isolation:isolate;font-size:13px;font-family:Montserrat-Medium, Montserrat;}.cls-1,.cls-3,.cls-4{fill:#0689ca;}.cls-1,.cls-3{stroke:#82c2ec;stroke-miterlimit:10;}.cls-2{letter-spacing:0em;}.cls-5{fill:#82c2ec;}</style></defs><title>33-2</title><g id="Слой_2" data-name="Слой 2"><g id="Слой_1-2" data-name="Слой 1"><g id="_33-2" data-name="33-2"><text class="cls-1" transform="translate(27.42 47.43)"><tspan class="cls-2">3</tspan><tspan x="7.37" y="0">3</tspan></text><g id="_33" data-name="33"><path class="cls-3" d="M15.31,3.26c-3.45-1.7-8-4-11-2-1.92,1.25-2.31,3.85-3,9-.86,6.3-1.28,9.45,0,12,2.77,5.53,11.84,10.17,19,6a13.66,13.66,0,0,0,6-15C24.86,8,20.17,5.66,15.31,3.26Z"/><path class="cls-4" d="M23.31,13.26a19.54,19.54,0,0,1-6,6,19.85,19.85,0,0,1-11,3"/><path class="cls-5" d="M23.31,13.26a16.29,16.29,0,0,1-7.08,7.19,16.52,16.52,0,0,1-9.92,1.81,28.41,28.41,0,0,0,4.9-.89,23,23,0,0,0,4.56-1.8A24.34,24.34,0,0,0,23.31,13.26Z"/><path class="cls-4" d="M6.31,27.26a16.56,16.56,0,0,0,12-1,16.54,16.54,0,0,0,8-9"/><path class="cls-5" d="M6.31,27.26a20,20,0,0,0,6.06.25,17.38,17.38,0,0,0,5.71-1.7,18.11,18.11,0,0,0,4.79-3.56,19.37,19.37,0,0,0,3.44-5,14.37,14.37,0,0,1-2.86,5.52,15.83,15.83,0,0,1-4.92,3.93,15.44,15.44,0,0,1-6.1,1.57A14.59,14.59,0,0,1,6.31,27.26Z"/></g></g></g></g></svg>