<svg xmlns="http://www.w3.org/2000/svg" viewBox="0 0 57.59 42.59"><defs><style>.cls-1{isolation:isolate;font-size:13px;font-family:Montserrat-Medium, Montserrat;}.cls-1,.cls-2,.cls-3{fill:#0689ca;}.cls-1,.cls-2{stroke:#82c2ec;stroke-miterlimit:10;}.cls-4{fill:#82c2ec;}</style></defs><title>34-1</title><g id="Слой_2" data-name="Слой 2"><g id="Слой_1-2" data-name="Слой 1"><g id="_34-1" data-name="34-1"><text class="cls-1" transform="translate(40.62 38.68)">34</text><g id="_34" data-name="34"><path class="cls-2" d="M9.51.5c-3,0-4.19.5-5,1-3.87,2.42-4,8.26-4,10s-.2,10.84,7,15c6.7,3.88,14.05,0,16-1,1.5-.78,9.12-4.79,9-11-.09-4.09-3.5-6.92-6-9C20.37.42,13.3.48,9.51.5Z"/><path class="cls-3" d="M19.51,8.5a8.18,8.18,0,0,0-7-1c-4.06,1.43-4.94,5.69-5,6a8.47,8.47,0,0,0,2,7"/><path class="cls-4" d="M19.51,8.5a8.91,8.91,0,0,0-5.43-1,7.11,7.11,0,0,0-4.51,2.7,8.28,8.28,0,0,0-1.8,5A9.44,9.44,0,0,0,9.51,20.5,8.12,8.12,0,0,1,7,15.29a7.47,7.47,0,0,1,.37-3A9.67,9.67,0,0,1,8.78,9.62,7.41,7.41,0,0,1,14,6.77,7.85,7.85,0,0,1,19.51,8.5Z"/></g></g></g></g></svg>