<svg xmlns="http://www.w3.org/2000/svg" viewBox="0 0 66.95 35.83"><defs><style>.cls-1{isolation:isolate;font-size:13px;font-family:Montserrat-Medium, Montserrat;letter-spacing:-0.01em;}.cls-1,.cls-3,.cls-5{fill:#0689ca;}.cls-1,.cls-5{stroke:#82c2ec;stroke-miterlimit:10;}.cls-2{letter-spacing:0em;}.cls-4{fill:#82c2ec;}</style></defs><title>35-2</title><g id="Слой_2" data-name="Слой 2"><g id="Слой_1-2" data-name="Слой 1"><g id="_35-2" data-name="35-2"><text class="cls-1" transform="translate(51.64 31.91)">3<tspan class="cls-2" x="7.31" y="0">5</tspan></text><g id="_35" data-name="35"><path class="cls-3" d="M15.53,2.74c8.43,4.16,10,5,10,5s-3.79-2.84-8-2a9.33,9.33,0,0,0-6,4,9.25,9.25,0,0,0,1,11,7.2,7.2,0,0,0,5,2c0-.13-2-1-11-4"/><path class="cls-4" d="M15.53,2.74c2.14.93,4.26,1.93,6.39,2.9L25.1,7.15l.39.2.11.05,0,0,0,0a.38.38,0,0,1,.17.25.26.26,0,0,1-.05.21.36.36,0,0,1-.28.14A.39.39,0,0,1,25.3,8l-.05,0-.09-.06-.74-.43a14.3,14.3,0,0,0-1.55-.71,9.1,9.1,0,0,0-6.55-.21,8.3,8.3,0,0,0-4.83,4.31,9.09,9.09,0,0,0-.43,6.49,7.31,7.31,0,0,0,1.58,2.88A7,7,0,0,0,15.39,22a7.67,7.67,0,0,0,1.62.4,1.58,1.58,0,0,0,.36,0h0c.07,0-.11,0-.16.14a.44.44,0,0,0-.05.2.27.27,0,0,0,.1.18h0a.94.94,0,0,0-.15-.08c-.24-.12-.51-.24-.78-.35-1.07-.44-2.16-.86-3.26-1.27L6.53,18.74c2.25.64,4.48,1.35,6.72,2.05q1.66.54,3.33,1.14c.27.11.55.21.83.34a1.47,1.47,0,0,1,.24.13l.08.05a.43.43,0,0,1,.13.23.32.32,0,0,1-.05.24.51.51,0,0,1-.27.18h-.09a2.89,2.89,0,0,1-.51,0,8.48,8.48,0,0,1-1.8-.38A7.13,7.13,0,0,1,12,20.82a8.29,8.29,0,0,1-1.82-3.19,10,10,0,0,1,.4-7.2A9.26,9.26,0,0,1,16,5.69a9.58,9.58,0,0,1,7.14.36,15.14,15.14,0,0,1,1.61.81c.26.16.51.31.76.48l.09.06,0,0a.27.27,0,0,0-.17,0,.29.29,0,0,0-.24.17.71.71,0,0,0,0,.2.32.32,0,0,0,.14.23h0l0,0-.09,0-.38-.21-3.1-1.64C19.65,5,17.57,3.88,15.53,2.74Z"/><path class="cls-5" d="M14.53.74a16.12,16.12,0,0,0-7,2,13.11,13.11,0,0,0-6,6,12.87,12.87,0,0,0,0,10c1.92,4.58,6,6.54,9,8,2.25,1.08,11.65,5.62,20,1,1.36-.76,5.68-3.15,7-8,1.74-6.39-3.1-12-4-13C26.81-1,15.6.57,14.53.74Z"/></g></g></g></g></svg>