<svg xmlns="http://www.w3.org/2000/svg" viewBox="0 0 78.97 45.5"><defs><style>.cls-1{isolation:isolate;font-size:13px;font-family:Montserrat-Medium, Montserrat;}.cls-1,.cls-2,.cls-3{fill:#0689ca;}.cls-1,.cls-2{stroke:#82c2ec;stroke-miterlimit:10;}.cls-4{fill:#82c2ec;}</style></defs><title>36-2</title><g id="Слой_2" data-name="Слой 2"><g id="Слой_1-2" data-name="Слой 1"><g id="_36-2" data-name="36-2"><text class="cls-1" transform="translate(62.86 36.69)">36</text><g id="_36" data-name="36"><path class="cls-2" d="M24.75.52a19.52,19.52,0,0,0-8,1,18.25,18.25,0,0,0-9,8c-1.49,2.6-.79,2.72-3,8-2.47,5.91-3.48,6-4,9-.16,1-1.07,6.29,2,10,1,1.17,1.88,1.5,8,4s9,3.68,11,4c2.72.44,7.24,1.16,12-1,7.13-3.23,9.51-10.51,10-12,.92-2.8,1-4.93,1-9,.08-5.83.13-9.32-2-13a17.79,17.79,0,0,0-8-7A22.61,22.61,0,0,0,24.75.52Z"/><path class="cls-3" d="M25.75,7.52a6.39,6.39,0,0,0-1,4,5.92,5.92,0,0,0,2,4c2,1.52,5.37,1.24,8-1"/><path class="cls-4" d="M25.75,7.52a7,7,0,0,0-.59,4.12A5.55,5.55,0,0,0,27,15.09a5.13,5.13,0,0,0,3.77.9,9.47,9.47,0,0,0,4-1.47,7.15,7.15,0,0,1-3.83,2.24,5.49,5.49,0,0,1-4.52-.88,5.86,5.86,0,0,1-2-4.14A5.9,5.9,0,0,1,25.75,7.52Z"/><path class="cls-3" d="M15.75,38.52a6.67,6.67,0,0,1,0-5,6.6,6.6,0,0,1,3-3c5.07-2.91,12.72-.43,14,0"/><path class="cls-4" d="M15.75,38.52A7,7,0,0,1,15,35.59a5.78,5.78,0,0,1,.8-3,6.73,6.73,0,0,1,2.24-2.2,11.94,11.94,0,0,1,1.37-.74,12.83,12.83,0,0,1,1.47-.52A13.79,13.79,0,0,1,24,28.67a19.12,19.12,0,0,1,3,.19,21.6,21.6,0,0,1,5.77,1.66,40.55,40.55,0,0,0-5.85-.89,17.5,17.5,0,0,0-5.74.45,10.59,10.59,0,0,0-1.34.46c-.42.2-.85.39-1.27.64A6.43,6.43,0,0,0,16.47,33,6.55,6.55,0,0,0,15.75,38.52Z"/><path class="cls-3" d="M7.75,20.52a13,13,0,0,0,6,2,11.73,11.73,0,0,0,6-1,12.11,12.11,0,0,0,6-7"/><path class="cls-4" d="M7.75,20.52A15.34,15.34,0,0,0,12.93,22a13.37,13.37,0,0,0,5.24-.44,11.2,11.2,0,0,0,4.49-2.67,15.22,15.22,0,0,0,3.09-4.41,11.25,11.25,0,0,1-2.53,4.95,10.47,10.47,0,0,1-4.76,3.08,12,12,0,0,1-5.65.26A11.51,11.51,0,0,1,7.75,20.52Z"/><path class="cls-3" d="M18.75,21.52a16.62,16.62,0,0,0,1,8"/><path class="cls-4" d="M18.75,21.52c.23,1.39.33,2.69.5,4s.38,2.6.5,4a8.11,8.11,0,0,1-1.49-3.88A8.07,8.07,0,0,1,18.75,21.52Z"/></g></g></g></g></svg>