<svg xmlns="http://www.w3.org/2000/svg" viewBox="0 0 74.33 42.19"><defs><style>.cls-1{isolation:isolate;font-size:13px;font-family:Montserrat-Medium, Montserrat;}.cls-1,.cls-3,.cls-4{fill:#0689ca;}.cls-1,.cls-3{stroke:#82c2ec;stroke-miterlimit:10;}.cls-2{letter-spacing:-0.01em;}.cls-5{fill:#82c2ec;}</style></defs><title>37-2</title><g id="Слой_2" data-name="Слой 2"><g id="Слой_1-2" data-name="Слой 1"><g id="_37-2" data-name="37-2"><text class="cls-1" transform="translate(58.78 38.27)"><tspan class="cls-2">3</tspan><tspan x="7.28" y="0">7</tspan></text><g id="_37" data-name="37"><path class="cls-3" d="M41.67,11.1c-2-3.71-5-5.37-8-7s-9.08-5-16-3a16.57,16.57,0,0,0-7,4c-1.2,1.16-1.77,2.11-4,6-3.19,5.57-4.79,8.36-5,9-.5,1.5-2.36,7.17,0,12,2,4,8.64,5.68,22,9a9.48,9.48,0,0,0,6,0c3.46-1.37,5.2-5.23,6-7,1.35-3,.66-3.49,2-6,1.89-3.55,3.67-3.34,5-6C45,17.48,42.07,11.85,41.67,11.1Z"/><path class="cls-4" d="M23.67,5.1a6.33,6.33,0,0,0,0,7c1.84,2.52,5.9,3.2,9,1"/><path class="cls-5" d="M23.67,5.1A7.74,7.74,0,0,0,23,9.22a5.21,5.21,0,0,0,1.85,3.43A6.26,6.26,0,0,0,28.59,14a8.08,8.08,0,0,0,4.08-.93,6.49,6.49,0,0,1-4.08,1.71,6.3,6.3,0,0,1-4.35-1.39,5.56,5.56,0,0,1-2-4.13A6.28,6.28,0,0,1,23.67,5.1Z"/><path class="cls-4" d="M16.67,36.1a8,8,0,0,1-2-6,8.17,8.17,0,0,1,4-6"/><path class="cls-5" d="M16.67,36.1a6.77,6.77,0,0,1-2.07-2.91,7,7,0,0,1-.35-3.65,7.06,7.06,0,0,1,1.53-3.34,7,7,0,0,1,2.89-2.1,11.81,11.81,0,0,0-2.26,2.56,8.23,8.23,0,0,0-1.18,3A9.18,9.18,0,0,0,16.67,36.1Z"/><path class="cls-4" d="M23.67,13.1a9.93,9.93,0,0,0-4,4c-1.29,2.42-1.93,6.21,0,9,2.23,3.24,7.41,4.4,12,2"/><path class="cls-5" d="M23.67,13.1a10.33,10.33,0,0,0-4.2,5.38A8.89,8.89,0,0,0,19.64,25a7.46,7.46,0,0,0,5.21,3.8,11.57,11.57,0,0,0,6.82-.74,10.59,10.59,0,0,1-3.31,1.37,10.4,10.4,0,0,1-3.65.12,7.85,7.85,0,0,1-6-4.11,9,9,0,0,1,0-7.26,9.79,9.79,0,0,1,2-3.07A9.61,9.61,0,0,1,23.67,13.1Z"/><path class="cls-4" d="M8.67,18.1a7.32,7.32,0,0,0,5,4,7,7,0,0,0,5-1"/><path class="cls-5" d="M8.67,18.1a9.12,9.12,0,0,0,4.46,3.35,8.45,8.45,0,0,0,5.54-.35,6,6,0,0,1-5.84,1.3,6.16,6.16,0,0,1-2.66-1.66A6,6,0,0,1,8.67,18.1Z"/></g></g></g></g></svg>