<svg xmlns="http://www.w3.org/2000/svg" viewBox="0 0 65.36 41.61"><defs><style>.cls-1{isolation:isolate;font-size:13px;font-family:Montserrat-Medium, Montserrat;}.cls-1,.cls-2,.cls-3{fill:#0689ca;}.cls-1,.cls-2{stroke:#82c2ec;stroke-miterlimit:10;}.cls-4{fill:#82c2ec;}</style></defs><title>38-2</title><g id="Слой_2" data-name="Слой 2"><g id="Слой_1-2" data-name="Слой 1"><g id="_38-2" data-name="38-2"><text class="cls-1" transform="translate(49.05 31.89)">38</text><g id="_38" data-name="38"><path class="cls-2" d="M37.94,21.72a22.27,22.27,0,0,0,1-8,13.92,13.92,0,0,0-3-7c-5.09-6.54-16.39-8-24-4-1.8.95-5.75,3-7,7-.76,2.42.08,3.64-1,7-1,3.17-2.24,3.55-3,6-1.3,4.2.66,8.29,1,9,3.53,7.38,13.63,8.51,18,9,3.82.43,12.07,1.36,15-3a14.65,14.65,0,0,0,2-8,19.26,19.26,0,0,1,0-4A20,20,0,0,1,37.94,21.72Z"/><path class="cls-3" d="M22.94,6.72a12.52,12.52,0,0,1,0,8c-.56,1.53-1.11,1.9-4,6-3.69,5.24-3.93,6.25-4,7-.12,1.19,0,3.7,3,7"/><path class="cls-4" d="M22.94,6.72a14.76,14.76,0,0,1,.88,3.85,11.23,11.23,0,0,1-.42,4,6.61,6.61,0,0,1-.84,1.88c-.36.57-.74,1.1-1.12,1.64-.76,1.05-1.52,2.11-2.26,3.18S17.69,23.38,17,24.47a10.09,10.09,0,0,0-1.67,3.3,7,7,0,0,0,.61,3.64,15,15,0,0,0,2,3.31,12.61,12.61,0,0,1-2.45-3.1,7.45,7.45,0,0,1-.93-3.93,5,5,0,0,1,.64-2c.31-.6.64-1.17,1-1.73.69-1.12,1.43-2.21,2.17-3.28s1.53-2.13,2.32-3.17c.39-.52.8-1,1.15-1.56a6.89,6.89,0,0,0,.85-1.64A13.85,13.85,0,0,0,22.94,6.72Z"/><path class="cls-3" d="M7.94,16.72a7.92,7.92,0,0,0,5,4,7.84,7.84,0,0,0,6-1"/><path class="cls-4" d="M7.94,16.72a9.53,9.53,0,0,0,5,3.47,8.29,8.29,0,0,0,3,.27,11.6,11.6,0,0,0,3.05-.74,6.75,6.75,0,0,1-6.3,1.43A6.92,6.92,0,0,1,9.7,19.5,6.47,6.47,0,0,1,7.94,16.72Z"/><path class="cls-3" d="M27.94,23.72a8.73,8.73,0,0,1-6,0,8.4,8.4,0,0,1-3-2"/><path class="cls-4" d="M27.94,23.72a6.51,6.51,0,0,1-4.91.84,6.21,6.21,0,0,1-4.09-2.84,12.78,12.78,0,0,0,4.3,1.86A14.41,14.41,0,0,0,27.94,23.72Z"/></g></g></g></g></svg>