<svg xmlns="http://www.w3.org/2000/svg" viewBox="0 0 23.73 63.57"><defs><style>.cls-1{isolation:isolate;font-size:13px;fill:#cfcece;font-family:Montserrat-Medium, Montserrat;}.cls-2{letter-spacing:-0.02em;}.cls-3{fill:none;stroke:#82c2ec;stroke-miterlimit:10;}.cls-4{fill:#82c2ec;}</style></defs><title>41-1</title><g id="Слой_2" data-name="Слой 2"><g id="Слой_1-2" data-name="Слой 1"><g id="_41-1" data-name="41-1"><text class="cls-1" transform="translate(1.27 60.16)"><tspan class="cls-2">4</tspan><tspan x="8.37" y="0">1</tspan></text><g id="_41" data-name="41"><path class="cls-3" d="M5.77,6c2.1-3.93,3.23-4.65,4-5a6.9,6.9,0,0,1,5,0c1.58.66,3.26,2.14,6,11,2.1,6.77,3.12,10.19,2,12-2.32,3.77-9,3.24-12,3s-8.4-.66-10-4c-.77-1.62.15-4.41,2-10A46.21,46.21,0,0,1,5.77,6Z"/><path class="cls-4" d="M5.77,19a13.42,13.42,0,0,0,6,1.5,12.06,12.06,0,0,0,3-.38,15.47,15.47,0,0,0,3-1.12,8.2,8.2,0,0,1-6,2.5,8.57,8.57,0,0,1-3.28-.65A7.52,7.52,0,0,1,5.77,19Z"/></g></g></g></g></svg>