<svg xmlns="http://www.w3.org/2000/svg" viewBox="0 0 31.41 58.22"><defs><style>.cls-1{isolation:isolate;font-size:13px;fill:#cfcece;font-family:Montserrat-Medium, Montserrat;}.cls-2{letter-spacing:0em;}.cls-3{fill:none;stroke:#82c2ec;stroke-miterlimit:10;}.cls-4{fill:#82c2ec;}</style></defs><title>42-1</title><g id="Слой_2" data-name="Слой 2"><g id="Слой_1-2" data-name="Слой 1"><g id="_42-1" data-name="42-1"><text class="cls-1" transform="translate(0 54.8)"><tspan class="cls-2">4</tspan><tspan x="8.66" y="0">2</tspan></text><g id="_42" data-name="42"><path class="cls-3" d="M15.5,4.63C19.25,1,20,.74,20.5.63c2.17-.53,4.58.66,6,2,2.39,2.26,1.54,4.57,3,13,1.09,6.29,2,7.31,1,9-2.46,4.33-11.37,3.09-12,3-5.18-.78-12.64-4.14-13-9-.23-3.08,2.44-6,7-11C13.32,6.73,14.05,6,15.5,4.63Z"/><path class="cls-4" d="M10.5,17.63a68.77,68.77,0,0,0,6.87,2.44,68.31,68.31,0,0,0,7.13,1.56,17.84,17.84,0,0,1-7.4-.6A18,18,0,0,1,10.5,17.63Z"/><path class="cls-4" d="M25.5,26.63a20.26,20.26,0,0,1-10.27-.56A20.21,20.21,0,0,1,6.5,20.63a34.29,34.29,0,0,0,9,4.48A33.92,33.92,0,0,0,25.5,26.63Z"/></g></g></g></g></svg>