<svg xmlns="http://www.w3.org/2000/svg" viewBox="0 0 42.31 52.35"><defs><style>.cls-1{isolation:isolate;font-size:13px;font-family:Montserrat-Medium, Montserrat;}.cls-1,.cls-3,.cls-4{fill:#0689ca;}.cls-1,.cls-3{stroke:#82c2ec;stroke-miterlimit:10;}.cls-2{letter-spacing:-0.01em;}.cls-5{fill:#82c2ec;}</style></defs><title>43-2</title><g id="Слой_2" data-name="Слой 2"><g id="Слой_1-2" data-name="Слой 1"><g id="_43-2" data-name="43-2"><text class="cls-1" transform="translate(0.51 48.43)"><tspan class="cls-2">4</tspan><tspan x="8.54" y="0">3</tspan></text><g id="_43" data-name="43"><path class="cls-3" d="M27,3.26c3.44-1.7,8-4,11-2,1.91,1.25,2.3,3.85,3,9,.85,6.3,1.27,9.45,0,12-2.77,5.53-11.84,10.17-19,6a13.65,13.65,0,0,1-6-15C17.46,8,22.14,5.66,27,3.26Z"/><path class="cls-4" d="M19,13.26a19.31,19.31,0,0,0,6,6,19.83,19.83,0,0,0,11,3"/><path class="cls-5" d="M19,13.26a24.22,24.22,0,0,0,7.54,6.31,22.69,22.69,0,0,0,4.55,1.8,28.52,28.52,0,0,0,4.91.89,16.55,16.55,0,0,1-9.93-1.81A16.22,16.22,0,0,1,19,13.26Z"/><path class="cls-4" d="M36,27.26a16.56,16.56,0,0,1-12-1,16.51,16.51,0,0,1-8-9"/><path class="cls-5" d="M36,27.26a14.67,14.67,0,0,1-6.13,1,15.48,15.48,0,0,1-6.1-1.57,16.06,16.06,0,0,1-4.92-3.93A14.21,14.21,0,0,1,16,17.26a19.33,19.33,0,0,0,3.43,5,18.44,18.44,0,0,0,4.79,3.56,17.45,17.45,0,0,0,5.71,1.7A20,20,0,0,0,36,27.26Z"/></g></g></g></g></svg>