<svg xmlns="http://www.w3.org/2000/svg" viewBox="0 0 56.01 43.09"><defs><style>.cls-1{isolation:isolate;font-size:13px;fill:#cfcece;font-family:Montserrat-Medium, Montserrat;}.cls-2{fill:none;stroke:#82c2ec;stroke-miterlimit:10;}.cls-3{fill:#82c2ec;}</style></defs><title>44-1</title><g id="Слой_2" data-name="Слой 2"><g id="Слой_1-2" data-name="Слой 1"><g id="_44-1" data-name="44-1"><text class="cls-1" transform="translate(0 39.68)">44</text><g id="_44" data-name="44"><path class="cls-2" d="M46.5.5c3,0,4.19.5,5,1,3.86,2.42,4,8.26,4,10s.2,10.84-7,15c-6.71,3.88-14,0-16-1-1.5-.78-9.12-4.79-9-11,.08-4.09,3.49-6.92,6-9C35.64.42,42.7.48,46.5.5Z"/><path class="cls-3" d="M36.5,8.5A7.84,7.84,0,0,1,42,6.77a7.43,7.43,0,0,1,5.21,2.85,9.64,9.64,0,0,1,1.41,2.67,7.3,7.3,0,0,1,.37,3A8.06,8.06,0,0,1,46.5,20.5a9.35,9.35,0,0,0,1.73-5.24,8.27,8.27,0,0,0-1.79-5,7.13,7.13,0,0,0-4.52-2.7A8.88,8.88,0,0,0,36.5,8.5Z"/></g></g></g></g></svg>