<svg xmlns="http://www.w3.org/2000/svg" viewBox="0 0 56.51 43.59"><defs><style>.cls-1{isolation:isolate;font-size:13px;font-family:Montserrat-Medium, Montserrat;}.cls-1,.cls-2,.cls-3{fill:#0689ca;}.cls-1,.cls-2{stroke:#82c2ec;stroke-miterlimit:10;}.cls-4{fill:#82c2ec;}</style></defs><title>44-2</title><g id="Слой_2" data-name="Слой 2"><g id="Слой_1-2" data-name="Слой 1"><g id="_44-2" data-name="44-2"><text class="cls-1" transform="translate(0.51 39.68)">44</text><g id="_44" data-name="44"><path class="cls-2" d="M47,.5c3,0,4.19.5,5,1,3.86,2.42,4,8.26,4,10s.19,10.84-7,15c-6.71,3.88-14,0-16-1-1.51-.78-9.13-4.79-9-11,.08-4.09,3.49-6.92,6-9C36.14.42,43.21.48,47,.5Z"/><path class="cls-3" d="M37,8.5a8.17,8.17,0,0,1,7-1c4.05,1.43,4.94,5.69,5,6a8.54,8.54,0,0,1-2,7"/><path class="cls-4" d="M37,8.5a7.81,7.81,0,0,1,5.51-1.73,7.39,7.39,0,0,1,5.21,2.85,9.41,9.41,0,0,1,1.42,2.67,7.47,7.47,0,0,1,.37,3A8.16,8.16,0,0,1,47,20.5a9.43,9.43,0,0,0,1.73-5.24,8.27,8.27,0,0,0-1.79-5,7.16,7.16,0,0,0-4.52-2.7A8.87,8.87,0,0,0,37,8.5Z"/></g></g></g></g></svg>