<svg xmlns="http://www.w3.org/2000/svg" viewBox="0 0 67.03 35.33"><defs><style>.cls-1{isolation:isolate;font-size:13px;fill:#cfcece;font-family:Montserrat-Medium, Montserrat;}.cls-2{letter-spacing:0em;}.cls-3{fill:#82c2ec;}.cls-4{fill:none;stroke:#82c2ec;stroke-miterlimit:10;}</style></defs><title>45-1</title><g id="Слой_2" data-name="Слой 2"><g id="Слой_1-2" data-name="Слой 1"><g id="_45-1" data-name="45-1"><text class="cls-1" transform="translate(0 31.91)"><tspan class="cls-2">4</tspan><tspan x="8.66" y="0">5</tspan></text><g id="_45" data-name="45"><path class="cls-3" d="M51.5,2.74c-2,1.14-4.12,2.22-6.18,3.33l-3.1,1.64-.38.21-.09,0,0,0h0a.27.27,0,0,0,.14-.23.34.34,0,0,0,0-.2.27.27,0,0,0-.23-.17.38.38,0,0,0-.18,0l.05,0,.09-.06c.25-.17.5-.32.76-.48a15,15,0,0,1,1.6-.81A9.61,9.61,0,0,1,51,5.69a9.31,9.31,0,0,1,5.42,4.74,10.06,10.06,0,0,1,.4,7.2A8.29,8.29,0,0,1,55,20.82a7.16,7.16,0,0,1-3.14,1.91,8.26,8.26,0,0,1-1.79.38,2.89,2.89,0,0,1-.51,0h-.09a.48.48,0,0,1-.27-.18.28.28,0,0,1,0-.24.52.52,0,0,1,.12-.23l.08-.05c.11-.07.17-.09.24-.13.29-.13.56-.23.84-.34q1.66-.6,3.33-1.14c2.24-.7,4.47-1.41,6.72-2.05l-6.56,2.51c-1.09.41-2.18.83-3.26,1.27l-.78.35-.14.08h0a.24.24,0,0,0,.09-.18.35.35,0,0,0,0-.2c-.06-.13-.23-.15-.17-.14h0a1.64,1.64,0,0,0,.37,0,7.83,7.83,0,0,0,1.62-.4,6.86,6.86,0,0,0,2.74-1.78A7.21,7.21,0,0,0,56,17.35a9,9,0,0,0-.44-6.49,8.31,8.31,0,0,0-4.82-4.31,9.1,9.1,0,0,0-6.55.21,12.74,12.74,0,0,0-1.55.71c-.25.14-.5.28-.74.43L41.78,8l-.05,0a.43.43,0,0,1-.22.06.4.4,0,0,1-.29-.14.34.34,0,0,1,0-.21.38.38,0,0,1,.16-.25l0,0,.06,0,.1-.05.4-.2L45.1,5.64C47.23,4.67,49.35,3.67,51.5,2.74Z"/><path class="cls-4" d="M52.5.74a16.12,16.12,0,0,1,7,2,13.16,13.16,0,0,1,6,6,12.87,12.87,0,0,1,0,10c-1.92,4.58-6,6.54-9,8-2.25,1.08-11.66,5.62-20,1-1.37-.76-5.68-3.15-7-8-1.74-6.39,3.09-12,4-13C40.22-1,51.43.57,52.5.74Z"/></g></g></g></g></svg>