<svg xmlns="http://www.w3.org/2000/svg" viewBox="0 0 67.53 35.83"><defs><style>.cls-1{isolation:isolate;font-size:13px;font-family:Montserrat-Medium, Montserrat;}.cls-1,.cls-3,.cls-5{fill:#0689ca;}.cls-1,.cls-5{stroke:#82c2ec;stroke-miterlimit:10;}.cls-2{letter-spacing:0em;}.cls-4{fill:#82c2ec;}</style></defs><title>45-2</title><g id="Слой_2" data-name="Слой 2"><g id="Слой_1-2" data-name="Слой 1"><g id="_45-2" data-name="45-2"><text class="cls-1" transform="translate(0.51 31.91)"><tspan class="cls-2">4</tspan><tspan x="8.66" y="0">5</tspan></text><g id="_45" data-name="45"><path class="cls-3" d="M52,2.74c-8.43,4.16-10,5-10,5s3.78-2.84,8-2a9.37,9.37,0,0,1,6,4,9.29,9.29,0,0,1-1,11,7.21,7.21,0,0,1-5,2c0-.13,2-1,11-4"/><path class="cls-4" d="M52,2.74C50,3.88,47.88,5,45.83,6.07L42.72,7.71l-.38.21-.09,0,0,0h0a.32.32,0,0,0,.14-.23.34.34,0,0,0-.05-.2.29.29,0,0,0-.24-.17.31.31,0,0,0-.17,0l0,0L42,7.34c.25-.17.51-.32.76-.48a16.15,16.15,0,0,1,1.61-.81,9.58,9.58,0,0,1,7.14-.36,9.26,9.26,0,0,1,5.42,4.74,10,10,0,0,1,.4,7.2,8.16,8.16,0,0,1-1.82,3.19,7.13,7.13,0,0,1-3.13,1.91,8.35,8.35,0,0,1-1.8.38,2.88,2.88,0,0,1-.51,0H50a.51.51,0,0,1-.26-.18.25.25,0,0,1,0-.24.43.43,0,0,1,.12-.23l.08-.05a1.47,1.47,0,0,1,.24-.13c.29-.13.56-.23.84-.34q1.65-.6,3.33-1.14c2.23-.7,4.46-1.41,6.72-2.05l-6.56,2.51c-1.09.41-2.19.83-3.26,1.27-.27.11-.54.23-.78.35l-.14.08h0a.34.34,0,0,0,.09-.18.69.69,0,0,0,0-.2c-.06-.13-.23-.15-.17-.14h0a1.64,1.64,0,0,0,.37,0,7.59,7.59,0,0,0,1.61-.4,6.89,6.89,0,0,0,2.75-1.78,7.31,7.31,0,0,0,1.58-2.88A9,9,0,0,0,56,10.86a8.31,8.31,0,0,0-4.82-4.31,9.09,9.09,0,0,0-6.55.21,12.74,12.74,0,0,0-1.55.71c-.25.14-.5.28-.74.43l-.1.06-.05,0a.34.34,0,0,1-.21.06.38.38,0,0,1-.29-.14.28.28,0,0,1,0-.21.34.34,0,0,1,.16-.25l0,0,.06,0,.1-.05.4-.2,3.17-1.51C47.74,4.67,49.86,3.67,52,2.74Z"/><path class="cls-5" d="M53,.74a16.19,16.19,0,0,1,7,2,13.16,13.16,0,0,1,6,6,13,13,0,0,1,0,10c-1.92,4.58-6,6.54-9,8-2.25,1.08-11.66,5.62-20,1-1.37-.76-5.68-3.15-7-8-1.74-6.39,3.09-12,4-13C40.72-1,51.93.57,53,.74Z"/></g></g></g></g></svg>