<svg xmlns="http://www.w3.org/2000/svg" viewBox="0 0 78.25 45.5"><defs><style>.cls-1{isolation:isolate;font-size:13px;fill:#cfcece;font-family:Montserrat-Medium, Montserrat;}.cls-2{fill:none;stroke:#82c2ec;stroke-miterlimit:10;}.cls-3{fill:#82c2ec;}</style></defs><title>46-1</title><g id="Слой_2" data-name="Слой 2"><g id="Слой_1-2" data-name="Слой 1"><g id="_46-1" data-name="46-1"><text class="cls-1" transform="translate(0 37.69)">46</text><g id="_46" data-name="46"><path class="cls-2" d="M53.5.52a19.52,19.52,0,0,1,8,1,18.25,18.25,0,0,1,9,8c1.49,2.6.79,2.72,3,8,2.47,5.91,3.48,6,4,9,.16,1,1.07,6.29-2,10-1,1.17-1.88,1.5-8,4s-9,3.68-11,4c-2.72.44-7.23,1.16-12-1-7.13-3.23-9.51-10.51-10-12-.92-2.8-.94-4.93-1-9-.08-5.83-.13-9.32,2-13a17.84,17.84,0,0,1,8-7A22.61,22.61,0,0,1,53.5.52Z"/><path class="cls-3" d="M52.5,7.52a5.9,5.9,0,0,1,1.37,4.22,5.86,5.86,0,0,1-2,4.14,5.49,5.49,0,0,1-4.52.88,7.15,7.15,0,0,1-3.83-2.24,9.47,9.47,0,0,0,4,1.47,5.13,5.13,0,0,0,3.77-.9,5.61,5.61,0,0,0,1.87-3.45A7,7,0,0,0,52.5,7.52Z"/><path class="cls-3" d="M62.5,38.52A6.55,6.55,0,0,0,61.78,33a6.43,6.43,0,0,0-2.08-1.83c-.42-.25-.85-.44-1.27-.64a10.59,10.59,0,0,0-1.34-.46,17.23,17.23,0,0,0-5.74-.44,39.18,39.18,0,0,0-5.85.88,21.6,21.6,0,0,1,5.77-1.66,19.25,19.25,0,0,1,3-.19,13.79,13.79,0,0,1,3,.45,12.83,12.83,0,0,1,1.47.52,11.94,11.94,0,0,1,1.37.74,6.73,6.73,0,0,1,2.24,2.2,5.78,5.78,0,0,1,.8,3A7,7,0,0,1,62.5,38.52Z"/><path class="cls-3" d="M70.5,20.52a11.46,11.46,0,0,1-5.06,2.29,12,12,0,0,1-5.65-.26A10.47,10.47,0,0,1,55,19.47a11.36,11.36,0,0,1-2.53-4.95,15.22,15.22,0,0,0,3.09,4.41,11.2,11.2,0,0,0,4.49,2.67,13.37,13.37,0,0,0,5.24.44A15.34,15.34,0,0,0,70.5,20.52Z"/><path class="cls-3" d="M59.5,21.52A8.07,8.07,0,0,1,60,25.64a8.11,8.11,0,0,1-1.49,3.88c.12-1.4.35-2.69.5-4S59.27,22.91,59.5,21.52Z"/></g></g></g></g></svg>