<svg xmlns="http://www.w3.org/2000/svg" viewBox="0 0 78.76 45.5"><defs><style>.cls-1{isolation:isolate;font-size:13px;font-family:Montserrat-Medium, Montserrat;}.cls-1,.cls-2,.cls-3{fill:#0689ca;}.cls-1,.cls-2{stroke:#82c2ec;stroke-miterlimit:10;}.cls-4{fill:#82c2ec;}</style></defs><title>46-2</title><g id="Слой_2" data-name="Слой 2"><g id="Слой_1-2" data-name="Слой 1"><g id="_46-2" data-name="46-2"><text class="cls-1" transform="translate(0.51 37.69)">46</text><g id="_46" data-name="46"><path class="cls-2" d="M54,.52a19.54,19.54,0,0,1,8,1,18.29,18.29,0,0,1,9,8c1.49,2.6.78,2.72,3,8,2.47,5.91,3.48,6,4,9,.16,1,1.07,6.29-2,10-1,1.17-1.89,1.5-8,4s-9,3.68-11,4c-2.73.44-7.24,1.16-12-1-7.13-3.23-9.52-10.51-10-12-.92-2.8-.95-4.93-1-9-.08-5.83-.13-9.32,2-13a17.79,17.79,0,0,1,8-7A22.59,22.59,0,0,1,54,.52Z"/><path class="cls-3" d="M53,7.52a6.46,6.46,0,0,1,1,4,6,6,0,0,1-2,4c-2,1.52-5.38,1.24-8-1"/><path class="cls-4" d="M53,7.52a5.85,5.85,0,0,1,1.36,4.22,5.81,5.81,0,0,1-2,4.14,5.49,5.49,0,0,1-4.52.88A7.15,7.15,0,0,1,44,14.52,9.43,9.43,0,0,0,48,16a5.15,5.15,0,0,0,3.78-.9,5.65,5.65,0,0,0,1.86-3.45A7,7,0,0,0,53,7.52Z"/><path class="cls-3" d="M63,38.52a6.72,6.72,0,0,0,0-5,6.65,6.65,0,0,0-3-3c-5.07-2.91-12.72-.43-14,0"/><path class="cls-4" d="M63,38.52A6.55,6.55,0,0,0,62.28,33a6.23,6.23,0,0,0-2.08-1.83c-.41-.25-.85-.44-1.26-.64a10.21,10.21,0,0,0-1.35-.46,17.45,17.45,0,0,0-5.74-.45,40.63,40.63,0,0,0-5.84.89,21.53,21.53,0,0,1,5.76-1.66,19.25,19.25,0,0,1,3-.19,13.79,13.79,0,0,1,3,.45,12.83,12.83,0,0,1,1.47.52,12.69,12.69,0,0,1,1.36.74,6.64,6.64,0,0,1,2.24,2.2,5.7,5.7,0,0,1,.81,3A7.12,7.12,0,0,1,63,38.52Z"/><path class="cls-3" d="M71,20.52a13,13,0,0,1-6,2,11.73,11.73,0,0,1-6-1,12.07,12.07,0,0,1-6-7"/><path class="cls-4" d="M71,20.52a11.54,11.54,0,0,1-5.07,2.29,12,12,0,0,1-5.65-.26,10.58,10.58,0,0,1-4.76-3.08A11.23,11.23,0,0,1,53,14.52a15,15,0,0,0,3.09,4.41,11.2,11.2,0,0,0,4.49,2.67,13.36,13.36,0,0,0,5.24.44A15.4,15.4,0,0,0,71,20.52Z"/><path class="cls-3" d="M60,21.52a16.62,16.62,0,0,1-1,8"/><path class="cls-4" d="M60,21.52a8.17,8.17,0,0,1,.48,4.12A8,8,0,0,1,59,29.52c.11-1.4.34-2.69.49-4S59.78,22.91,60,21.52Z"/></g></g></g></g></svg>