<svg xmlns="http://www.w3.org/2000/svg" viewBox="0 0 73.17 42.1"><defs><style>.cls-1{isolation:isolate;font-size:13px;fill:#cfcece;font-family:Montserrat-Medium, Montserrat;}.cls-2{letter-spacing:-0.05em;}.cls-3{fill:none;stroke:#82c2ec;stroke-miterlimit:10;}.cls-4{fill:#82c2ec;}</style></defs><title>47-1 (2)</title><g id="Слой_2" data-name="Слой 2"><g id="Слой_1-2" data-name="Слой 1"><g id="_47-1" data-name="47-1"><text class="cls-1" transform="translate(0 38.27)"><tspan class="cls-2">4</tspan><tspan x="8.09" y="0">7</tspan></text><g id="_47" data-name="47"><path class="cls-3" d="M31.5,11.1c2-3.71,5-5.37,8-7s9.08-5,16-3a16.57,16.57,0,0,1,7,4c1.2,1.16,1.77,2.11,4,6,3.19,5.57,4.79,8.36,5,9,.49,1.5,2.36,7.17,0,12-2,4-8.64,5.68-22,9a9.48,9.48,0,0,1-6,0c-3.46-1.37-5.2-5.23-6-7-1.35-3-.66-3.49-2-6-1.89-3.55-3.68-3.34-5-6C28.2,17.48,31.1,11.85,31.5,11.1Z"/><path class="cls-4" d="M49.5,5.1a6.34,6.34,0,0,1,1.42,4.19,6,6,0,0,1-.54,2.26,5.75,5.75,0,0,1-1.45,1.87,6.3,6.3,0,0,1-4.35,1.39A6.47,6.47,0,0,1,40.5,13.1a8.06,8.06,0,0,0,4.08.93,6.28,6.28,0,0,0,3.71-1.38,5.25,5.25,0,0,0,1.85-3.43A7.74,7.74,0,0,0,49.5,5.1Z"/><path class="cls-4" d="M56.5,36.1a9.12,9.12,0,0,0,1.43-6.4,8,8,0,0,0-1.17-3A12.37,12.37,0,0,0,54.5,24.1a7.1,7.1,0,0,1,4.07,9.09A6.77,6.77,0,0,1,56.5,36.1Z"/><path class="cls-4" d="M49.5,13.1a9.3,9.3,0,0,1,4.91,5.12,9,9,0,0,1,0,7.26,7.85,7.85,0,0,1-6,4.11,10.11,10.11,0,0,1-7-1.49,11.57,11.57,0,0,0,6.82.74A7.48,7.48,0,0,0,53.53,25a8.84,8.84,0,0,0,.16-6.56A10.31,10.31,0,0,0,49.5,13.1Z"/><path class="cls-4" d="M64.5,18.1a6.13,6.13,0,0,1-10,3,8.45,8.45,0,0,0,5.54.35A9.17,9.17,0,0,0,64.5,18.1Z"/></g></g></g></g></svg>