<svg xmlns="http://www.w3.org/2000/svg" viewBox="0 0 73.67 42.19"><defs><style>.cls-1{isolation:isolate;font-size:13px;font-family:Montserrat-Medium, Montserrat;}.cls-1,.cls-3,.cls-4{fill:#0689ca;}.cls-1,.cls-3{stroke:#82c2ec;stroke-miterlimit:10;}.cls-2{letter-spacing:-0.05em;}.cls-5{fill:#82c2ec;}</style></defs><title>47-1</title><g id="Слой_2" data-name="Слой 2"><g id="Слой_1-2" data-name="Слой 1"><g id="_47-1" data-name="47-1"><text class="cls-1" transform="translate(0.51 38.27)"><tspan class="cls-2">4</tspan><tspan x="8.09" y="0">7</tspan></text><g id="_47" data-name="47"><path class="cls-3" d="M32,11.1c2-3.71,5-5.37,8-7s9.08-5,16-3a16.63,16.63,0,0,1,7,4c1.19,1.16,1.77,2.11,4,6,3.19,5.57,4.79,8.36,5,9,.49,1.5,2.36,7.17,0,12-2,4-8.65,5.68-22,9a9.48,9.48,0,0,1-6,0c-3.47-1.37-5.2-5.23-6-7-1.35-3-.66-3.49-2-6-1.9-3.55-3.68-3.34-5-6C28.71,17.48,31.6,11.85,32,11.1Z"/><path class="cls-4" d="M50,5.1a6.35,6.35,0,0,1,0,7c-1.85,2.52-5.91,3.2-9,1"/><path class="cls-5" d="M50,5.1a6.33,6.33,0,0,1,1.41,4.19,6,6,0,0,1-.53,2.26,5.75,5.75,0,0,1-1.45,1.87,6.34,6.34,0,0,1-4.36,1.39A6.44,6.44,0,0,1,41,13.1a8,8,0,0,0,4.07.93,6.29,6.29,0,0,0,3.72-1.38,5.29,5.29,0,0,0,1.85-3.43A7.84,7.84,0,0,0,50,5.1Z"/><path class="cls-4" d="M57,36.1a8,8,0,0,0,2-6,8.17,8.17,0,0,0-4-6"/><path class="cls-5" d="M57,36.1a9.17,9.17,0,0,0,1.43-6.4,8.23,8.23,0,0,0-1.18-3A12,12,0,0,0,55,24.1a7,7,0,0,1,2.88,2.1,7,7,0,0,1,1.19,7A6.77,6.77,0,0,1,57,36.1Z"/><path class="cls-4" d="M50,13.1a10,10,0,0,1,4,4c1.28,2.42,1.92,6.21,0,9-2.24,3.24-7.42,4.4-12,2"/><path class="cls-5" d="M50,13.1a9.3,9.3,0,0,1,4.91,5.12,9,9,0,0,1,0,7.26,7.81,7.81,0,0,1-6,4.11,10.34,10.34,0,0,1-3.64-.12A10.49,10.49,0,0,1,42,28.1a11.53,11.53,0,0,0,6.81.74A7.48,7.48,0,0,0,54,25a8.89,8.89,0,0,0,.16-6.56A10.36,10.36,0,0,0,50,13.1Z"/><path class="cls-4" d="M65,18.1a7.34,7.34,0,0,1-5,4,7,7,0,0,1-5-1"/><path class="cls-5" d="M65,18.1a6,6,0,0,1-1.51,2.64,6.16,6.16,0,0,1-2.66,1.66A6,6,0,0,1,55,21.1a8.44,8.44,0,0,0,5.54.35A9.21,9.21,0,0,0,65,18.1Z"/></g></g></g></g></svg>