<svg xmlns="http://www.w3.org/2000/svg" viewBox="0 0 67.44 41.61"><defs><style>.cls-1{isolation:isolate;font-size:13px;fill:#cfcece;font-family:Montserrat-Medium, Montserrat;}.cls-2{letter-spacing:0.01em;}.cls-3{fill:none;stroke:#82c2ec;stroke-miterlimit:10;}.cls-4{fill:#82c2ec;}</style></defs><title>48-1 (2)</title><g id="Слой_2" data-name="Слой 2"><g id="Слой_1-2" data-name="Слой 1"><g id="_48-1" data-name="48-1"><text class="cls-1" transform="translate(0 31.89)"><tspan class="cls-2">4</tspan><tspan x="8.83" y="0">8</tspan></text><g id="_48" data-name="48"><path class="cls-3" d="M29.5,21.72a22.27,22.27,0,0,1-1-8,13.92,13.92,0,0,1,3-7c5.1-6.54,16.39-8,24-4,1.8.95,5.75,3,7,7,.76,2.42-.08,3.64,1,7,1,3.17,2.24,3.55,3,6,1.3,4.2-.66,8.29-1,9-3.53,7.38-13.63,8.51-18,9-3.82.43-12.06,1.36-15-3a14.65,14.65,0,0,1-2-8,19.26,19.26,0,0,0,0-4A19.36,19.36,0,0,0,29.5,21.72Z"/><path class="cls-4" d="M44.5,6.72a13.94,13.94,0,0,0,.26,7.59A7.28,7.28,0,0,0,45.61,16c.35.52.76,1,1.15,1.56.79,1,1.56,2.1,2.32,3.17s1.48,2.16,2.17,3.28c.35.56.68,1.13,1,1.73a5,5,0,0,1,.64,2A7.45,7.45,0,0,1,52,31.62a12.61,12.61,0,0,1-2.45,3.1,15,15,0,0,0,2-3.31,6.91,6.91,0,0,0,.61-3.64,10.09,10.09,0,0,0-1.67-3.3c-.7-1.09-1.44-2.16-2.19-3.22s-1.5-2.13-2.26-3.18c-.37-.54-.76-1.07-1.12-1.64A6.61,6.61,0,0,1,44,14.55a11.23,11.23,0,0,1-.42-4A14.76,14.76,0,0,1,44.5,6.72Z"/><path class="cls-4" d="M59.5,16.72a6.47,6.47,0,0,1-1.76,2.78,6.86,6.86,0,0,1-2.94,1.65,6.75,6.75,0,0,1-6.3-1.43,11.6,11.6,0,0,0,3,.74,8.36,8.36,0,0,0,3-.27A9.54,9.54,0,0,0,59.5,16.72Z"/><path class="cls-4" d="M39.5,23.72a14.41,14.41,0,0,0,4.7-.14,12.69,12.69,0,0,0,4.3-1.86,6.21,6.21,0,0,1-4.09,2.84A6.51,6.51,0,0,1,39.5,23.72Z"/></g></g></g></g></svg>