<svg xmlns="http://www.w3.org/2000/svg" viewBox="0 0 67.95 41.61"><defs><style>.cls-1{isolation:isolate;font-size:13px;font-family:Montserrat-Medium, Montserrat;}.cls-1,.cls-3,.cls-4{fill:#0689ca;}.cls-1,.cls-3{stroke:#82c2ec;stroke-miterlimit:10;}.cls-2{letter-spacing:0.01em;}.cls-5{fill:#82c2ec;}</style></defs><title>48-1</title><g id="Слой_2" data-name="Слой 2"><g id="Слой_1-2" data-name="Слой 1"><g id="_48-1" data-name="48-1"><text class="cls-1" transform="translate(0.51 31.89)"><tspan class="cls-2">4</tspan><tspan x="8.83" y="0">8</tspan></text><g id="_48" data-name="48"><path class="cls-3" d="M30,21.72a22,22,0,0,1-1-8,13.74,13.74,0,0,1,3-7c5.09-6.54,16.39-8,24-4,1.8.95,5.74,3,7,7,.76,2.42-.08,3.64,1,7,1,3.17,2.23,3.55,3,6,1.3,4.2-.66,8.29-1,9-3.54,7.38-13.63,8.51-18,9-3.83.43-12.07,1.36-15-3a14.56,14.56,0,0,1-2-8,20,20,0,0,0,0-4A20.73,20.73,0,0,0,30,21.72Z"/><path class="cls-4" d="M45,6.72a12.46,12.46,0,0,0,0,8c.56,1.53,1.11,1.9,4,6,3.68,5.24,3.92,6.25,4,7,.11,1.19,0,3.7-3,7"/><path class="cls-5" d="M45,6.72a13.85,13.85,0,0,0,.26,7.59A7.25,7.25,0,0,0,46.11,16c.36.52.76,1,1.16,1.56.79,1,1.56,2.1,2.31,3.17s1.49,2.16,2.18,3.28c.34.56.68,1.13,1,1.73a5,5,0,0,1,.65,2,7.45,7.45,0,0,1-.93,3.93A12.61,12.61,0,0,1,50,34.72a14.6,14.6,0,0,0,2-3.31,6.81,6.81,0,0,0,.61-3.64A10.05,10.05,0,0,0,51,24.47c-.7-1.09-1.44-2.16-2.19-3.22s-1.5-2.13-2.26-3.18c-.38-.54-.76-1.07-1.13-1.64a7.21,7.21,0,0,1-.84-1.88,11.22,11.22,0,0,1-.41-4A14.37,14.37,0,0,1,45,6.72Z"/><path class="cls-4" d="M60,16.72a8,8,0,0,1-5,4,7.84,7.84,0,0,1-6-1"/><path class="cls-5" d="M60,16.72a6.66,6.66,0,0,1-1.76,2.78,6.9,6.9,0,0,1-3,1.65A6.74,6.74,0,0,1,49,19.72a11.63,11.63,0,0,0,3,.74,8.32,8.32,0,0,0,3-.27A9.53,9.53,0,0,0,60,16.72Z"/><path class="cls-4" d="M40,23.72a8.73,8.73,0,0,0,6,0,8.49,8.49,0,0,0,3-2"/><path class="cls-5" d="M40,23.72a14.42,14.42,0,0,0,4.7-.14A12.86,12.86,0,0,0,49,21.72a6.26,6.26,0,0,1-4.09,2.84A6.51,6.51,0,0,1,40,23.72Z"/></g></g></g></g></svg>