<?xml version="1.0" encoding="utf-8"?>
<!-- Generator: Adobe Illustrator 21.1.0, SVG Export Plug-In . SVG Version: 6.00 Build 0)  -->
<svg version="1.1" id="Layer_1" xmlns="http://www.w3.org/2000/svg" xmlns:xlink="http://www.w3.org/1999/xlink" x="0px" y="0px"
	 viewBox="0 0 168.6 174.7" style="enable-background:new 0 0 168.6 174.7;" xml:space="preserve">
<style type="text/css">
	.st0{fill:#81C3EC;}
</style>
<path class="st0" d="M161.3,102.7c3.4-4.2,5.3-9,5.3-13.8c0-14.3-11.1-23.9-27.5-23.9h-23.4c1.1-6.1,1.7-11.8,1.7-16.8
	c0-28-7.6-42.3-22.6-42.3c-5,0-10,0.3-16.4,4.3c-2.9,1.6-5,4.5-6,8.6l-4.8,25.9c-3.3,8.3-10.4,17-21.3,26.1c-0.2,0-0.4-0.1-0.6-0.1
	H9.8c-4.3,0-7.8,3.5-7.8,7.8v74c0,4.3,3.5,7.8,7.8,7.8h35.8c0.9,0,1.8-0.2,2.6-0.5c1.4,0.5,3.5,1.3,6.4,2.9
	c4.8,2.4,12.1,6.1,20.6,6.1h46.9c14.2,0,24.3-11.2,24.8-21.6c6.1-4.1,9.9-10.8,9.9-18c0-1.7-0.2-3.4-0.5-5c4.1-4.3,6.4-9.4,6.4-14.6
	C162.7,107.3,162.2,104.9,161.3,102.7z M17.6,86.4h20.2v58.3H17.6V86.4z M146.8,95.1c-1.7,1.3-2.8,3.3-3,5.4
	c-0.2,2.1,0.4,4.3,1.8,5.9c0.9,1.1,1.4,2.6,1.4,3.1c0,1.6-1.7,3.9-4.3,5.8c-3.1,2.3-4.1,6.4-2.4,9.8c0.5,1,0.8,2.5,0.8,4
	c0,2.6-1.9,5-5.1,6.1c-4,1.5-6.2,5.4-4.8,9.4c0.1,0.5,0,1,0,1.6c0,2.4-3.6,6.9-9.2,6.9H75.1c-4.4,0-8.7-2-13.3-4.3
	c-3.1-1.7-5.8-2.9-8.4-3.8v-60c14.9-11.8,24.6-23.8,29-35.5c0.2-0.4,0.3-0.9,0.4-1.3L87.5,23c2.4-1.3,4.1-1.5,7.3-1.5
	c3.3,0,6.9,8.3,6.9,26.6c0,6.3-1.2,14.2-3.4,22.6c-0.6,2.3-0.1,4.8,1.4,6.7c1.5,1.9,3.8,3,6.2,3h33.1c5.4,0,11.9,1.4,11.9,8.3
	C151,90.3,149.7,92.9,146.8,95.1z"/>
</svg>
