<?xml version="1.0" encoding="utf-8"?>
<!-- Generator: Adobe Illustrator 21.1.0, SVG Export Plug-In . SVG Version: 6.00 Build 0)  -->
<svg version="1.1" id="Layer_1" xmlns="http://www.w3.org/2000/svg" xmlns:xlink="http://www.w3.org/1999/xlink" x="0px" y="0px"
	 viewBox="0 0 168.6 174.7" style="enable-background:new 0 0 168.6 174.7;" xml:space="preserve">
<style type="text/css">
	.st0{fill:#81C3EC;}
	.st1{fill:#0089CB;}
</style>
<g>
	<path class="st0" d="M61.5,167.3c-0.8,0-1.8-0.2-2.9-0.6c-20.8-8.8-18.5-46.8-17.7-55.2c-5.6-4.9-27.2-25.8-27.2-54
		c0-32.5,23.1-50,44.8-50c10.9,0,19,4.1,24,7.5c1.1,0.7,2.5,0.7,3.6,0c4.9-3.4,13.1-7.5,24-7.5c21.7,0,44.8,17.5,44.8,50
		c0,28.2-21.6,49.1-27.2,54c0.8,8.5,3.2,46.4-17.7,55.2c-2.7,1.2-4.6,0.5-5.7-0.2c-3.2-2.1-3.2-7.2-3.2-14.1c0-8.2,0-18.5-5.3-23.8
		c-2.6-2.6-6.4-3.9-11.5-3.9c-5.1,0-8.8,1.3-11.5,3.9c-5.4,5.4-5.3,15.6-5.3,23.8c0,6.9,0,12-3.2,14.1
		C63.7,166.9,62.7,167.3,61.5,167.3z M84.3,118.6c6.7,0,11.9,1.9,15.7,5.7c7.1,7.1,7.1,19.2,7.1,28.1c0,3.1,0,7.2,0.5,8.8
		c0,0,0,0,0.1,0c15.7-6.7,15.4-38.8,13.9-50.6c-0.1-1,0.3-2,1.1-2.7c0.3-0.2,26.2-21.6,26.2-50.4c0-28.9-19.5-44-38.8-44
		c-9.3,0-16.3,3.5-20.6,6.4c-3.1,2.2-7.2,2.2-10.3,0c-4.2-2.9-11.3-6.4-20.6-6.4c-19.3,0-38.8,15.1-38.8,44
		c0,28.8,26,50.2,26.2,50.4c0.8,0.6,1.2,1.7,1.1,2.7c-0.1,0.4-5,42.6,13.9,50.6c0,0,0,0,0.1,0c0.5-1.6,0.5-5.7,0.5-8.8
		c0-8.8,0-21,7.1-28.1C72.4,120.5,77.6,118.6,84.3,118.6z"/>
	<path class="st1" d="M89.8,105c-11.2,0.7-19.4-4.2-21.2-8c-1.7-3.7-13.4-2.5-10.9,4c2.5,6.5,11.4,17.2,17.4,18.7
		c6,1.5,30.6,2.5,33.3,1.5s0.2-14.2-3.2-15.2C101.7,105,97.7,104.5,89.8,105z"/>
</g>
</svg>
