<?xml version="1.0" encoding="utf-8"?>
<!-- Generator: Adobe Illustrator 21.1.0, SVG Export Plug-In . SVG Version: 6.00 Build 0)  -->
<svg version="1.1" id="Layer_1" xmlns="http://www.w3.org/2000/svg" xmlns:xlink="http://www.w3.org/1999/xlink" x="0px" y="0px"
	 viewBox="0 0 168.6 174.7" style="enable-background:new 0 0 168.6 174.7;" xml:space="preserve">
<style type="text/css">
	.st0{fill:#52779A;}
	.st1{fill:#FFFFFF;}
</style>
<g>
	<circle class="st0" cx="84.3" cy="87.3" r="81.8"/>
	<path class="st1" d="M134.6,60c0.7-2.4,0-4.1-3.4-4.1h-11.5c-2.9,0-4.4,1.5-5.1,3.2c0,0-5.9,14.4-14.1,23.7
		c-2.7,2.7-3.9,3.7-5.4,3.7c-0.7,0-1.7-1-1.7-3.4V60c0-2.9-1-4.1-3.4-4.1H72c-2,0-2.9,1.5-2.9,2.7c0,2.7,4.1,3.4,4.6,11.2v17.1
		c0,3.7-0.7,4.4-2.2,4.4c-3.9,0-13.4-14.4-19-30.7c-1.2-3.4-2.4-4.6-5.4-4.6H35.6c-3.4,0-3.9,1.5-3.9,3.2c0,3.2,3.9,18.3,18.3,38.3
		c9.5,13.7,22.9,21.2,35.1,21.2c7.3,0,8.3-1.7,8.3-4.4v-10.2c0-3.4,0.7-3.9,2.9-3.9c1.7,0,4.6,1,11.5,7.6c7.8,7.8,9,11.2,13.4,11.2
		h11.5c3.4,0,4.9-1.7,3.9-4.9c-1-3.2-4.9-8-9.8-13.4c-2.7-3.2-6.8-6.6-8-8.3c-1.7-2.2-1.2-3.2,0-5.1C119.3,86.6,133.2,66.8,134.6,60
		z"/>
</g>
</svg>
