<svg id="Layer_10" data-name="Layer 10" xmlns="http://www.w3.org/2000/svg" xmlns:xlink="http://www.w3.org/1999/xlink" viewBox="0 0 252.93 63.7"><defs><style>.cls-1{fill:url(#linear-gradient);}.cls-2{fill:url(#linear-gradient-2);}.cls-3{fill:url(#linear-gradient-3);}.cls-4{fill:url(#linear-gradient-4);}.cls-5{fill:#fff;}.cls-6{fill:#003865;}</style><linearGradient id="linear-gradient" x1="70.35" y1="577.85" x2="57.41" y2="590.79" gradientUnits="userSpaceOnUse"><stop offset="0" stop-color="#82c3ee"/><stop offset="0.17" stop-color="#7ec1ed"/><stop offset="0.35" stop-color="#71bbe9"/><stop offset="0.54" stop-color="#5db0e3"/><stop offset="0.72" stop-color="#40a2da"/><stop offset="0.91" stop-color="#1b90cf"/><stop offset="1" stop-color="#0585c9"/></linearGradient><linearGradient id="linear-gradient-2" x1="46.4" y1="582.83" x2="55.53" y2="591.96" xlink:href="#linear-gradient"/><linearGradient id="linear-gradient-3" x1="-1935.62" y1="639.47" x2="-1930.06" y2="607.92" gradientTransform="matrix(-1, 0, 0, 1, -1862.51, 0)" gradientUnits="userSpaceOnUse"><stop offset="0" stop-color="#82c3ee"/><stop offset="1" stop-color="#0585c9"/></linearGradient><linearGradient id="linear-gradient-4" x1="57.64" y1="640.47" x2="57.64" y2="595.68" gradientUnits="userSpaceOnUse"><stop offset="0" stop-color="#0585c9"/><stop offset="0.09" stop-color="#1b90cf"/><stop offset="0.28" stop-color="#40a2da"/><stop offset="0.46" stop-color="#5db0e3"/><stop offset="0.65" stop-color="#71bbe9"/><stop offset="0.83" stop-color="#7ec1ed"/><stop offset="1" stop-color="#82c3ee"/></linearGradient></defs><title>LogoKariesyNetRGB</title><path class="cls-1" d="M58,590a12.35,12.35,0,0,0,.52,1.92,12.17,12.17,0,0,0,2-.13,11.34,11.34,0,0,0,9.31-13.06,11.08,11.08,0,0,0-.52-1.92,12.17,12.17,0,0,0-2,.13A11.35,11.35,0,0,0,58,590Z" transform="translate(-33.4 -576.77)"/><path class="cls-2" d="M55,592a38.37,38.37,0,0,0-9.42-6.64.42.42,0,0,1-.16-.63l2.31-3.18a.47.47,0,0,1,.7,0,41.06,41.06,0,0,1,7.15,10A.36.36,0,0,1,55,592Z" transform="translate(-33.4 -576.77)"/><path class="cls-3" d="M81.85,607.79a46.28,46.28,0,0,1-4.48,20.78,47.55,47.55,0,0,1-5.39,9c-1.93,2.51-5.06,4.08-7.88,1.75s-3.3-9.15-8.3-17.62C51.94,615.16,81.62,601.11,81.85,607.79Z" transform="translate(-33.4 -576.77)"/><path class="cls-4" d="M68.76,610.2a8.11,8.11,0,0,1,7.68-1.62c4.35,1.54,5.44,7.66,2.37,16.57a50,50,0,0,0,3-13.16c.11-2.24.11-4.2.11-4.2a12.27,12.27,0,0,0-12.11-12.11c-2.84,0-7.08,1.66-12.12,1.66h0c-5,0-9.29-1.66-12.13-1.66a12.26,12.26,0,0,0-12.1,12.11,46.27,46.27,0,0,0,4.47,20.78,47.59,47.59,0,0,0,5.4,9c1.93,2.51,5.06,4.08,7.88,1.75s3.3-9.15,8.3-17.62C63.34,615.16,66.09,612.35,68.76,610.2Z" transform="translate(-33.4 -576.77)"/><path class="cls-5" d="M51.45,600.15s-4.42-.3-8.63,4.82-3.69,13.37-3.69,13.37-3.54-9.6.28-15.55S51.45,600.15,51.45,600.15Z" transform="translate(-33.4 -576.77)"/><path class="cls-6" d="M106.69,605.93h-3v6.21H101V597.45h2.66v6.21h3.1l4.77-6.21h2.85l-5.57,7.07,6,7.62h-3.13Z" transform="translate(-33.4 -576.77)"/><path class="cls-6" d="M128.48,598.81a5.79,5.79,0,0,1,1.62,4.46v8.87h-2.52V610.2a4.27,4.27,0,0,1-1.9,1.56,7.26,7.26,0,0,1-2.93.54,6.07,6.07,0,0,1-3.94-1.19,3.81,3.81,0,0,1-1.48-3.13,3.88,3.88,0,0,1,1.41-3.12,7,7,0,0,1,4.49-1.17h4.21v-.53a3.41,3.41,0,0,0-1-2.63,4.19,4.19,0,0,0-2.94-.92A8,8,0,0,0,121,600a6.6,6.6,0,0,0-2.1,1.15l-1.11-2a8,8,0,0,1,2.72-1.4,11.45,11.45,0,0,1,3.35-.48A6.63,6.63,0,0,1,128.48,598.81Zm-2.65,10.76a3.9,3.9,0,0,0,1.61-1.92v-2h-4.1c-2.26,0-3.38.76-3.38,2.27a2.05,2.05,0,0,0,.86,1.75,3.94,3.94,0,0,0,2.38.63A4.88,4.88,0,0,0,125.83,609.57Z" transform="translate(-33.4 -576.77)"/><path class="cls-6" d="M147.48,598.26a6.68,6.68,0,0,1,2.64,2.63,8.44,8.44,0,0,1,0,7.82,6.73,6.73,0,0,1-2.64,2.65,7.71,7.71,0,0,1-3.83.94,6.74,6.74,0,0,1-2.89-.61,5.89,5.89,0,0,1-2.23-1.77v7.59h-2.66V597.45h2.55v2.33a5.63,5.63,0,0,1,2.24-1.84,7,7,0,0,1,3-.62A7.71,7.71,0,0,1,147.48,598.26ZM146,609.32a4.63,4.63,0,0,0,1.77-1.82,6,6,0,0,0,0-5.41,4.54,4.54,0,0,0-1.77-1.81,5,5,0,0,0-2.54-.64,4.9,4.9,0,0,0-2.5.65,4.79,4.79,0,0,0-1.78,1.82,5.43,5.43,0,0,0-.65,2.68,5.57,5.57,0,0,0,.64,2.71,4.5,4.5,0,0,0,1.77,1.82,5.18,5.18,0,0,0,5.06,0Z" transform="translate(-33.4 -576.77)"/><path class="cls-6" d="M169.2,597.45v14.69h-2.54V610a5.38,5.38,0,0,1-2.11,1.71,6.6,6.6,0,0,1-2.85.61,6.42,6.42,0,0,1-4.63-1.62,6.3,6.3,0,0,1-1.69-4.78v-8.45H158v8.15a4.54,4.54,0,0,0,1,3.23,3.81,3.81,0,0,0,2.93,1.09,4.41,4.41,0,0,0,3.33-1.27,5,5,0,0,0,1.21-3.61v-7.59Z" transform="translate(-33.4 -576.77)"/><path class="cls-6" d="M186,608.2l1.44,1.72a6.1,6.1,0,0,1-2.45,1.77,8.56,8.56,0,0,1-3.31.61,8.76,8.76,0,0,1-4.13-.95,6.78,6.78,0,0,1-2.78-2.68,7.59,7.59,0,0,1-1-3.88,7.77,7.77,0,0,1,1-3.85,6.89,6.89,0,0,1,2.63-2.67,7.88,7.88,0,0,1,7.41,0,6.72,6.72,0,0,1,2.6,2.53,7.44,7.44,0,0,1,1,3.77l-11.66,2.27a4.48,4.48,0,0,0,1.87,2.35,5.77,5.77,0,0,0,3.17.84A5.45,5.45,0,0,0,186,608.2Zm-7.33-8A4.42,4.42,0,0,0,177,602a5.61,5.61,0,0,0-.61,2.68v.27l9.39-1.77a4.48,4.48,0,0,0-1.61-2.6,4.59,4.59,0,0,0-3-1A4.8,4.8,0,0,0,178.69,600.2Z" transform="translate(-33.4 -576.77)"/><path class="cls-6" d="M195.65,611.33a7,7,0,0,1-2.75-2.67,8,8,0,0,1,0-7.73,7,7,0,0,1,2.75-2.66,8.25,8.25,0,0,1,4-.95,7.65,7.65,0,0,1,3.56.8,5.67,5.67,0,0,1,2.42,2.33l-2,1.3a4.55,4.55,0,0,0-1.72-1.58,4.9,4.9,0,0,0-2.27-.53,5.18,5.18,0,0,0-2.59.64,4.48,4.48,0,0,0-1.8,1.81,6,6,0,0,0,0,5.43,4.51,4.51,0,0,0,1.8,1.82,5.29,5.29,0,0,0,2.59.64,4.9,4.9,0,0,0,2.27-.53,4.55,4.55,0,0,0,1.72-1.58l2,1.27a5.83,5.83,0,0,1-2.42,2.35,7.65,7.65,0,0,1-3.56.81A8.15,8.15,0,0,1,195.65,611.33Z" transform="translate(-33.4 -576.77)"/><path class="cls-6" d="M223.37,597.45v12.69q0,3.86-1.8,5.69a7.24,7.24,0,0,1-5.41,1.85,12.25,12.25,0,0,1-3.75-.57,7.61,7.61,0,0,1-2.92-1.62l1.3-2a7,7,0,0,0,2.34,1.38,8.26,8.26,0,0,0,2.9.5,4.68,4.68,0,0,0,3.54-1.2,5.24,5.24,0,0,0,1.14-3.7v-1.08a5.31,5.31,0,0,1-2.08,1.62,6.7,6.7,0,0,1-2.77.57,6.46,6.46,0,0,1-4.63-1.61,6.29,6.29,0,0,1-1.69-4.76v-7.71h2.66v7.4a4.49,4.49,0,0,0,1,3.2,3.81,3.81,0,0,0,2.93,1.09,4.38,4.38,0,0,0,3.33-1.27,5,5,0,0,0,1.22-3.6v-6.82Z" transform="translate(-33.4 -576.77)"/><path class="cls-6" d="M228.64,611.76a1.82,1.82,0,0,1-.55-1.37,1.8,1.8,0,0,1,.55-1.34,1.85,1.85,0,0,1,1.33-.54,1.79,1.79,0,0,1,1.31.52,2,2,0,0,1,0,2.73,1.76,1.76,0,0,1-1.29.54A1.85,1.85,0,0,1,228.64,611.76Z" transform="translate(-33.4 -576.77)"/><path class="cls-6" d="M236.49,597.45h2.66v6.24h8.37v-6.24h2.66v14.69h-2.66V606h-8.37v6.15h-2.66Z" transform="translate(-33.4 -576.77)"/><path class="cls-6" d="M267,608.2l1.44,1.72a6.1,6.1,0,0,1-2.45,1.77,8.56,8.56,0,0,1-3.31.61,8.76,8.76,0,0,1-4.13-.95,6.86,6.86,0,0,1-2.79-2.68,7.69,7.69,0,0,1-1-3.88,7.77,7.77,0,0,1,1-3.85,6.82,6.82,0,0,1,2.63-2.67,7.88,7.88,0,0,1,7.41,0,6.72,6.72,0,0,1,2.6,2.53,7.44,7.44,0,0,1,1,3.77l-11.66,2.27a4.48,4.48,0,0,0,1.87,2.35,5.77,5.77,0,0,0,3.17.84A5.47,5.47,0,0,0,267,608.2Zm-7.33-8A4.35,4.35,0,0,0,258,602a5.61,5.61,0,0,0-.61,2.68v.27l9.39-1.77a4.48,4.48,0,0,0-1.61-2.6,4.61,4.61,0,0,0-3-1A4.8,4.8,0,0,0,259.7,600.2Z" transform="translate(-33.4 -576.77)"/><path class="cls-6" d="M285.1,599.78h-5.38v12.36h-2.66V599.78h-5.37v-2.33H285.1Z" transform="translate(-33.4 -576.77)"/><path class="cls-6" d="M102.73,632.45a4.49,4.49,0,0,1-1.8-1.71,5,5,0,0,1,0-4.94,4.58,4.58,0,0,1,1.79-1.7,5.45,5.45,0,0,1,2.62-.61,5.06,5.06,0,0,1,2.42.56,3.65,3.65,0,0,1,1.57,1.61l-1.68,1a2.65,2.65,0,0,0-2.33-1.29,2.77,2.77,0,0,0-2,.79,3.24,3.24,0,0,0,0,4.25,2.77,2.77,0,0,0,2,.8,2.8,2.8,0,0,0,1.32-.32,2.7,2.7,0,0,0,1-1l1.68,1a3.82,3.82,0,0,1-1.59,1.62,4.89,4.89,0,0,1-2.4.57A5.46,5.46,0,0,1,102.73,632.45Z" transform="translate(-33.4 -576.77)"/><path class="cls-6" d="M120.57,629h-7.34a2.54,2.54,0,0,0,1,1.63,3.25,3.25,0,0,0,2,.61,3.41,3.41,0,0,0,2.54-1l1.17,1.35a4,4,0,0,1-1.59,1.14,6,6,0,0,1-2.17.38,5.73,5.73,0,0,1-2.71-.61,4.42,4.42,0,0,1-1.82-1.71,5.17,5.17,0,0,1,0-4.93,4.42,4.42,0,0,1,1.72-1.71,5,5,0,0,1,2.49-.61,4.93,4.93,0,0,1,2.44.6,4.43,4.43,0,0,1,1.68,1.7,5.17,5.17,0,0,1,.6,2.53C120.6,628.47,120.59,628.69,120.57,629Zm-6.47-3.11a2.63,2.63,0,0,0-.88,1.66h5.3a2.56,2.56,0,0,0-2.64-2.28A2.66,2.66,0,0,0,114.1,625.86Z" transform="translate(-33.4 -576.77)"/><path class="cls-6" d="M130.87,625.45H127.6v7.49h-2.19v-7.49h-3.29V623.6h8.75Z" transform="translate(-33.4 -576.77)"/><path class="cls-6" d="M140.89,627.48a2.82,2.82,0,0,1,1,2.27,2.87,2.87,0,0,1-1.05,2.38,4.56,4.56,0,0,1-3,.83l-4.37,0V623.6h2.19v3.06h2.5A4.13,4.13,0,0,1,140.89,627.48Zm-1.78,3.46a1.48,1.48,0,0,0,.51-1.22,1.35,1.35,0,0,0-.49-1.16,2.58,2.58,0,0,0-1.49-.38l-2,0v3.17l2,0A2.2,2.2,0,0,0,139.11,630.94Z" transform="translate(-33.4 -576.77)"/><path class="cls-6" d="M152.69,632.45a4.49,4.49,0,0,1-1.8-1.71,5,5,0,0,1,0-4.94,4.58,4.58,0,0,1,1.79-1.7,5.45,5.45,0,0,1,2.62-.61,5.06,5.06,0,0,1,2.42.56,3.65,3.65,0,0,1,1.57,1.61l-1.68,1a2.65,2.65,0,0,0-2.33-1.29,2.77,2.77,0,0,0-2,.79,3.24,3.24,0,0,0,0,4.25,2.77,2.77,0,0,0,2,.8,2.8,2.8,0,0,0,1.32-.32,2.7,2.7,0,0,0,1-1l1.68,1a3.82,3.82,0,0,1-1.59,1.62,4.89,4.89,0,0,1-2.4.57A5.46,5.46,0,0,1,152.69,632.45Z" transform="translate(-33.4 -576.77)"/><path class="cls-6" d="M169.42,625.45h-3.28v7.49H164v-7.49h-3.29V623.6h8.75Z" transform="translate(-33.4 -576.77)"/><path class="cls-6" d="M173,632.45a4.48,4.48,0,0,1-1.77-1.71,5.09,5.09,0,0,1,0-4.94,4.52,4.52,0,0,1,1.77-1.7,5.7,5.7,0,0,1,5.13,0,4.55,4.55,0,0,1,1.78,1.7,5.09,5.09,0,0,1,0,4.94,4.51,4.51,0,0,1-1.78,1.71,5.7,5.7,0,0,1-5.13,0Zm4.55-2.07a3.23,3.23,0,0,0,0-4.23,2.88,2.88,0,0,0-4,0,3.26,3.26,0,0,0,0,4.23,2.85,2.85,0,0,0,4,0Z" transform="translate(-33.4 -576.77)"/><path class="cls-6" d="M192.51,632.94v-6.19L189.36,632h-.94l-3.1-5.23v6.21h-2V623.6h2.29l3.32,5.84,3.48-5.84h2.05l0,9.34Z" transform="translate(-33.4 -576.77)"/><path class="cls-6" d="M205.05,624.48a3.81,3.81,0,0,1,1.09,3v5.48h-2.06V631.8a2.57,2.57,0,0,1-1.15.94,4.55,4.55,0,0,1-1.79.32,4.41,4.41,0,0,1-1.84-.36,2.85,2.85,0,0,1-1.21-1,2.52,2.52,0,0,1-.43-1.45,2.48,2.48,0,0,1,.93-2,4.65,4.65,0,0,1,2.95-.76H204v-.14a1.94,1.94,0,0,0-.59-1.51,2.58,2.58,0,0,0-1.74-.52,4.84,4.84,0,0,0-1.55.25,3.77,3.77,0,0,0-1.29.68l-.85-1.59a5.26,5.26,0,0,1,1.76-.86,7.83,7.83,0,0,1,2.19-.3A4.55,4.55,0,0,1,205.05,624.48Zm-2,6.61A2.08,2.08,0,0,0,204,630v-1.09H201.7c-1.26,0-1.89.42-1.89,1.24a1.13,1.13,0,0,0,.47,1,2.19,2.19,0,0,0,1.31.35A2.81,2.81,0,0,0,203.05,631.09Z" transform="translate(-33.4 -576.77)"/><path class="cls-6" d="M216.88,625.45h-3.27v7.49h-2.19v-7.49h-3.29V623.6h8.75Z" transform="translate(-33.4 -576.77)"/><path class="cls-6" d="M220.81,632.45a4.51,4.51,0,0,1-1.78-1.71,5.09,5.09,0,0,1,0-4.94,4.55,4.55,0,0,1,1.78-1.7,5.68,5.68,0,0,1,5.12,0,4.55,4.55,0,0,1,1.78,1.7,5.09,5.09,0,0,1,0,4.94,4.51,4.51,0,0,1-1.78,1.71,5.68,5.68,0,0,1-5.12,0Zm4.55-2.07a3.26,3.26,0,0,0,0-4.23,2.67,2.67,0,0,0-2-.8,2.62,2.62,0,0,0-2,.8,3.26,3.26,0,0,0,0,4.23,2.63,2.63,0,0,0,2,.81A2.68,2.68,0,0,0,225.36,630.38Z" transform="translate(-33.4 -576.77)"/><path class="cls-6" d="M239.62,623.6v9.34h-2.18v-7.49h-3.5l-.09,1.85a21,21,0,0,1-.34,3.11,4.52,4.52,0,0,1-.86,2,2,2,0,0,1-1.65.72,4.72,4.72,0,0,1-1.21-.19l.1-1.84a1.91,1.91,0,0,0,.42.06,1.09,1.09,0,0,0,1-.54,3.08,3.08,0,0,0,.43-1.27c.06-.5.12-1.21.17-2.13l.15-3.6Z" transform="translate(-33.4 -576.77)"/><path class="cls-6" d="M244.8,632.45a4.51,4.51,0,0,1-1.78-1.71,5.16,5.16,0,0,1,0-4.94,4.55,4.55,0,0,1,1.78-1.7,5.28,5.28,0,0,1,2.55-.61,5.34,5.34,0,0,1,2.58.61,4.46,4.46,0,0,1,1.77,1.7,5.09,5.09,0,0,1,0,4.94,4.42,4.42,0,0,1-1.77,1.71,5.34,5.34,0,0,1-2.58.61A5.28,5.28,0,0,1,244.8,632.45Zm4.55-2.07a3.23,3.23,0,0,0,0-4.23,2.67,2.67,0,0,0-2-.8,2.62,2.62,0,0,0-2,.8,3.26,3.26,0,0,0,0,4.23,2.63,2.63,0,0,0,2,.81A2.68,2.68,0,0,0,249.35,630.38Z" transform="translate(-33.4 -576.77)"/><path class="cls-6" d="M262.3,625.45h-5v7.49h-2.19V623.6h7.18Z" transform="translate(-33.4 -576.77)"/><path class="cls-6" d="M264.53,623.6h2.19v6.15l5.16-6.15h2v9.34h-2.18v-6.16l-5.15,6.16h-2Z" transform="translate(-33.4 -576.77)"/><path class="cls-6" d="M277,623.6h2.19v6.15l5.16-6.15h2v9.34h-2.18v-6.16L279,632.94h-2Zm2.37-1.76a2.46,2.46,0,0,1-.76-1.92h1.45a1.4,1.4,0,0,0,.4,1,1.46,1.46,0,0,0,1.05.37,1.5,1.5,0,0,0,1.06-.37,1.33,1.33,0,0,0,.41-1h1.49a2.47,2.47,0,0,1-.77,1.92,3.93,3.93,0,0,1-4.33,0Z" transform="translate(-33.4 -576.77)"/></svg>