<svg id="Layer_12" data-name="Layer 12" xmlns="http://www.w3.org/2000/svg" xmlns:xlink="http://www.w3.org/1999/xlink" viewBox="0 0 252.93 63.7"><defs><style>.cls-1{fill:url(#linear-gradient);}.cls-2{fill:url(#linear-gradient-2);}.cls-3{fill:url(#linear-gradient-3);}.cls-4{fill:url(#linear-gradient-4);}.cls-5{fill:#8dc8e8;}.cls-6{fill:#fff;}</style><linearGradient id="linear-gradient" x1="802.3" y1="577.85" x2="789.36" y2="590.79" gradientUnits="userSpaceOnUse"><stop offset="0" stop-color="#fff"/><stop offset="0.18" stop-color="#fbfdfe"/><stop offset="0.37" stop-color="#eef7fc"/><stop offset="0.56" stop-color="#daedf7"/><stop offset="0.76" stop-color="#bddff2"/><stop offset="0.95" stop-color="#98cdea"/><stop offset="1" stop-color="#8dc8e8"/></linearGradient><linearGradient id="linear-gradient-2" x1="778.35" y1="582.83" x2="787.48" y2="591.96" xlink:href="#linear-gradient"/><linearGradient id="linear-gradient-3" x1="-2667.57" y1="639.47" x2="-2662.01" y2="607.92" gradientTransform="matrix(-1, 0, 0, 1, -1862.51, 0)" gradientUnits="userSpaceOnUse"><stop offset="0" stop-color="#fff"/><stop offset="1" stop-color="#8dc8e8"/></linearGradient><linearGradient id="linear-gradient-4" x1="789.59" y1="640.47" x2="789.59" y2="595.68" gradientUnits="userSpaceOnUse"><stop offset="0" stop-color="#8dc8e8"/><stop offset="0.05" stop-color="#98cdea"/><stop offset="0.24" stop-color="#bddff2"/><stop offset="0.44" stop-color="#daedf7"/><stop offset="0.63" stop-color="#eef7fc"/><stop offset="0.82" stop-color="#fbfdfe"/><stop offset="1" stop-color="#fff"/></linearGradient></defs><title>logo-footer</title><path class="cls-1" d="M789.92,590a11.36,11.36,0,0,0,.53,1.92,12.12,12.12,0,0,0,2-.13,11.35,11.35,0,0,0,9.32-13.06,12.07,12.07,0,0,0-.53-1.92,12.24,12.24,0,0,0-2,.13A11.35,11.35,0,0,0,789.92,590Z" transform="translate(-765.35 -576.77)"/><path class="cls-2" d="M787,592a38.37,38.37,0,0,0-9.42-6.64.42.42,0,0,1-.16-.63l2.31-3.18a.47.47,0,0,1,.7,0,41.06,41.06,0,0,1,7.15,10A.36.36,0,0,1,787,592Z" transform="translate(-765.35 -576.77)"/><path class="cls-3" d="M813.8,607.79a46.27,46.27,0,0,1-4.47,20.78,47.59,47.59,0,0,1-5.4,9c-1.93,2.51-5.06,4.08-7.88,1.75s-3.3-9.15-8.3-17.62C783.89,615.16,813.57,601.11,813.8,607.79Z" transform="translate(-765.35 -576.77)"/><path class="cls-4" d="M800.72,610.2a8.09,8.09,0,0,1,7.67-1.62c4.35,1.54,5.45,7.66,2.37,16.57a50,50,0,0,0,3-13.16c.11-2.24.11-4.2.11-4.2a12.26,12.26,0,0,0-12.11-12.11c-2.84,0-7.07,1.66-12.12,1.66h0c-5.05,0-9.28-1.66-12.12-1.66a12.26,12.26,0,0,0-12.11,12.11,46.15,46.15,0,0,0,4.48,20.78,47.55,47.55,0,0,0,5.39,9c1.93,2.51,5.06,4.08,7.88,1.75s3.3-9.15,8.3-17.62C795.29,615.16,798,612.35,800.72,610.2Z" transform="translate(-765.35 -576.77)"/><path class="cls-5" d="M783.4,600.15s-4.41-.3-8.63,4.82-3.69,13.37-3.69,13.37-3.54-9.6.28-15.55S783.4,600.15,783.4,600.15Z" transform="translate(-765.35 -576.77)"/><path class="cls-6" d="M838.64,605.93h-3v6.21h-2.66V597.45h2.66v6.21h3.1l4.77-6.21h2.85l-5.57,7.07,6,7.62h-3.13Z" transform="translate(-765.35 -576.77)"/><path class="cls-6" d="M860.43,598.81a5.79,5.79,0,0,1,1.62,4.46v8.87h-2.52V610.2a4.27,4.27,0,0,1-1.9,1.56,7.25,7.25,0,0,1-2.92.54,6.08,6.08,0,0,1-4-1.19,3.81,3.81,0,0,1-1.48-3.13,3.88,3.88,0,0,1,1.41-3.12,7,7,0,0,1,4.49-1.17h4.21v-.53a3.38,3.38,0,0,0-1-2.63,4.19,4.19,0,0,0-2.94-.92,7.92,7.92,0,0,0-2.54.43,6.65,6.65,0,0,0-2.11,1.15l-1.11-2a8,8,0,0,1,2.72-1.4,11.45,11.45,0,0,1,3.35-.48A6.63,6.63,0,0,1,860.43,598.81Zm-2.65,10.76a3.85,3.85,0,0,0,1.61-1.92v-2h-4.1c-2.25,0-3.38.76-3.38,2.27a2.05,2.05,0,0,0,.86,1.75,3.94,3.94,0,0,0,2.38.63A4.86,4.86,0,0,0,857.78,609.57Z" transform="translate(-765.35 -576.77)"/><path class="cls-6" d="M879.43,598.26a6.68,6.68,0,0,1,2.64,2.63,8.44,8.44,0,0,1,0,7.82,6.73,6.73,0,0,1-2.64,2.65,7.7,7.7,0,0,1-3.82.94,6.76,6.76,0,0,1-2.9-.61,5.89,5.89,0,0,1-2.23-1.77v7.59h-2.66V597.45h2.55v2.33a5.63,5.63,0,0,1,2.24-1.84,7.07,7.07,0,0,1,3-.62A7.7,7.7,0,0,1,879.43,598.26Zm-1.51,11.06a4.63,4.63,0,0,0,1.77-1.82,6,6,0,0,0,0-5.41,4.54,4.54,0,0,0-1.77-1.81,5,5,0,0,0-2.54-.64,4.9,4.9,0,0,0-2.5.65,4.79,4.79,0,0,0-1.78,1.82,5.43,5.43,0,0,0-.65,2.68,5.57,5.57,0,0,0,.64,2.71,4.56,4.56,0,0,0,1.77,1.82,5.18,5.18,0,0,0,5.06,0Z" transform="translate(-765.35 -576.77)"/><path class="cls-6" d="M901.16,597.45v14.69h-2.55V610a5.38,5.38,0,0,1-2.11,1.71,6.6,6.6,0,0,1-2.85.61,6.42,6.42,0,0,1-4.63-1.62,6.34,6.34,0,0,1-1.69-4.78v-8.45H890v8.15a4.54,4.54,0,0,0,1,3.23,3.81,3.81,0,0,0,2.93,1.09,4.39,4.39,0,0,0,3.33-1.27A5,5,0,0,0,898.5,605v-7.59Z" transform="translate(-765.35 -576.77)"/><path class="cls-6" d="M918,608.2l1.44,1.72a6,6,0,0,1-2.45,1.77,8.56,8.56,0,0,1-3.31.61,8.76,8.76,0,0,1-4.13-.95,6.78,6.78,0,0,1-2.78-2.68,7.59,7.59,0,0,1-1-3.88,7.77,7.77,0,0,1,1-3.85,6.89,6.89,0,0,1,2.63-2.67,7.88,7.88,0,0,1,7.41,0,6.82,6.82,0,0,1,2.61,2.53,7.43,7.43,0,0,1,1,3.77l-11.66,2.27a4.48,4.48,0,0,0,1.87,2.35,5.79,5.79,0,0,0,3.17.84A5.45,5.45,0,0,0,918,608.2Zm-7.33-8a4.42,4.42,0,0,0-1.7,1.78,5.61,5.61,0,0,0-.61,2.68v.27l9.39-1.77a4.46,4.46,0,0,0-1.6-2.6,4.64,4.64,0,0,0-3-1A4.8,4.8,0,0,0,910.64,600.2Z" transform="translate(-765.35 -576.77)"/><path class="cls-6" d="M927.6,611.33a7,7,0,0,1-2.75-2.67,8,8,0,0,1,0-7.73,7,7,0,0,1,2.75-2.66,8.25,8.25,0,0,1,4-.95,7.65,7.65,0,0,1,3.56.8,5.67,5.67,0,0,1,2.42,2.33l-2,1.3a4.55,4.55,0,0,0-1.72-1.58,4.9,4.9,0,0,0-2.27-.53,5.21,5.21,0,0,0-2.59.64,4.48,4.48,0,0,0-1.8,1.81,6,6,0,0,0,0,5.43,4.51,4.51,0,0,0,1.8,1.82,5.32,5.32,0,0,0,2.59.64,4.9,4.9,0,0,0,2.27-.53,4.55,4.55,0,0,0,1.72-1.58l2,1.27a5.83,5.83,0,0,1-2.42,2.35,7.65,7.65,0,0,1-3.56.81A8.15,8.15,0,0,1,927.6,611.33Z" transform="translate(-765.35 -576.77)"/><path class="cls-6" d="M955.32,597.45v12.69q0,3.86-1.8,5.69a7.23,7.23,0,0,1-5.4,1.85,12.32,12.32,0,0,1-3.76-.57,7.68,7.68,0,0,1-2.92-1.62l1.3-2a7,7,0,0,0,2.34,1.38,8.26,8.26,0,0,0,2.9.5,4.66,4.66,0,0,0,3.54-1.2,5.24,5.24,0,0,0,1.14-3.7v-1.08a5.31,5.31,0,0,1-2.08,1.62,6.7,6.7,0,0,1-2.77.57,6.42,6.42,0,0,1-4.62-1.61,6.26,6.26,0,0,1-1.7-4.76v-7.71h2.67v7.4a4.54,4.54,0,0,0,1,3.2,3.82,3.82,0,0,0,2.94,1.09,4.37,4.37,0,0,0,3.32-1.27,5,5,0,0,0,1.22-3.6v-6.82Z" transform="translate(-765.35 -576.77)"/><path class="cls-6" d="M960.6,611.76a1.82,1.82,0,0,1-.56-1.37,1.8,1.8,0,0,1,.56-1.34,1.83,1.83,0,0,1,1.33-.54,1.77,1.77,0,0,1,1.3.52,2,2,0,0,1,0,2.73,1.75,1.75,0,0,1-1.28.54A1.83,1.83,0,0,1,960.6,611.76Z" transform="translate(-765.35 -576.77)"/><path class="cls-6" d="M968.44,597.45h2.66v6.24h8.37v-6.24h2.66v14.69h-2.66V606H971.1v6.15h-2.66Z" transform="translate(-765.35 -576.77)"/><path class="cls-6" d="M999,608.2l1.44,1.72a6.1,6.1,0,0,1-2.45,1.77,8.56,8.56,0,0,1-3.31.61,8.76,8.76,0,0,1-4.13-.95,6.78,6.78,0,0,1-2.78-2.68,7.59,7.59,0,0,1-1-3.88,7.77,7.77,0,0,1,1-3.85,6.89,6.89,0,0,1,2.63-2.67,7.88,7.88,0,0,1,7.41,0,6.82,6.82,0,0,1,2.61,2.53,7.53,7.53,0,0,1,1,3.77l-11.66,2.27a4.48,4.48,0,0,0,1.87,2.35,5.77,5.77,0,0,0,3.17.84A5.45,5.45,0,0,0,999,608.2Zm-7.33-8A4.42,4.42,0,0,0,990,602a5.61,5.61,0,0,0-.61,2.68v.27l9.39-1.77a4.48,4.48,0,0,0-1.61-2.6,4.59,4.59,0,0,0-3-1A4.8,4.8,0,0,0,991.65,600.2Z" transform="translate(-765.35 -576.77)"/><path class="cls-6" d="M1017.05,599.78h-5.38v12.36H1009V599.78h-5.37v-2.33h13.41Z" transform="translate(-765.35 -576.77)"/><path class="cls-6" d="M834.68,632.45a4.49,4.49,0,0,1-1.8-1.71,5,5,0,0,1,0-4.94,4.58,4.58,0,0,1,1.79-1.7,5.48,5.48,0,0,1,2.62-.61,5.06,5.06,0,0,1,2.42.56,3.59,3.59,0,0,1,1.57,1.61l-1.68,1a2.65,2.65,0,0,0-2.33-1.29,2.77,2.77,0,0,0-2,.79,3.24,3.24,0,0,0,0,4.25,2.77,2.77,0,0,0,2,.8,2.8,2.8,0,0,0,1.32-.32,2.7,2.7,0,0,0,1-1l1.68,1a3.77,3.77,0,0,1-1.59,1.62,4.89,4.89,0,0,1-2.4.57A5.46,5.46,0,0,1,834.68,632.45Z" transform="translate(-765.35 -576.77)"/><path class="cls-6" d="M852.52,629h-7.34a2.54,2.54,0,0,0,1,1.63,3.25,3.25,0,0,0,2,.61,3.41,3.41,0,0,0,2.54-1l1.17,1.35a4,4,0,0,1-1.59,1.14,6,6,0,0,1-2.17.38,5.73,5.73,0,0,1-2.71-.61,4.4,4.4,0,0,1-1.81-1.71,4.76,4.76,0,0,1-.64-2.47,4.84,4.84,0,0,1,.62-2.46,4.42,4.42,0,0,1,1.72-1.71,5,5,0,0,1,2.49-.61,4.93,4.93,0,0,1,2.44.6,4.29,4.29,0,0,1,1.68,1.7,5.17,5.17,0,0,1,.6,2.53C852.55,628.47,852.54,628.69,852.52,629Zm-6.47-3.11a2.63,2.63,0,0,0-.88,1.66h5.3a2.56,2.56,0,0,0-.86-1.65,2.6,2.6,0,0,0-1.78-.63A2.68,2.68,0,0,0,846.05,625.86Z" transform="translate(-765.35 -576.77)"/><path class="cls-6" d="M862.82,625.45h-3.27v7.49h-2.19v-7.49h-3.29V623.6h8.75Z" transform="translate(-765.35 -576.77)"/><path class="cls-6" d="M872.84,627.48a2.79,2.79,0,0,1,.95,2.27,2.87,2.87,0,0,1-1,2.38,4.55,4.55,0,0,1-3,.83l-4.38,0V623.6h2.19v3.06h2.5A4.13,4.13,0,0,1,872.84,627.48Zm-1.78,3.46a1.48,1.48,0,0,0,.51-1.22,1.35,1.35,0,0,0-.49-1.16,2.58,2.58,0,0,0-1.49-.38l-2,0v3.17l2,0A2.2,2.2,0,0,0,871.06,630.94Z" transform="translate(-765.35 -576.77)"/><path class="cls-6" d="M884.64,632.45a4.49,4.49,0,0,1-1.8-1.71,5,5,0,0,1,0-4.94,4.58,4.58,0,0,1,1.79-1.7,5.48,5.48,0,0,1,2.62-.61,5.06,5.06,0,0,1,2.42.56,3.59,3.59,0,0,1,1.57,1.61l-1.68,1a2.65,2.65,0,0,0-2.33-1.29,2.77,2.77,0,0,0-2,.79,3.24,3.24,0,0,0,0,4.25,2.77,2.77,0,0,0,2,.8,2.8,2.8,0,0,0,1.32-.32,2.7,2.7,0,0,0,1-1l1.68,1a3.77,3.77,0,0,1-1.59,1.62,4.89,4.89,0,0,1-2.4.57A5.46,5.46,0,0,1,884.64,632.45Z" transform="translate(-765.35 -576.77)"/><path class="cls-6" d="M901.37,625.45H898.1v7.49h-2.19v-7.49h-3.29V623.6h8.75Z" transform="translate(-765.35 -576.77)"/><path class="cls-6" d="M905,632.45a4.51,4.51,0,0,1-1.78-1.71,5.09,5.09,0,0,1,0-4.94,4.55,4.55,0,0,1,1.78-1.7,5.68,5.68,0,0,1,5.12,0,4.55,4.55,0,0,1,1.78,1.7,5.09,5.09,0,0,1,0,4.94,4.51,4.51,0,0,1-1.78,1.71,5.68,5.68,0,0,1-5.12,0Zm4.55-2.07a3.26,3.26,0,0,0,0-4.23,2.67,2.67,0,0,0-2-.8,2.61,2.61,0,0,0-2,.8,3.26,3.26,0,0,0,0,4.23,2.62,2.62,0,0,0,2,.81A2.68,2.68,0,0,0,909.51,630.38Z" transform="translate(-765.35 -576.77)"/><path class="cls-6" d="M924.46,632.94v-6.19L921.31,632h-.94l-3.1-5.23v6.21h-2V623.6h2.29l3.32,5.84,3.49-5.84h2l0,9.34Z" transform="translate(-765.35 -576.77)"/><path class="cls-6" d="M937,624.48a3.81,3.81,0,0,1,1.09,3v5.48H936V631.8a2.57,2.57,0,0,1-1.15.94,4.55,4.55,0,0,1-1.79.32,4.41,4.41,0,0,1-1.84-.36,2.85,2.85,0,0,1-1.21-1,2.52,2.52,0,0,1-.43-1.45,2.48,2.48,0,0,1,.93-2,4.65,4.65,0,0,1,3-.76h2.42v-.14a1.94,1.94,0,0,0-.59-1.51,2.58,2.58,0,0,0-1.74-.52,4.88,4.88,0,0,0-1.55.25,3.72,3.72,0,0,0-1.28.68l-.86-1.59a5.22,5.22,0,0,1,1.77-.86,7.71,7.71,0,0,1,2.18-.3A4.55,4.55,0,0,1,937,624.48Zm-2,6.61a2.1,2.1,0,0,0,.9-1.07v-1.09h-2.26c-1.26,0-1.89.42-1.89,1.24a1.13,1.13,0,0,0,.47,1,2.22,2.22,0,0,0,1.32.35A2.86,2.86,0,0,0,935,631.09Z" transform="translate(-765.35 -576.77)"/><path class="cls-6" d="M948.83,625.45h-3.27v7.49h-2.19v-7.49h-3.29V623.6h8.75Z" transform="translate(-765.35 -576.77)"/><path class="cls-6" d="M952.76,632.45a4.51,4.51,0,0,1-1.78-1.71,5.09,5.09,0,0,1,0-4.94,4.55,4.55,0,0,1,1.78-1.7,5.28,5.28,0,0,1,2.55-.61,5.34,5.34,0,0,1,2.58.61,4.52,4.52,0,0,1,1.77,1.7,5.09,5.09,0,0,1,0,4.94,4.48,4.48,0,0,1-1.77,1.71,5.34,5.34,0,0,1-2.58.61A5.28,5.28,0,0,1,952.76,632.45Zm4.55-2.07a3.23,3.23,0,0,0,0-4.23,2.67,2.67,0,0,0-2-.8,2.62,2.62,0,0,0-2,.8,3.26,3.26,0,0,0,0,4.23,2.63,2.63,0,0,0,2,.81A2.68,2.68,0,0,0,957.31,630.38Z" transform="translate(-765.35 -576.77)"/><path class="cls-6" d="M971.57,623.6v9.34h-2.18v-7.49h-3.5l-.09,1.85a21,21,0,0,1-.34,3.11,4.52,4.52,0,0,1-.86,2,2,2,0,0,1-1.65.72,4.72,4.72,0,0,1-1.21-.19l.11-1.84a1.76,1.76,0,0,0,.42.06,1.08,1.08,0,0,0,1-.54,3.08,3.08,0,0,0,.43-1.27c.07-.5.12-1.21.17-2.13l.16-3.6Z" transform="translate(-765.35 -576.77)"/><path class="cls-6" d="M976.75,632.45a4.42,4.42,0,0,1-1.77-1.71,5.09,5.09,0,0,1,0-4.94,4.46,4.46,0,0,1,1.77-1.7,5.7,5.7,0,0,1,5.13,0,4.46,4.46,0,0,1,1.77,1.7,5.09,5.09,0,0,1,0,4.94,4.42,4.42,0,0,1-1.77,1.71,5.7,5.7,0,0,1-5.13,0Zm4.55-2.07a3.23,3.23,0,0,0,0-4.23,2.88,2.88,0,0,0-4,0,3.26,3.26,0,0,0,0,4.23,2.85,2.85,0,0,0,4,0Z" transform="translate(-765.35 -576.77)"/><path class="cls-6" d="M994.25,625.45h-5v7.49h-2.19V623.6h7.18Z" transform="translate(-765.35 -576.77)"/><path class="cls-6" d="M996.48,623.6h2.19v6.15l5.16-6.15h2v9.34h-2.19v-6.16l-5.14,6.16h-2Z" transform="translate(-765.35 -576.77)"/><path class="cls-6" d="M1008.94,623.6h2.19v6.15l5.16-6.15h2v9.34h-2.19v-6.16l-5.15,6.16h-2Zm2.37-1.76a2.5,2.5,0,0,1-.76-1.92H1012a1.4,1.4,0,0,0,.4,1,1.47,1.47,0,0,0,1.06.37,1.49,1.49,0,0,0,1-.37,1.38,1.38,0,0,0,.42-1h1.48a2.47,2.47,0,0,1-.77,1.92,3.93,3.93,0,0,1-4.33,0Z" transform="translate(-765.35 -576.77)"/></svg>