<?xml version="1.0" encoding="utf-8"?>
<!-- Generator: Adobe Illustrator 21.1.0, SVG Export Plug-In . SVG Version: 6.00 Build 0)  -->
<svg version="1.1" id="Layer_1" xmlns="http://www.w3.org/2000/svg" xmlns:xlink="http://www.w3.org/1999/xlink" x="0px" y="0px"
	 viewBox="0 0 168.6 174.7" style="enable-background:new 0 0 168.6 174.7;" xml:space="preserve">
<style type="text/css">
	.st0{fill:#81C3EC;}
	.st1{fill:#0089CB;}
</style>
<g>
	<path class="st0" d="M152.7,122L141.3,11.7c-0.2-1.8-1.6-3.3-3.4-3.6l0,0c-2.5-0.5-5.2-0.8-8.1-0.8c-21.7,0-44.8,17.5-44.8,50
		c0,28.2,21.6,49.1,27.2,54c-0.8,8.5-3.2,46.4,17.7,55.2c1.1,0.5,2,0.6,2.9,0.6c1.2,0,2.1-0.4,2.8-0.8c3.2-2.1,3.2-7.2,3.2-14.1
		c0-8.2,0-18.5,5.3-23.8c1.6-1.6,3.5-2.6,5.9-3.3l0,0l0,0C151.7,125.1,152.9,123.6,152.7,122z M139.9,124.3
		c-7.1,7.1-7.1,19.2-7.1,28.1c0,3.1,0,7.2-0.5,8.8c0,0,0,0-0.1,0c-18.9-8-14-50.2-13.9-50.6c0.1-1-0.3-2-1.1-2.7
		C117,107.6,91,86.2,91,57.4c0-28.9,19.5-44,38.8-44c2,0,3.9,0.2,5.7,0.5l11,106.3C143.9,121.1,141.7,122.4,139.9,124.3z"/>
	<path class="st1" d="M67.7,56.7c-0.1,3.7-1,8.5,3.5,9c4.5,0.5,8,2,10.2,5.5c2.2,3.5,6.7,2.7,9,0c2.2-2.7,1.2-8,3.5-8.5s6-5,3-7.7
		c-3-2.7-6.5-4.5-7.5-6.5s-5.2-2.5-6.6-3c-1.4-0.5-1.1-2.7-2.9-3c-1.7-0.2-6-0.5-8.7,3.2C68.5,49.5,67.8,54.5,67.7,56.7z"/>
	<path class="st0" d="M18.6,125.2L18.6,125.2L18.6,125.2c2.4,0.6,4.4,1.7,5.9,3.3c5.4,5.4,5.3,15.6,5.3,23.8c0,6.9,0,12,3.2,14.1
		c0.7,0.4,1.6,0.8,2.8,0.8c0.8,0,1.8-0.2,2.9-0.6c20.8-8.8,18.5-46.8,17.7-55.2c5.6-4.9,27.2-25.8,27.2-54c0-32.5-23.1-50-44.8-50
		c-2.9,0-5.6,0.3-8.1,0.8l0,0c-1.8,0.3-3.2,1.7-3.4,3.6L15.9,122C15.7,123.6,16.9,125.1,18.6,125.2z M22.1,120.1l11-106.3
		c1.8-0.3,3.7-0.5,5.7-0.5c19.3,0,38.8,15.1,38.8,44c0,28.8-26,50.2-26.2,50.4c-0.8,0.6-1.2,1.7-1.1,2.7c0.1,0.4,5,42.6-13.9,50.6
		c0,0,0,0-0.1,0c-0.5-1.6-0.5-5.7-0.5-8.8c0-8.8,0-21-7.1-28.1C26.9,122.4,24.7,121.1,22.1,120.1z"/>
</g>
</svg>
