<?xml version="1.0" encoding="utf-8"?>
<!-- Generator: Adobe Illustrator 21.1.0, SVG Export Plug-In . SVG Version: 6.00 Build 0)  -->
<svg version="1.1" id="Layer_1" xmlns="http://www.w3.org/2000/svg" xmlns:xlink="http://www.w3.org/1999/xlink" x="0px" y="0px"
	 viewBox="0 0 168.6 174.7" style="enable-background:new 0 0 168.6 174.7;" xml:space="preserve">
<style type="text/css">
	.st0{fill:#81C3EC;}
	.st1{fill:#0089CB;}
</style>
<g>
	<g>
		<path class="st0" d="M112.4,166.6c-4.7,0-7-6.8-10.8-18c-5.3-15.7-12.5-37.2-26.9-37.2s-21.6,21.5-26.9,37.2
			c-3.8,11.2-6.1,18-10.8,18c-8.7,0-12.7-12.7-18.7-32c-1-3-1.9-6.2-3-9.5C6.3,97.7-6.1,48,11.1,23.2c6.5-9.4,16.6-14.5,30-15
			c14.6-0.6,26.2,2.5,34.6,9.3c9.4-6.9,20.3-10,32.5-9.3c13.8,0.8,24.1,6.1,30.7,15.7c12.6,18.5,11,52.6-4.8,101.3
			c-1.1,3.3-2.1,6.4-3,9.5C125,153.9,121,166.6,112.4,166.6z M74.7,106.4c18,0,25.9,23.5,31.6,40.6c1.9,5.7,4.6,13.5,6.2,14.6
			c4.9-0.3,9.2-14,13.8-28.5c1-3,2-6.2,3-9.5c15.3-47.1,17.2-79.7,5.5-96.9c-5.7-8.3-14.7-12.9-26.9-13.6
			c-10.9-0.6-20.2,1.9-28.5,7.8c0.3,0.4,0.7,0.7,1,1.1c0.9,1.1,0.8,2.6-0.3,3.5c-1.1,0.9-2.6,0.8-3.5-0.3
			c-7.4-8.7-19.2-12.8-35.2-12.1C29.6,13.6,20.8,18,15.2,26C3.4,43.1,5.1,77.8,20,123.6c1.1,3.3,2.1,6.5,3,9.5
			c4.6,14.5,8.9,28.2,13.8,28.5c1.6-1.1,4.3-8.9,6.2-14.6C48.8,129.8,56.7,106.4,74.7,106.4z"/>
		<path class="st0" d="M74.7,151.1c-11.9,0-21.1-23.4-22.1-26.1c-0.5-1.3,0.2-2.7,1.5-3.2c1.3-0.5,2.7,0.2,3.2,1.5
			c3.3,8.8,11,22.8,17.4,22.8c6.4,0,14.1-14,17.4-22.8c0.5-1.3,1.9-1.9,3.2-1.5c1.3,0.5,1.9,1.9,1.5,3.2
			C95.8,127.7,86.6,151.1,74.7,151.1z"/>
	</g>
	<g>
		<path class="st1" d="M122.9,107.7c-8.6,0-16.7-3.4-22.8-9.5c-6.1-6.1-9.5-14.2-9.5-22.8s3.4-16.7,9.5-22.8
			c6.1-6.1,14.2-9.5,22.8-9.5c8.6,0,16.7,3.4,22.8,9.5c12.6,12.6,12.6,33.1,0,45.7l0,0C139.6,104.4,131.5,107.7,122.9,107.7z
			 M122.9,48.2c-7.3,0-14.1,2.8-19.3,8c-5.2,5.2-8,12-8,19.3s2.8,14.1,8,19.3c5.2,5.2,12,8,19.3,8c7.3,0,14.1-2.8,19.3-8
			c10.6-10.6,10.6-28,0-38.6C137,51,130.2,48.2,122.9,48.2z"/>
		<path class="st1" d="M163.7,118.7c-0.6,0-1.3-0.2-1.8-0.7l-19.7-19.7c-1-1-1-2.6,0-3.5s2.6-1,3.5,0l19.7,19.7c1,1,1,2.6,0,3.5
			C165,118.5,164.3,118.7,163.7,118.7z"/>
	</g>
</g>
</svg>
