<?xml version="1.0" encoding="iso-8859-1"?>
<!-- Generator: Adobe Illustrator 21.1.0, SVG Export Plug-In . SVG Version: 6.00 Build 0)  -->
<svg version="1.1" id="&#x421;&#x43B;&#x43E;&#x439;_1"
	 xmlns="http://www.w3.org/2000/svg" xmlns:xlink="http://www.w3.org/1999/xlink" x="0px" y="0px" viewBox="0 0 266.164 282.493"
	 style="enable-background:new 0 0 266.164 282.493;" xml:space="preserve">
<g fill="#317ddb">
	<path d="M132.479,159.276c-3.631,2.334-7.942,4.037-10.782,7.103c-18.432,19.9-36.364,40.263-54.82,60.14
		c-13.557,14.6-27.69,28.666-41.499,43.033c-2.299,2.392-4.061,5.312-6.431,7.619c-1.969,1.916-4.258,3.981-6.779,4.741
		c-3.975,1.198-8.015,0.518-10.655-3.377c-2.305-3.4-1.821-8.932,1.469-12.525c3.925-4.286,8.268-8.185,12.265-12.407
		c9.369-9.895,18.681-19.846,27.943-29.843c15.267-16.479,30.423-33.063,45.738-49.497c5.563-5.969,11.517-11.572,17.169-17.461
		c9.096-9.479,9.017-21.728,0.025-31.179c-17.661-18.564-35.299-37.149-52.905-55.765C36.753,52.451,20.346,34.992,3.91,17.56
		C-0.994,12.36-1.307,6.77,3.095,2.616c4.241-4.002,10.787-3.04,15.442,1.976C34.586,21.883,50.796,39.026,66.8,56.359
		c17.838,19.318,35.657,38.657,53.209,58.233c8.731,9.737,17.319,9.83,26.001,0.139c14.101-15.74,28.538-31.179,42.835-46.744
		c8.894-9.682,17.713-19.435,26.712-29.018c7.499-7.986,15.249-15.735,22.81-23.664c3.097-3.248,5.839-6.844,9.026-9.995
		c1.956-1.934,4.236-4.043,6.752-4.795c3.984-1.19,8.012-0.44,10.588,3.515c2.293,3.521,1.707,8.916-1.562,12.483
		c-5.284,5.765-10.696,11.412-16.087,17.077c-14.225,14.948-28.513,29.836-42.689,44.83c-15.204,16.08-30.388,32.18-45.423,48.417
		c-7.665,8.278-7.821,20.267-0.14,28.575c10.501,11.359,21.522,22.235,32.124,33.502c8.664,9.207,16.967,18.751,25.566,28.02
		c8.368,9.019,16.895,17.891,25.377,26.804c7.218,7.585,14.591,15.028,21.661,22.748c3.549,3.876,3.352,9.911,0.137,13.242
		c-3.351,3.472-9.612,3.853-13.609,0.113c-5.811-5.435-11.289-11.244-16.692-17.093c-8.568-9.276-16.811-18.854-25.455-28.057
		c-14.36-15.287-29.017-30.294-43.37-45.587c-6.489-6.914-12.644-14.152-18.767-21.398c-3.363-3.981-7.012-7.133-12.563-7.15
		C132.986,160.13,132.733,159.703,132.479,159.276z"/>
</g>
</svg>
