<svg id="Layer_1" data-name="Layer 1" xmlns="http://www.w3.org/2000/svg" viewBox="0 0 124.29 124.02"><defs><style>.cls-1{fill:#0089cb;}</style></defs><title>phone-icon</title><path class="cls-1" d="M119.5,89.91a12.24,12.24,0,0,0-16.8.5l-6,6a2.29,2.29,0,0,1-2.9.3,164.42,164.42,0,0,1-32-32,2.28,2.28,0,0,1,.3-2.9l6-6A12.25,12.25,0,0,0,68.6,39c-5.8-6.6-11.4-13.2-16.7-19.6a12.26,12.26,0,0,0-18.2-.9L26,26.21a21,21,0,0,0-4.2,24.7c19,37.9,47.9,66.7,85.8,85.7a21.38,21.38,0,0,0,24.9-4.1l7.7-7.7a12.66,12.66,0,0,0,3.6-9.3,12.29,12.29,0,0,0-4.5-8.9C132.6,101.31,126,95.71,119.5,89.91Zm15.2,29.6-7.7,7.7a13.87,13.87,0,0,1-16.1,2.7,181.64,181.64,0,0,1-82.4-82.4,14.05,14.05,0,0,1,2.8-16.1l7.7-7.7a4.53,4.53,0,0,1,3.3-1.4h.2a4.45,4.45,0,0,1,3.4,1.8c5.3,6.6,11,13.2,16.9,19.9a4.65,4.65,0,0,1-.2,6.4l-6,6a9.78,9.78,0,0,0-.9,12.9,173.23,173.23,0,0,0,33.4,33.4h0a10,10,0,0,0,12.9-.9l6-6a4.75,4.75,0,0,1,6.4-.2c6.6,5.9,13.3,11.6,19.9,16.9a4.81,4.81,0,0,1,1.8,3.4A5.24,5.24,0,0,1,134.7,119.51Z" transform="translate(-19.52 -14.89)"/></svg>