<?xml version="1.0" encoding="utf-8"?>
<!-- Generator: Adobe Illustrator 21.1.0, SVG Export Plug-In . SVG Version: 6.00 Build 0)  -->
<svg version="1.1" id="Layer_1" xmlns="http://www.w3.org/2000/svg" xmlns:xlink="http://www.w3.org/1999/xlink" x="0px" y="0px"
	 viewBox="0 0 168.6 174.7" style="enable-background:new 0 0 168.6 174.7;" xml:space="preserve">
<style type="text/css">
	.st0{fill:#0089CB;}
</style>
<g>
	<path class="st0" d="M68.2,137.3c-16.9,0-33.9-6.4-46.7-19.3c-25.8-25.8-25.8-67.7,0-93.5c25.8-25.8,67.7-25.8,93.5,0
		c25.8,25.8,25.8,67.7,0,93.5C102.1,130.9,85.2,137.3,68.2,137.3z M68.2,22.8C55.8,22.8,43.4,27.5,34,37
		c-18.9,18.9-18.9,49.7,0,68.6c18.9,18.9,49.7,18.9,68.6,0c18.9-18.9,18.9-49.7,0-68.6C93.1,27.5,80.6,22.8,68.2,22.8z"/>
	<path class="st0" d="M157.6,169.5c-2.3,0-4.5-0.9-6.2-2.6L102.5,118c-3.4-3.4-3.4-9,0-12.5c3.4-3.4,9-3.4,12.5,0l48.9,48.9
		c3.4,3.4,3.4,9,0,12.5C162.2,168.6,159.9,169.5,157.6,169.5z"/>
</g>
</svg>
