<?xml version="1.0" encoding="utf-8"?>
<!-- Generator: Adobe Illustrator 21.1.0, SVG Export Plug-In . SVG Version: 6.00 Build 0)  -->
<svg version="1.1" id="Layer_1" xmlns="http://www.w3.org/2000/svg" xmlns:xlink="http://www.w3.org/1999/xlink" x="0px" y="0px"
	 viewBox="0 0 168.6 174.7" style="enable-background:new 0 0 168.6 174.7;" xml:space="preserve">
<style type="text/css">
	.st0{fill:#FBBA49;}
</style>
<path class="st0" d="M87.8,10.5l17.1,52.7c0.5,1.5,1.9,2.5,3.5,2.5h55.5c3.6,0,5,4.6,2.2,6.7L121.2,105c-1.3,0.9-1.8,2.6-1.3,4.1
	l17.1,52.7c1.1,3.4-2.8,6.2-5.7,4.1l-44.9-32.6c-1.3-0.9-3-0.9-4.3,0L37.3,166c-2.9,2.1-6.8-0.7-5.7-4.1l17.1-52.7
	c0.5-1.5,0-3.2-1.3-4.1L2.6,72.4c-2.9-2.1-1.4-6.7,2.2-6.7h55.5c1.6,0,3-1,3.5-2.5l17.1-52.7C81.9,7.1,86.7,7.1,87.8,10.5z"/>
</svg>
