<?xml version="1.0" encoding="utf-8"?>
<!-- Generator: Adobe Illustrator 21.1.0, SVG Export Plug-In . SVG Version: 6.00 Build 0)  -->
<svg version="1.1" id="Layer_1" xmlns="http://www.w3.org/2000/svg" xmlns:xlink="http://www.w3.org/1999/xlink" x="0px" y="0px"
	 viewBox="0 0 168.6 174.7" style="enable-background:new 0 0 168.6 174.7;" xml:space="preserve">
<style type="text/css">
	.st0{fill:#0089CB;}
</style>
<g>
	<path class="st0" d="M101.5,115.3c-4.9-4.3-12.3-4.1-16.8,0.5l-6,6c-0.8,0.8-2.1,0.9-2.9,0.3c-12.1-9.1-22.8-19.9-32-32
		c-0.6-0.9-0.5-2.1,0.3-2.9l6-6c4.6-4.6,4.8-12,0.5-16.8c-5.8-6.6-11.4-13.2-16.7-19.6c-2.2-2.7-5.5-4.4-8.9-4.5
		c-3.4-0.2-6.8,1.1-9.3,3.6l-7.7,7.7C1.3,58-0.4,68,3.8,76.3c19,37.9,47.9,66.7,85.8,85.7c3,1.5,6.3,2.3,9.6,2.3
		c5.6,0,11.1-2.2,15.3-6.4l7.7-7.7c2.4-2.4,3.7-5.8,3.6-9.3c-0.2-3.5-1.8-6.7-4.5-8.9C114.6,126.7,108,121.1,101.5,115.3z
		 M116.7,144.9l-7.7,7.7c-4.3,4.3-10.7,5.4-16.1,2.7c-36.4-18.3-64.1-46-82.4-82.4C7.9,67.5,9,61.1,13.3,56.8l7.7-7.7
		c0.9-0.9,2-1.4,3.3-1.4c0.1,0,0.2,0,0.2,0c1.4,0.1,2.6,0.7,3.4,1.8c5.3,6.6,11,13.2,16.9,19.9c1.6,1.9,1.6,4.7-0.2,6.4l-6,6
		c-3.5,3.5-3.9,9-0.9,12.9c9.6,12.6,20.8,23.9,33.4,33.4h0c3.9,2.9,9.4,2.5,12.9-0.9l6-6c1.7-1.7,4.5-1.8,6.4-0.2
		c6.6,5.9,13.3,11.6,19.9,16.9c1.1,0.9,1.7,2.1,1.8,3.4C118.1,142.7,117.6,143.9,116.7,144.9z"/>
	<path class="st0" d="M153.8,10.4H77.2c-7.3,0-13.3,6-13.3,13.3v53.5c0,7.3,6,13.3,13.3,13.3h32.6V106c0,1.5,0.9,2.9,2.3,3.5
		c0.5,0.2,1,0.3,1.5,0.3c1,0,2-0.4,2.7-1.1l18.2-18.2h19.3c7.3,0,13.3-6,13.3-13.3V23.7C167.1,16.3,161.2,10.4,153.8,10.4z
		 M159.5,77.2c0,3.1-2.6,5.7-5.7,5.7h-20.9c-1,0-2,0.4-2.7,1.1l-12.8,12.8V86.7c0-2.1-1.7-3.8-3.8-3.8H77.2c-3.1,0-5.7-2.6-5.7-5.7
		V23.7c0-3.1,2.6-5.7,5.7-5.7h76.7c3.1,0,5.7,2.6,5.7,5.7V77.2z"/>
	<path class="st0" d="M106.8,53.1c1.8-1.6,3-2.9,3.7-3.7c1-1.3,1.8-2.6,2.2-3.7c0.5-1.2,0.7-2.4,0.7-3.8c0-2.3-0.8-4.3-2.5-5.8
		c-1.7-1.6-3.9-2.3-6.8-2.3c-2.6,0-4.8,0.7-6.6,2c-1.8,1.3-2.8,3.6-3.1,6.7l5.6,0.6c0.1-1.6,0.5-2.8,1.2-3.5s1.6-1.1,2.8-1.1
		c1.2,0,2.1,0.3,2.8,1c0.7,0.7,1,1.6,1,2.9c0,1.1-0.4,2.3-1.2,3.4c-0.6,0.8-2.1,2.4-4.7,4.8c-3.1,2.9-5.3,5.3-6.3,7
		c-1.1,1.8-1.7,3.6-1.9,5.6h19.7v-5.2h-11.2c0.3-0.5,0.7-1,1.1-1.6C103.9,55.8,105,54.7,106.8,53.1z"/>
	<path class="st0" d="M133.6,33.7h-4.7l-12.7,18.6v4.9h12v5.9h5.4v-5.9h3.6v-4.9h-3.6V33.7z M128.2,52.3h-6.7l6.7-10V52.3z"/>
</g>
</svg>
