<?xml version="1.0" encoding="utf-8"?>
<!-- Generator: Adobe Illustrator 21.1.0, SVG Export Plug-In . SVG Version: 6.00 Build 0)  -->
<svg version="1.1" id="Layer_1" xmlns="http://www.w3.org/2000/svg" xmlns:xlink="http://www.w3.org/1999/xlink" x="0px" y="0px"
	 viewBox="0 0 168.6 174.7" style="enable-background:new 0 0 168.6 174.7;" xml:space="preserve">
<style type="text/css">
	.st0{fill:#81C3EC; transition: .3s;}
	.active{fill:#0089CB;}
</style>
<g>
	<path class="st0" d="M152.7,58.3c0-31.5-22.4-48.5-43.4-48.5c-10.5,0-18.4,3.9-23.2,7.2c-1,0.7-2.4,0.7-3.4,0
		c-4.8-3.3-12.7-7.2-23.2-7.2c-21,0-43.4,17-43.4,48.5c0,27.3,21,47.5,26.4,52.3c-0.8,8.2-3.1,45,17.1,53.5c1.1,0.4,2,0.6,2.8,0.6
		c1.2,0,2.1-0.4,2.7-0.8c3.1-2.1,3.1-6.9,3.1-13.7c0-8,0-17.9,5.2-23.1c2.5-2.5,6.2-3.8,11.1-3.8c4.9,0,8.6,1.2,11.1,3.8
		c5.2,5.2,5.2,15.1,5.2,23.1c0,6.7,0,11.6,3.1,13.7c1,0.7,2.9,1.3,5.5,0.2c20.2-8.6,17.9-45.3,17.1-53.5
		C131.7,105.9,152.7,85.7,152.7,58.3z M121.4,107.2c-0.8,0.6-1.2,1.6-1.1,2.6c1.4,11.5,1.7,42.6-13.5,49.1c0,0,0,0,0,0
		c-0.5-1.5-0.5-5.5-0.5-8.5c0-8.6,0-20.3-6.9-27.2c-3.6-3.6-8.8-5.5-15.2-5.5c-6.5,0-11.6,1.8-15.2,5.5c-6.9,6.9-6.9,18.6-6.9,27.2
		c0,3,0,7-0.5,8.5c0,0,0,0,0,0c-18.3-7.8-13.5-48.7-13.5-49.1c0.1-1-0.3-2-1.1-2.6c-0.3-0.2-25.4-21-25.4-48.8
		c0-28,18.9-42.7,37.6-42.7c9,0,15.8,3.4,19.9,6.2c3,2.1,7,2.1,10,0c4.1-2.8,10.9-6.2,19.9-6.2c18.7,0,37.6,14.7,37.6,42.7
		C146.9,86.2,121.7,107,121.4,107.2z"/>
	<path class="st0" d="M109.3,31.4c-5,0-8.8,1.9-11,3.4c-4.1,2.8-8.9,4.4-13.9,4.4s-9.8-1.5-13.9-4.4c-2.3-1.6-6-3.4-11-3.4
		c-10.9,0-21.9,8.3-21.9,26.9c0,6.5,2.1,13.4,6.3,20.5c0.6,1.1,1.1,2.3,1.7,3.4c5.4,10.6,11.4,22.5,10,37.6c-0.1,1.3,0.8,2.4,2,2.6
		c1.3,0.2,2.5-0.6,2.7-1.9c4.7-20.4,14.1-33.6,24-33.6c9.9,0,19.4,13.2,24,33.6c0.3,1.1,1.2,1.9,2.4,1.9c0.1,0,0.3,0,0.4,0
		c1.3-0.2,2.1-1.3,2-2.6c-1.4-15.1,4.6-27.1,10-37.6c0.6-1.2,1.2-2.3,1.7-3.4c4.2-7.1,6.3-14,6.3-20.5
		C131.1,39.7,120.2,31.4,109.3,31.4z M120.6,76.5c0,0.1-0.1,0.1-0.1,0.2c-0.6,1.1-1.2,2.3-1.7,3.5c-3.9,7.7-8.1,16-9.9,25.9
		C103,91.1,94.1,82.3,84.3,82.3c-9.8,0-18.7,8.8-24.6,23.7c-1.8-9.8-6-18.2-9.9-25.9c-0.6-1.2-1.2-2.3-1.7-3.5
		c0-0.1-0.1-0.1-0.1-0.2c-3.8-6.4-5.7-12.5-5.7-18.1c0-15.3,8.6-22.1,17-22.1c3.8,0,6.6,1.4,8.3,2.6c4.9,3.4,10.7,5.2,16.7,5.2
		c6,0,11.7-1.8,16.7-5.2c1.7-1.2,4.5-2.6,8.3-2.6c8.5,0,17,6.8,17,22.1C126.3,64,124.4,70.1,120.6,76.5z"/>
</g>
</svg>
