<?xml version="1.0" encoding="utf-8"?>
<!-- Generator: Adobe Illustrator 21.1.0, SVG Export Plug-In . SVG Version: 6.00 Build 0)  -->
<svg version="1.1" id="Layer_1" xmlns="http://www.w3.org/2000/svg" xmlns:xlink="http://www.w3.org/1999/xlink" x="0px" y="0px"
	 viewBox="0 0 168.6 174.7" style="enable-background:new 0 0 168.6 174.7;" xml:space="preserve">
<style type="text/css">
	.st0{fill:#81C3EC; transition: .3s;}
	.active{fill:#0089CB;}
</style>
<g>
	<path class="st0" d="M74.3,66.3c4.2,0,7.4-1.6,9.3-2.9c0.4-0.3,0.9-0.3,1.3,0c1.9,1.3,5.1,2.9,9.3,2.9c8.7,0,17.5-6.7,17.5-19.5
		c0-10.7-8.3-19-10.5-20.9c0.4-3.6,1.2-18-6.9-21.5l-2.5-0.8L91,5.9c-0.3,0.9-0.3,2.3-0.3,4.1c0,3,0,7.1-2,9.2c-1,1-2.5,1.5-4.4,1.5
		c-1.9,0-3.4-0.5-4.4-1.5c-2-2-2-6.2-2-9.2c0-1.9,0-3.2-0.3-4.1l-0.7-2.2l-2.2,0.6l-0.4,0.1c-8.1,3.4-7.2,18.1-6.9,21.5
		c-2.2,2-10.5,10.2-10.5,20.9C56.9,59.6,65.7,66.3,74.3,66.3z M71,29.1c1-0.8,1.4-2,1.3-3.2c-0.5-3.8-0.3-9,0.8-12.7
		c0.2,3.2,0.8,6.8,3.4,9.4c1.9,1.9,4.5,2.9,7.8,2.9c3.2,0,5.9-1,7.8-2.9c2.6-2.6,3.2-6.2,3.4-9.4c1.2,4,1.2,9.6,0.8,12.8
		c-0.2,1.2,0.3,2.4,1.3,3.2c0.1,0.1,9.3,7.8,9.3,17.7c0,9.6-6.3,14.6-12.6,14.6c-3,0-5.2-1.1-6.6-2.1c-1-0.7-2.2-1.1-3.4-1.1
		c-1.2,0-2.4,0.4-3.4,1.1c-1.4,0.9-3.6,2.1-6.6,2.1c-6.3,0-12.6-5-12.6-14.6C61.7,36.9,70.9,29.2,71,29.1z"/>
	<path class="st0" d="M84.3,97.9c-6.3,0-11.3,5.1-11.3,11.3c0,6.3,5.1,11.3,11.3,11.3c6.3,0,11.3-5.1,11.3-11.3
		C95.6,102.9,90.6,97.9,84.3,97.9z M84.3,115.7c-3.6,0-6.5-2.9-6.5-6.5c0-3.6,2.9-6.5,6.5-6.5c3.6,0,6.5,2.9,6.5,6.5
		C90.8,112.8,87.9,115.7,84.3,115.7z"/>
	<path class="st0" d="M103.7,109.2c0-10.7-8.7-19.4-19.4-19.4S65,98.5,65,109.2s8.7,19.4,19.4,19.4S103.7,119.9,103.7,109.2z
		 M84.3,123.7c-8,0-14.5-6.5-14.5-14.5s6.5-14.5,14.5-14.5c8,0,14.5,6.5,14.5,14.5S92.3,123.7,84.3,123.7z"/>
	<path class="st0" d="M114.1,114.3c0.3-1.7,0.4-3.3,0.4-5.1c0-1.4-0.1-2.8-0.3-4.2c7.6-7.7,19.3-22.1,19.3-37.6
		c0-22.2-10.8-30-11.2-30.4c-0.8-0.5-1.8-0.6-2.6-0.1c-0.8,0.5-1.3,1.3-1.2,2.3c0,0.2,1.4,23.7-21.6,42.5c-3.9-1.8-8.2-2.7-12.6-2.7
		c-4.5,0-8.7,1-12.5,2.7C48.9,63,50.1,39.4,50.1,39.2c0.1-0.9-0.4-1.8-1.2-2.3c-0.8-0.5-1.8-0.4-2.6,0.1
		c-0.5,0.3-11.2,8.2-11.2,30.4c0,15.5,11.7,29.9,19.3,37.6c-0.2,1.4-0.3,2.8-0.3,4.2c0,1.7,0.1,3.4,0.4,5.1
		c-8.2,8-24.7,27.5-24.7,54.4c0,1.3,1.1,2.4,2.4,2.4h20.6c1.3,0,2.4-1,2.4-2.4c0-0.2,0.7-18.2,13.7-33.5c4.7,2.8,10,4.3,15.5,4.3
		c5.6,0,10.9-1.6,15.5-4.3c13,15.4,13.7,33.4,13.7,33.6c0,1.3,1.1,2.4,2.4,2.4h20.6c1.3,0,2.4-1.1,2.4-2.4
		C138.8,141.7,122.3,122.2,114.1,114.3z M39.9,67.4c0-11.4,3-18.4,5.6-22.3c1,8.7,5.1,25,21.7,39.2c-0.1,0-0.1,0.1-0.2,0.2
		c-0.6,0.4-1.1,0.8-1.6,1.2c-0.1,0-0.1,0.1-0.2,0.1c-0.6,0.5-1.2,1-1.7,1.5c0,0-0.1,0.1-0.1,0.1c-3.5,3.3-6.1,7.4-7.7,12.1
		C48.8,91.9,39.9,79.9,39.9,67.4z M69.8,130c-1-0.7-2.4-0.5-3.2,0.4c-12.7,13.9-15.5,29.9-16.1,35.9H34.7
		c1-24.9,17.1-42.7,24.1-49.4c0.6-0.6,0.9-1.4,0.7-2.3c-0.4-1.8-0.6-3.6-0.6-5.4c0-1.7,0.2-3.3,0.5-4.8c0-0.2,0.1-0.4,0.1-0.6
		c0.1-0.6,0.3-1.3,0.5-1.9c0.1-0.2,0.1-0.4,0.2-0.6c0.2-0.5,0.3-1,0.5-1.4c0.1-0.3,0.2-0.5,0.3-0.8c0.2-0.5,0.5-1,0.7-1.5
		c0.1-0.3,0.3-0.6,0.5-0.8c0.3-0.5,0.6-1,0.9-1.4c0.2-0.3,0.4-0.5,0.5-0.8c0.2-0.3,0.5-0.7,0.8-1c0.2-0.3,0.5-0.6,0.7-0.8
		c0.3-0.4,0.7-0.8,1-1.1c0.2-0.2,0.3-0.3,0.5-0.5c0.5-0.5,0.9-0.9,1.4-1.3c0.1-0.1,0.3-0.2,0.4-0.3c0.6-0.5,1.1-0.9,1.7-1.3
		c0,0,0,0,0,0c0.6-0.4,1.3-0.8,1.9-1.2c0.1,0,0.2-0.1,0.2-0.1c3.6-1.9,7.7-3,12-3c4.1,0,8.1,1,11.8,2.9c0.8,0.4,1.9,0.3,2.6-0.2
		c18.8-14.7,23.4-32.2,24.4-41.4c2.6,3.9,5.6,10.9,5.6,22.3c0,14.3-11.7,28.1-18.7,35.1c-0.6,0.6-0.8,1.4-0.7,2.1
		c0.3,1.5,0.4,3.1,0.4,4.6c0,2.3-0.3,4.5-0.9,6.6c-0.1,0.3-0.2,0.7-0.3,1c-1.2,3.9-3.4,7.5-6.3,10.3c0,0-0.1,0.1-0.1,0.1
		c-0.5,0.5-1.1,1-1.6,1.5c-0.2,0.1-0.3,0.3-0.5,0.4c-4.3,3.4-9.8,5.5-15.7,5.5C79.1,134.6,74.1,133,69.8,130z M118.1,166.3
		c-0.6-5.7-3.2-20.5-14.4-33.9c0.2-0.2,0.4-0.4,0.6-0.6c0.1-0.1,0.3-0.2,0.4-0.3c0.3-0.3,0.6-0.5,0.9-0.8c0.1-0.1,0.1-0.1,0.2-0.2
		c1-1,1.9-2,2.7-3.1c0,0,0-0.1,0.1-0.1c1.1-1.5,2-3,2.9-4.6c0.1-0.2,0.2-0.4,0.3-0.6c0.1-0.3,0.3-0.6,0.4-0.9
		c0.1-0.3,0.3-0.6,0.4-0.9c0.1-0.2,0.1-0.3,0.2-0.5c7.8,8.1,20.4,24.6,21.3,46.6H118.1z"/>
</g>
</svg>
