<?xml version="1.0" encoding="utf-8"?>
<!-- Generator: Adobe Illustrator 21.1.0, SVG Export Plug-In . SVG Version: 6.00 Build 0)  -->
<svg version="1.1" id="Layer_1" xmlns="http://www.w3.org/2000/svg" xmlns:xlink="http://www.w3.org/1999/xlink" x="0px" y="0px"
	 viewBox="0 0 168.6 174.7" style="enable-background:new 0 0 168.6 174.7;" xml:space="preserve">
<style type="text/css">
	.st0{fill:#81C3EC; transition: .3s;}
	.active{fill:#0089CB;}
</style>
<g>
	<path class="st0" d="M102.7,17.8H66c-15.2,0-27.6,12.4-27.6,27.6v14.9c0,9.3,4.8,18,12.6,23.1c0,0.6-0.1,1.2-0.1,1.8v18.9
		c0,11.3,9.2,20.6,20.6,20.6h25.8c11.3,0,20.6-9.2,20.6-20.6V85.3c0-0.6,0-1.2-0.1-1.8c7.8-5.1,12.6-13.8,12.6-23.1V45.5
		C130.3,30.2,117.9,17.8,102.7,17.8z M82.8,52.6c0.5,0,1-0.1,1.5-0.1c0.5,0,1,0,1.5,0.1c0,0,0.1,0,0.1,0c15.3,1.1,27,18,27,32.7v7.2
		H93.1v-0.9c0-4-3.3-7.3-7.3-7.3h-3c-4,0-7.3,3.3-7.3,7.3v0.9H55.7v-7.2c0-14.6,11.7-31.6,27-32.7C82.7,52.7,82.8,52.7,82.8,52.6z
		 M88.2,91.6v6.7c0,1.3-1.1,2.4-2.4,2.4h-3c-1.3,0-2.4-1.1-2.4-2.4v-6.7c0-1.3,1.1-2.4,2.4-2.4h3C87.2,89.2,88.2,90.3,88.2,91.6z
		 M97.2,119.9H71.4c-8.7,0-15.7-7.1-15.7-15.7v-6.9h19.9v0.9c0,4,3.3,7.3,7.3,7.3h3c4,0,7.3-3.3,7.3-7.3v-0.9h19.9v6.9
		C112.9,112.9,105.9,119.9,97.2,119.9z M125.4,60.4c0,6.9-3.2,13.4-8.4,17.7c-0.1-0.3-0.1-0.6-0.2-0.8c0-0.1-0.1-0.2-0.1-0.4
		c-0.1-0.4-0.2-0.7-0.3-1.1c-3.4-12.6-13.2-24.3-25.9-27.3c-0.1,0-0.2-0.1-0.4-0.1c-0.4-0.1-0.7-0.1-1.1-0.2c-0.2,0-0.4-0.1-0.6-0.1
		c-0.3,0-0.6-0.1-0.9-0.1c-0.3,0-0.6-0.1-0.9-0.1c-0.2,0-0.4,0-0.7-0.1c-0.5,0-1.1-0.1-1.7-0.1s-1.1,0-1.7,0.1c-0.2,0-0.4,0-0.7,0.1
		c-0.3,0-0.6,0.1-0.9,0.1c-0.3,0-0.6,0.1-0.9,0.1c-0.2,0-0.4,0.1-0.6,0.1c-0.4,0.1-0.7,0.1-1.1,0.2c-0.1,0-0.2,0.1-0.4,0.1
		C65.6,51.4,56,62.7,52.4,75c0,0.1,0,0.1-0.1,0.2c0,0.2-0.1,0.3-0.1,0.5c-0.1,0.4-0.2,0.8-0.3,1.2c0,0.1,0,0.2-0.1,0.3
		c-0.1,0.3-0.1,0.6-0.2,0.9c-5.3-4.3-8.4-10.8-8.4-17.7V45.5c0-12.6,10.2-22.8,22.8-22.8h36.7c12.6,0,22.8,10.2,22.8,22.8V60.4z"/>
	<path class="st0" d="M97.2,133.3H71.4c-11.3,0-20.6,9.2-20.6,20.6v3h4.8v-3c0-8.7,7.1-15.7,15.7-15.7h25.8
		c8.7,0,15.7,7.1,15.7,15.7v3h4.8v-3C117.8,142.5,108.5,133.3,97.2,133.3z"/>
</g>
</svg>
