<?xml version="1.0" encoding="utf-8"?>
<!-- Generator: Adobe Illustrator 21.1.0, SVG Export Plug-In . SVG Version: 6.00 Build 0)  -->
<svg version="1.1" id="Layer_1" xmlns="http://www.w3.org/2000/svg" xmlns:xlink="http://www.w3.org/1999/xlink" x="0px" y="0px"
	 viewBox="0 0 168.6 174.7" style="enable-background:new 0 0 168.6 174.7;" xml:space="preserve">
<style type="text/css">
	.st0{fill:#81C3EC; transition: .3s;}
	.active{fill:#0089CB;}
</style>
<path class="st0" d="M109.4,51.5c-10.4,0-18.3,4.4-23.1,8.1c0,0,0,0-0.1,0c-0.2-1.8-0.4-4.4-0.4-7.6c0.7,0,1.3,0,2,0
	c32,0,35.6-21.3,35.7-21.5c0.2-1.2-0.5-2.3-1.6-2.6c-9.3-3.2-17.7-3-24.8,0.7c-4,2.1-7,4.9-9.4,7.9c1.3-5.2,3.5-10.7,7-15.9
	c0.7-1.1,0.5-2.6-0.7-3.4c-1.1-0.7-2.6-0.5-3.4,0.7c-4.6,6.8-7.1,14.1-8.4,20.7C79,33.4,72.8,28.3,61,28.3c-1.3,0-2.4,1-2.4,2.3
	c0,0.3-0.3,8.3,5.6,14.4c3.9,4.1,9.6,6.4,16.7,6.8c0,2.8,0.2,5.2,0.4,7c-4.8-3.5-12.4-7.4-22.1-7.4c-22.3,0-37.3,20.2-37.3,39.1
	c0,16.6,19.1,40.3,27.3,50.5c1,1.2,1.8,2.2,2.3,2.9c0.7,0.9,1.3,1.8,2,2.6c4.3,5.8,8.4,11.3,17.2,11.3c4,0,7.9-1.6,11.3-4.6
	c1.3-1.2,3.3-1.2,4.6,0c3.4,3,7.3,4.6,11.3,4.6c8.8,0,12.9-5.5,17.2-11.3c0.6-0.9,1.3-1.7,2-2.6c0.6-0.7,1.4-1.7,2.3-2.9
	c8.2-10.1,27.3-33.9,27.3-50.5C146.7,71.7,131.7,51.5,109.4,51.5z M99.4,32.8c5.4-2.8,11.7-3.1,18.8-1.1
	c-1.7,4.7-8.1,15.8-31.3,15.5C88.6,43.2,92.5,36.4,99.4,32.8z M67.8,41.7c-2.7-2.8-3.7-6.2-4.1-8.5c12.4,1,15.9,9.3,16.9,13.7
	C75,46.5,70.7,44.7,67.8,41.7z M115.6,138c-1,1.2-1.8,2.2-2.4,3c-0.7,0.9-1.4,1.8-2,2.7c-4,5.4-6.9,9.3-13.3,9.3
	c-2.9,0-5.6-1.1-8.1-3.4c-1.6-1.4-3.5-2.1-5.5-2.1c-2,0-3.9,0.7-5.5,2.1c-2.5,2.2-5.2,3.4-8.1,3.4c-6.4,0-9.3-3.9-13.3-9.3
	c-0.7-0.9-1.3-1.8-2-2.7c-0.6-0.8-1.4-1.8-2.4-3c-7.2-8.9-26.2-32.5-26.2-47.4c0-16.6,13-34.3,32.5-34.3c9,0,15.9,3.8,20.1,7.1
	c2.9,2.3,7,2.3,10,0c4.2-3.2,11.1-7.1,20.1-7.1c19.4,0,32.5,17.7,32.5,34.3C141.9,105.5,122.8,129.1,115.6,138z"/>
</svg>
