<?xml version="1.0" encoding="utf-8"?>
<!-- Generator: Adobe Illustrator 23.1.0, SVG Export Plug-In . SVG Version: 6.00 Build 0)  -->
<svg version="1.1" id="Layer_1" xmlns="http://www.w3.org/2000/svg" xmlns:xlink="http://www.w3.org/1999/xlink" x="0px" y="0px"
	 viewBox="0 0 200 200" style="enable-background:new 0 0 200 200;" xml:space="preserve">
<style type="text/css">
	.st0{fill:#81C3EC;}
  .active{fill:#0089CB;}
</style>
<g>
	<g>
		<path class="st0" d="M116.8,102.6c-10.8-8.4-21.8-8.4-32.6,0c-0.8,0.6-1.3,1.6-1.3,2.6v73c0,3,1.5,5.9,3.9,7.6l8.2,5.9
			c1.7,1.1,3.6,1.7,5.5,1.7c2,0,3.8-0.6,5.4-1.7l8.2-5.9c2.4-1.7,3.9-4.6,3.9-7.6v-73C118,104.2,117.6,103.2,116.8,102.6z
			 M111.5,106.8v71.4c0,0.9-0.4,1.7-1.2,2.3l-8.2,5.9c-1,0.7-2.4,0.7-3.3,0l-8.3-5.9c-0.7-0.4-1.1-1.3-1.1-2.2v-71.4
			C97,101.5,104,101.5,111.5,106.8z"/>
		<g>
			<path class="st0" d="M118.2,163.5l-36.4,10.8c-1.7,0.5-2.6,2.3-2.2,4c0.3,1.4,1.6,2.3,3.1,2.3c0.2,0,0.6,0,1-0.2l36.3-10.8
				c1.7-0.5,2.6-2.3,2.1-4.1C121.8,163.9,120,163,118.2,163.5z"/>
			<path class="st0" d="M118.2,149.5l-36.4,10.8c-1.7,0.5-2.6,2.3-2.2,4c0.3,1.4,1.6,2.3,3.1,2.3c0.2,0,0.6,0,1-0.2l36.3-10.8
				c1.7-0.5,2.6-2.3,2.1-4.1C121.8,149.9,120,149,118.2,149.5z"/>
			<path class="st0" d="M118.2,135.5l-36.4,10.8c-1.7,0.5-2.6,2.3-2.2,4c0.3,1.4,1.6,2.3,3.1,2.3c0.2,0,0.6,0,1-0.2l36.3-10.8
				c1.7-0.5,2.6-2.3,2.1-4.1C121.8,135.9,120,135,118.2,135.5z"/>
			<path class="st0" d="M118.2,121.5l-36.4,10.8c-1.7,0.5-2.6,2.3-2.2,4c0.3,1.4,1.6,2.3,3.1,2.3c0.2,0,0.6,0,1-0.2l36.3-10.8
				c1.7-0.5,2.6-2.3,2.1-4.1C121.8,121.9,120,121,118.2,121.5z"/>
			<path class="st0" d="M82.8,124.6c0.2,0,0.6,0,1-0.2l36.3-10.8c1.7-0.5,2.6-2.3,2.1-4.1c-0.5-1.7-2.3-2.6-4.1-2.1l-36.4,10.8
				c-1.7,0.5-2.6,2.3-2.2,4C80,123.6,81.3,124.6,82.8,124.6z"/>
		</g>
	</g>
	<path class="st0" d="M143.3,9.5c-20.9-6.9-35,0.2-41.5,5c-0.9,0.6-1.9,0.6-2.8,0.1c-5.9-3.8-21.7-11.9-42.3-5
		C33.5,17.3,21.2,46.6,28,77.6c2.5,11.2,17.1,39.9,29.9,41.6c5.9,0.7,15,0.1,27.2-1.8c0.9-0.2,1.6-0.6,2.1-1.3
		c0.5-0.7,0.7-1.6,0.5-2.4c-0.2-0.9-0.6-1.6-1.3-2.1c-0.7-0.5-1.6-0.7-2.4-0.5c-5.6,1-18.1,2.7-25.2,1.8
		c-7.2-0.9-21.5-23.7-24.3-36.5c-6.1-27.8,4.5-53.8,24.5-60.5c17.9-6,31.6,1.1,36.6,4.4c3.1,2.1,7.1,2,10.1-0.2
		c5.6-4.1,17.7-10,35.7-4c20,6.7,30.5,32.7,24.5,60.5c-2.8,12.7-17.1,35.6-24.3,36.5c-5.1,0.7-13.3,0.2-23-1.3
		c-0.9-0.2-1.7,0-2.4,0.5c-0.7,0.5-1.2,1.2-1.3,2.1c-0.3,1.8,0.8,3.4,2.6,3.8c3.1,0.5,11.1,1.7,18.6,1.7c2.6,0,4.6-0.2,6.4-0.5
		c12.8-1.6,27.4-30.4,29.9-41.6C178.9,46.5,166.5,17.2,143.3,9.5z"/>
</g>
</svg>
