<?xml version="1.0" encoding="utf-8"?>
<!-- Generator: Adobe Illustrator 23.0.6, SVG Export Plug-In . SVG Version: 6.00 Build 0)  -->
<svg version="1.1" id="Layer_1" xmlns="http://www.w3.org/2000/svg" xmlns:xlink="http://www.w3.org/1999/xlink" x="0px" y="0px"
	 viewBox="0 0 200 200" style="enable-background:new 0 0 200 200;" xml:space="preserve">
<style type="text/css">
	.st0{fill:#81C3EC;}
</style>
<g>
	<g>
		<path class="st0" d="M100.6,192.1c-1.7,0-3.3-0.5-4.8-1.5l-8.2-5.9c-2.1-1.5-3.4-4-3.4-6.6v-73c0-0.6,0.3-1.2,0.8-1.6
			c10.3-8,20.8-8,31.1,0c0.5,0.4,0.8,1,0.8,1.6v73c0,2.6-1.3,5.1-3.4,6.6l0,0l-8.2,5.9C103.9,191.6,102.3,192.1,100.6,192.1z
			 M88.3,106.1v72c0,1.3,0.6,2.6,1.7,3.3l8.2,5.9c1.4,1,3.4,1,4.8,0l8.2-5.9c1.1-0.8,1.7-2,1.7-3.3v-72
			C104.6,100,96.6,100,88.3,106.1z M112.4,183L112.4,183L112.4,183z"/>
		<path class="st0" d="M82.9,179.3c-0.9,0-1.7-0.6-1.9-1.4c-0.3-1.1,0.3-2.2,1.3-2.5l36.4-10.8c1.1-0.3,2.2,0.3,2.5,1.3
			c0.3,1.1-0.3,2.2-1.3,2.5l-36.4,10.8C83.3,179.3,83.1,179.3,82.9,179.3z"/>
		<path class="st0" d="M82.9,165.3c-0.9,0-1.7-0.6-1.9-1.4c-0.3-1.1,0.3-2.2,1.3-2.5l36.4-10.8c1.1-0.3,2.2,0.3,2.5,1.3
			c0.3,1.1-0.3,2.2-1.3,2.5l-36.4,10.8C83.3,165.3,83.1,165.3,82.9,165.3z"/>
		<path class="st0" d="M82.9,151.3c-0.9,0-1.7-0.6-1.9-1.4c-0.3-1.1,0.3-2.2,1.3-2.5l36.4-10.8c1.1-0.3,2.2,0.3,2.5,1.3
			c0.3,1.1-0.3,2.2-1.3,2.5l-36.4,10.8C83.3,151.3,83.1,151.3,82.9,151.3z"/>
		<path class="st0" d="M82.9,137.3c-0.9,0-1.7-0.6-1.9-1.4c-0.3-1.1,0.3-2.2,1.3-2.5l36.4-10.8c1.1-0.3,2.2,0.3,2.5,1.3
			c0.3,1.1-0.3,2.2-1.3,2.5l-36.4,10.8C83.3,137.3,83.1,137.3,82.9,137.3z"/>
		<path class="st0" d="M82.9,123.3c-0.9,0-1.7-0.6-1.9-1.4c-0.3-1.1,0.3-2.2,1.3-2.5l36.4-10.8c1.1-0.3,2.2,0.3,2.5,1.3
			c0.3,1.1-0.3,2.2-1.3,2.5l-36.4,10.8C83.3,123.3,83.1,123.3,82.9,123.3z"/>
	</g>
	<g>
		<path class="st0" d="M135.9,118.4c-7.1,0-14.8-1.1-18.4-1.7c-1.1-0.2-1.8-1.2-1.6-2.3l0,0c0.2-1.1,1.2-1.8,2.3-1.6
			c4.5,0.7,15.8,2.3,23.4,1.3c8.3-1.1,22.7-25.2,25.4-37.5c6.2-28.5-4.6-55.1-25.3-62c-18.6-6.2-31,0-36.8,4.2c-2.6,1.9-6,2-8.7,0.2
			c-5.2-3.4-19.4-10.6-37.7-4.5c-20.6,6.9-31.5,33.5-25.3,62c2.7,12.3,17.1,36.5,25.4,37.5c7.7,1,20.7-0.9,25.6-1.8
			c1.1-0.2,2.1,0.5,2.3,1.6v0c0.2,1.1-0.5,2.1-1.6,2.3c-5.1,0.8-18.4,2.8-26.8,1.8c-11.8-1.5-26.3-29.3-28.8-40.6
			c-6.7-30.5,5.3-59.1,27.9-66.7c20-6.7,35.5,1.2,41.2,4.9c1.3,0.8,2.9,0.8,4.2-0.1c6.4-4.7,20.1-11.5,40.4-4.8
			c22.6,7.5,34.6,36.2,27.9,66.7c-2.5,11.3-17,39.1-28.8,40.6C140.1,118.3,138,118.4,135.9,118.4z"/>
	</g>
</g>
</svg>
