<?xml version="1.0" encoding="utf-8"?>
<!-- Generator: Adobe Illustrator 24.0.1, SVG Export Plug-In . SVG Version: 6.00 Build 0)  -->
<svg version="1.1" id="Layer_1" xmlns="http://www.w3.org/2000/svg" xmlns:xlink="http://www.w3.org/1999/xlink" x="0px" y="0px"
	 viewBox="0 0 200 200" style="enable-background:new 0 0 200 200;" xml:space="preserve">
<style type="text/css">
	.st0{fill:#81C3EC;}
	.st1{fill:#0089CB;}
	.st2{fill:#FFFFFF;}
	.st3{fill:#FF00FF;}
	.st4{fill:none;}
  .active{fill:#0089CB;}
</style>
<g>
	<g>
		<g>
			<path class="st0" d="M161.93,91.06H38.07c-12.36,0-22.39,10.03-22.39,22.39v46.28c0,8.83,7.16,15.99,16,15.99h136.65
				c8.84,0,16-7.16,16-15.99v-46.28C184.33,101.09,174.3,91.06,161.93,91.06z M179.89,159.73c0,6.37-5.18,11.56-11.56,11.56H31.67
				c-6.38,0-11.56-5.19-11.56-11.56v-46.28c0-9.91,8.06-17.97,17.96-17.97h123.87c9.9,0,17.96,8.06,17.96,17.97V159.73z"/>
			<path class="st2" d="M179.89,113.46v46.28c0,6.37-5.18,11.56-11.56,11.56H31.67c-6.38,0-11.56-5.19-11.56-11.56v-46.28
				c0-9.91,8.06-17.97,17.96-17.97h123.87C171.83,95.49,179.89,103.55,179.89,113.46z"/>
		</g>
	</g>
	<g>
		<path class="st0" d="M137.84,68.64c0-26.8-19.06-41.25-36.92-41.25c-8.94,0-15.66,3.32-19.75,6.12c-0.84,0.6-2.04,0.6-2.88,0
			c-4.09-2.8-10.81-6.12-19.75-6.12c-17.86,0-36.92,14.46-36.92,41.25c0,23.23,17.86,40.42,22.46,44.5
			c-0.68,6.98-2.64,38.29,14.55,45.51c0.93,0.34,1.7,0.52,2.38,0.52c1.02,0,1.78-0.34,2.3-0.68c2.64-1.78,2.64-5.88,2.64-11.66
			c0-6.81,0-15.23,4.42-19.65c2.12-2.12,5.28-3.24,9.44-3.24c4.17,0,7.32,1.02,9.45,3.24c4.42,4.42,4.42,12.84,4.42,19.65
			c0,5.7,0,9.87,2.64,11.66c0.84,0.6,2.46,1.1,4.68,0.16c17.18-7.32,15.22-38.53,14.54-45.51
			C119.98,109.14,137.84,91.95,137.84,68.64z M111.21,110.24c-0.68,0.52-1.02,1.36-0.93,2.22c1.18,9.78,1.44,36.25-11.49,41.77
			c-0.21-0.64-0.32-1.81-0.38-3.14c-0.05-1.33-0.05-2.81-0.05-4.09c0-7.32,0-17.26-5.88-23.14c-3.06-3.06-7.48-4.68-12.93-4.68
			c-5.52,0-9.86,1.54-12.92,4.68c-5.88,5.88-5.88,15.82-5.88,23.14c0,2.56,0,5.96-0.42,7.24c-10.21-4.35-11.97-20.83-11.97-31.74
			c0-5.72,0.48-9.91,0.48-10.03c0.09-0.86-0.25-1.7-0.93-2.22c-0.26-0.16-21.61-17.86-21.61-41.51c0-23.83,16.08-36.33,31.99-36.33
			c7.66,0,13.44,2.88,16.92,5.27c2.56,1.79,5.96,1.79,8.51,0c3.48-2.38,9.28-5.27,16.93-5.27c15.91,0,31.99,12.5,31.99,36.33
			C132.92,92.38,111.47,110.08,111.21,110.24z"/>
		<path class="st2" d="M132.66,68.73c0.26,23.65-21.19,41.35-21.45,41.51c-0.68,0.52-1.02,1.36-0.93,2.22
			c1.18,9.78,1.44,36.25-11.49,41.77c-0.21-0.64-0.32-1.81-0.38-3.14c-0.05-1.33-0.05-2.81-0.05-4.09c0-7.32,0-17.26-5.88-23.14
			c-3.06-3.06-7.48-4.68-12.93-4.68c-5.52,0-9.86,1.54-12.92,4.68c-5.88,5.88-5.88,15.82-5.88,23.14c0,2.56,0,5.96-0.42,7.24
			c-10.21-4.35-11.97-20.83-11.97-31.74c0-5.72,0.48-9.91,0.48-10.03c0.09-0.86-0.25-1.7-0.93-2.22
			c-0.26-0.16-21.61-17.86-21.61-41.51c0-23.83,16.08-36.33,31.99-36.33c7.66,0,13.44,2.88,16.92,5.27c2.56,1.79,5.96,1.79,8.51,0
			c3.48-2.38,9.28-5.27,16.93-5.27C116.58,32.4,132.66,44.9,132.66,68.73z"/>
	</g>
	<g>
		<g>
			<path class="st0" d="M140.08,70.92c-24.44,0-44.24,19.81-44.24,44.24c0,24.42,19.81,44.23,44.24,44.23s44.24-19.81,44.24-44.23
				C184.32,90.73,164.52,70.92,140.08,70.92z M140.08,154.96c-21.95,0-39.81-17.86-39.81-39.8c0-21.95,17.86-39.81,39.81-39.81
				c21.94,0,39.81,17.86,39.81,39.81C179.89,137.1,162.02,154.96,140.08,154.96z"/>
			<path class="st2" d="M179.89,115.16c0,21.94-17.87,39.8-39.81,39.8c-21.95,0-39.81-17.86-39.81-39.8
				c0-21.95,17.86-39.81,39.81-39.81C162.02,75.35,179.89,93.21,179.89,115.16z"/>
		</g>
		<path class="st0" d="M138.82,138.42c-0.95,0-1.86-0.41-2.49-1.12l-19.65-22.2c-1.22-1.37-1.09-3.47,0.29-4.69
			c1.37-1.22,3.47-1.09,4.69,0.29l16.79,18.97l20.94-31.47c1.02-1.53,3.08-1.94,4.61-0.93c1.53,1.02,1.94,3.08,0.93,4.61
			l-23.33,35.07c-0.57,0.86-1.51,1.4-2.54,1.47C138.97,138.41,138.89,138.42,138.82,138.42z"/>
	</g>
</g>
</svg>
