<?xml version="1.0" encoding="utf-8"?>
<!-- Generator: Adobe Illustrator 21.1.0, SVG Export Plug-In . SVG Version: 6.00 Build 0)  -->
<svg version="1.1" id="Layer_1" xmlns="http://www.w3.org/2000/svg" xmlns:xlink="http://www.w3.org/1999/xlink" x="0px" y="0px"
	 viewBox="0 0 168.6 174.7" style="enable-background:new 0 0 168.6 174.7;" xml:space="preserve">
<style type="text/css">
	.st0{fill:#81C3EC;}
	.st1{fill:#0089CB;}
</style>
<g>
	<path class="st0" d="M135.7,95.7h-7.4l-0.3-2.6c-1.3-10.7-2.7-21.1-4-29.8c-1.6-11.5-11.6-20.2-23.3-20.2H67.9
		c-11.6,0-21.7,8.7-23.3,20.2c-1.1,8.2-2.6,18.9-4,29.8l-0.3,2.6h-7.4C20,95.7,9.5,85.2,9.5,72.3V44.1c0-23,18.7-41.7,41.7-41.7
		h66.3c23,0,41.7,18.7,41.7,41.7v28.2C159.1,85.2,148.6,95.7,135.7,95.7z M133.6,89.8h2.2c9.6,0,17.5-7.8,17.5-17.5V44.1
		c0-19.7-16-35.7-35.7-35.7H51.2c-19.7,0-35.7,16-35.7,35.7v28.2c0,9.6,7.8,17.5,17.5,17.5H35c1.2-10,2.6-19.8,3.6-27.3
		c2-14.5,14.6-25.3,29.2-25.3h32.8c14.6,0,27.2,10.9,29.2,25.3C131,70.5,132.3,80,133.6,89.8z"/>
	<path class="st0" d="M84.3,172.2c-11.2,0-22.3-0.3-33.2-0.9c-11.9-0.7-21.3-10.8-21-22.7c0.8-29.1,4.5-57.3,8.6-86.2
		c2-14.5,14.6-25.3,29.2-25.3h32.8c14.6,0,27.2,10.9,29.2,25.3c4,28.8,7.7,57.1,8.6,86.2c0.3,11.9-9.1,22-21,22.7
		C106.6,171.9,95.5,172.2,84.3,172.2z M67.9,43.1c-11.6,0-21.7,8.7-23.3,20.2c-4,28.7-7.7,56.8-8.5,85.5
		c-0.2,8.6,6.6,16.1,15.3,16.6c21.5,1.2,44.3,1.2,65.8,0c8.7-0.5,15.6-7.9,15.3-16.5c-0.8-28.8-4.5-56.9-8.5-85.5l0,0
		c-1.6-11.5-11.6-20.2-23.3-20.2H67.9z"/>
	<path class="st1" d="M85.4,84.4c-5.5-0.5-9.2,9.2-13.9,9.2c-4.7,0-9-2.5-9.2,2.7c-0.2,5.2,6.2,9-3.7,15.2
		c-10,6.2-4.5,12.2-1.7,13.4c2.7,1.2,3.7,4,7,2c3.2-2,12.4-12.9,16.4-3.7s10.5,4.2,11.9,1.2c1.5-3,5.2-3.2,4.7-6
		c-0.5-2.7-5.3-3.2-4.7-7.3c0.6-4.1,2.8-6.2,5.6-4.8c2.8,1.4,3.4-2.2,4.1-3.3c0.7-1.1,5.4,0.2,5.4-2.4s-1.9-9-5.4-8.2
		c-3.5,0.7-3,5.2-5.6,5.2s-3.9-7.1-6-8S90.1,84.9,85.4,84.4z"/>
</g>
</svg>
